<svg xmlns="http://www.w3.org/2000/svg" viewBox="0 0 30 30"><path d="M26,17.42l-.87-.88V14.62l.69-1,1.76-.25L27.38,10l-.64-.81-.49-2.49L25,4.94l-1.54-.68L23.1,5l-.73.88-1.14.39L19.9,5.7l-.72-1,0-1.38.53-1.38-3.12-.27L15.53.87,12.32,1l-.85.68-4,.5L3.83,5.76,3.7,6l.38.11,1.33.57,1.51.84.78,1,0,1.2-.39,1.12-1.12.42-1.32-.06L3.6,10.49,1.76,9.73l-.37-.18L.71,13.12l1.53.35,1.21.66.48,1.06-.12,1.47-1.08.94-1.84.06-.32-.13,0,1.56.36,1.45,1.26.63L2.43,23,4,25.24l1.09,1,1.62.18,1.18,1.13,2-2.13,1.29-1.23,1.39-.15,1.27.63.54.84.09,1.39-.6,1.18-1.13.66,2.54.35,1.36-1.23,3.75-.22,1.49-1.45,2.62-.86,1.09-1.49.31-1.9,1.77-1.8.81-1.72.1-1ZM9.24,22.75l-1,.79L7,23.57,5.71,23l-.63-1.2v-1.3l.6-.93.9-.36,1.51.15.93,1,.43,1.12ZM15.38,17l-.45.87-1,.69-1.39-.24-1.78-1.05L10,16.39,10,15.1l.48-1,.69-.45,1.63,0,1.51.91,1.11,1.08ZM16,8.53l-1,.66-1.45.06L12.28,8.8,11.8,7.53l.12-1.23,1.35-1,2.08-.06,1,.85.18,1.44Zm7.2,15.73-1.45.48-1.57-.42-1.86-1.27-.73-.87-.24-1.36.33-1,.61-.63,2.32,0,2,1.17,1,1.24.09,1.47ZM23,12.42l-1.57,1.35-1.6,0L19,13.29l-.51-1.24.24-1.11L20.2,9.37l1.36-.6,1.06.12.87.87.21,1.36Z" fill="#212121"/><polygon points="1.77 8.99 3 9.58 4.19 10.07 4.99 10.5 5.85 10.54 6.57 10.26 6.83 9.54 6.85 8.76 6.34 8.12 5.36 7.57 4.5 7.2 3.47 6.91 2.51 6.71 1.81 6.98 1.46 7.71 1.38 8.41 1.77 8.99" fill="#212121"/><polygon points="12.65 6.66 12.57 7.49 12.89 8.35 13.72 8.65 14.7 8.61 15.39 8.16 15.76 7.49 15.64 6.51 14.97 5.94 13.56 5.99 12.65 6.66" fill="#212121"/><polygon points="20.79 1.95 20.48 2.47 20.16 3.3 20.14 4.14 20.58 4.76 21.39 5.11 22.08 4.87 22.52 4.34 22.73 3.89 22.96 3.17 23.13 2.46 22.94 1.74 22.3 1.4 21.63 1.38 20.79 1.95" fill="#212121"/><polygon points="19.58 11.11 19.42 11.83 19.75 12.62 20.27 12.95 21.3 12.93 22.3 12.06 22.77 11.23 22.63 10.36 22.07 9.8 21.39 9.72 20.52 10.11 19.58 11.11" fill="#212121"/><polygon points="26.35 14.36 25.93 14.96 25.93 16.14 26.46 16.68 28.04 16.71 29.39 16.47 29.85 16.18 30 15.36 29.83 14.57 29.2 14.16 27.95 14.12 27.44 14.21 26.35 14.36" fill="#212121"/><polygon points="19.07 20.23 20.57 20.25 21.85 21.01 22.51 21.8 22.57 22.76 22.24 23.49 21.31 23.8 20.3 23.53 19.09 22.72 18.63 22.15 18.47 21.28 18.68 20.64 19.07 20.23" fill="#212121"/><polygon points="11.7 14.54 12.75 14.56 13.73 15.15 14.45 15.85 14.45 16.73 14.16 17.29 13.49 17.74 12.6 17.59 11.45 16.9 10.98 16.34 10.94 15.5 11.25 14.84 11.7 14.54" fill="#212121"/><polygon points="6.85 20.09 7.76 20.18 8.33 20.78 8.58 21.45 8.46 22.25 7.84 22.73 7.13 22.75 6.32 22.38 5.94 21.65 5.94 20.87 6.31 20.3 6.85 20.09" fill="#212121"/><polygon points="8.96 27.77 9.17 27.41 10.54 25.97 11.41 25.13 12.35 25.03 13.21 25.46 13.57 26.03 13.63 26.97 13.23 27.77 12.19 28.38 10.98 28.91 10.11 28.95 9.33 28.68 9.05 28.23 8.96 27.77" fill="#212121"/><polygon points="1.01 14.03 1.97 14.25 2.71 14.66 3.01 15.31 2.94 16.23 2.27 16.81 1.12 16.85 0.28 16.51 0.04 15.89 0 15.03 0.23 14.45 0.54 14.15 1.01 14.03" fill="#212121"/><rect width="30" height="30" fill="none"/></svg>