<svg xmlns="http://www.w3.org/2000/svg" viewBox="0 0 30 30"><path d="M26.17,5.83c-.13-.26-.58-.1-.81,0-.61.23-1.22.4-1.91.59a.34.34,0,0,1-.39-.49c.6-1.12,1.14-2.15,1.72-3.16.3-.52.27-.74-.37-.85a20.07,20.07,0,0,0-10.51.62,2.89,2.89,0,0,1-1.27.12,19.22,19.22,0,0,0-3.29-.41c-.3,0-.57,0-.71.35-.55,1.5-1.12,3-1.7,4.46-.18.47-.24.82.58.75-.65.9-1.23,1.68-1.77,2.47A9.54,9.54,0,0,0,3.8,16.16c0,.53.17.69.67.45.14-.07.31-.1.45-.17.45-.23.54-.05.55.39a4,4,0,0,0,.2,1.52A7.32,7.32,0,0,1,6,23.19c-.22,1,.07,1.17.9.69a1.43,1.43,0,0,1,2,.13,4.66,4.66,0,0,0,.41.37,4.16,4.16,0,0,1,.4-2.1c.11-.19,0-.29-.08-.41-1.26-1.48-1.13-3.14-.57-4.81a8.59,8.59,0,0,1,3.6-4.25c2.08-1.44,4.57-2.16,7-3.11L19,9.29c-1.44-1-2.64-2.16-2.53-4.13,0-.25-.08-.6.34-.6s.22.32.24.5A4.9,4.9,0,0,0,20.16,9a1.55,1.55,0,0,0,1.3,0c1.47-.74,2.8-1.62,4.2-2.49C25.9,6.35,26.33,6.17,26.17,5.83ZM15.12,7.88l-2.19.82c-.3.12-.61.18-.76-.16s.23-.41.44-.53a12,12,0,0,1,2.25-.87c.34-.1.59,0,.63.36S15.29,7.81,15.12,7.88ZM11,5.14c.24-1.1,4.27-2.73,6.07-2.46A25.36,25.36,0,0,0,11,5.14Zm9.87-.61a.77.77,0,1,1,.77-.76A.77.77,0,0,1,20.88,4.53Z" fill="#212121"/><path d="M15.87,21.93a.46.46,0,0,1,.21.75c-.31.35-.6.68-.91,1a3.8,3.8,0,0,0-1,4.14c.21.7-.08.78-.66.63a4.52,4.52,0,0,1-3.26-4.94c.08-.53.24-.8.92-.93,1-.17,1.84-.71,2.85-.83A4.32,4.32,0,0,1,15.87,21.93Z" fill="#212121"/><path d="M19.1,11.86a4.76,4.76,0,0,1-1.44,3.41c-.57.56-.77.52-1.13-.16a9.51,9.51,0,0,1-.8-2.45.56.56,0,0,1,.42-.73c.66-.23,1.3-.52,2-.77C19.12,10.77,19.14,10.79,19.1,11.86Z" fill="#212121"/><path d="M9.56,18.92a5.81,5.81,0,0,1,.85-2.84.22.22,0,0,1,.4,0c.26.58.49,1.12.73,1.65.1.23.14.42-.15.52a6.61,6.61,0,0,0-1.48.82A.22.22,0,0,1,9.56,18.92Z" fill="#212121"/><rect width="30" height="30" fill="none"/></svg>