<svg xmlns="http://www.w3.org/2000/svg" viewBox="0 0 30 30"><path d="M29,28.13a2.31,2.31,0,0,1-.86-.21A6.76,6.76,0,0,1,27,27.21,8.4,8.4,0,0,1,25.15,25a1,1,0,0,0-1-.52,1,1,0,0,0-.74.56,7.31,7.31,0,0,1-2.63,2.64c-1.31.73-1.65.68-2.82-.19a8.47,8.47,0,0,1-2-2.32V22.81a3.17,3.17,0,0,1,.47,0,8.75,8.75,0,0,0,10.63-7.29c.16-1,0-1.25-.88-1.6a8.46,8.46,0,0,0-7.9.67,25.71,25.71,0,0,0-2.36,1.87c0-1-.17-1.87.57-2.75a7,7,0,1,0-3,0c.81.89.5,1.79.51,2.75a2.07,2.07,0,0,1-.47-.4A8.75,8.75,0,0,0,3.73,14a1.12,1.12,0,0,0-.84,1.22,8.74,8.74,0,0,0,7.39,7.73,32.43,32.43,0,0,0,3.83,0v2a17.39,17.39,0,0,1-1.55,1.88,4.66,4.66,0,0,1-1.84,1.18.59.59,0,0,1-.6,0,8.78,8.78,0,0,1-1.4-1.07,21.39,21.39,0,0,1-1.6-2.06.93.93,0,0,0-1.61,0l-.24.37A7.44,7.44,0,0,1,2.82,27.6a3.21,3.21,0,0,1-1.61.53,1,1,0,0,0-1.08.71v.46c.31.62.54.77,1.24.68a7.14,7.14,0,0,0,1.52-.35A8.05,8.05,0,0,0,6,27.34L6.28,27c.08.09.14.17.21.24.63.64,1.23,1.31,1.89,1.91a2.94,2.94,0,0,0,3.63.4,9,9,0,0,0,2.22-1.71c.26-.26.51-.54.77-.83a11.1,11.1,0,0,0,2.17,2.16,3.6,3.6,0,0,0,4,.4,9,9,0,0,0,2.93-2.29l.23-.26.3.35a9.32,9.32,0,0,0,1.95,1.81A4.11,4.11,0,0,0,29,30a.88.88,0,0,0,.92-.93A.89.89,0,0,0,29,28.13Zm-8.1-12.71a6.55,6.55,0,0,1,3.87,0c.18.06.42.39.38.54a6.88,6.88,0,0,1-7.34,5.27c-.07,0-.13-.05-.3-.13l2.93-1.7a6.17,6.17,0,0,0,.7-.42.86.86,0,0,0,.29-1.23.84.84,0,0,0-1.22-.33c-1,.54-1.94,1.11-2.9,1.66l-.74.4A6.51,6.51,0,0,1,20.86,15.42ZM9.49,19.32l3.08,1.78a6.78,6.78,0,0,1-7.73-5.47c2.44-1.32,7.18-.13,8.72,3.89l-3.15-1.81c-1-.56-1.48-.55-1.81,0S8.52,18.76,9.49,19.32ZM9.89,7A5.11,5.11,0,1,1,15,12.06,5.1,5.1,0,0,1,9.89,7Z" fill="#212121"/><path d="M17.47,21.08l2.93-1.7a6.17,6.17,0,0,0,.7-.42.86.86,0,0,0,.29-1.23.84.84,0,0,0-1.22-.33c-1,.54-1.94,1.11-2.9,1.66l-.74.4a6.74,6.74,0,0,1,8.2-4.06c.18.06.42.39.38.54a6.88,6.88,0,0,1-7.34,5.27C17.7,21.21,17.64,21.16,17.47,21.08Z" fill="#c5e1a5" stroke="#c5e1a5" stroke-linecap="round" stroke-linejoin="round" stroke-width="0.5"/><path d="M12.57,21.1a6.78,6.78,0,0,1-7.73-5.47c2.44-1.32,7.18-.13,8.72,3.89l-3.15-1.81c-1-.56-1.48-.55-1.81,0s-.08,1,.89,1.58Z" fill="#c5e1a5" stroke="#c5e1a5" stroke-linecap="round" stroke-linejoin="round" stroke-width="0.5"/><circle cx="15" cy="6.95" r="5.11" fill="#e1bee7" stroke="#e1bee7" stroke-linecap="round" stroke-linejoin="round" stroke-width="0.5"/><rect width="30" height="30" fill="none"/></svg>