<svg xmlns="http://www.w3.org/2000/svg" viewBox="0 0 30 30"><path d="M26.09,13.84a8.39,8.39,0,0,0-7.84.67,25.22,25.22,0,0,0-2.34,1.85c0-1-.16-1.85.56-2.73a6.9,6.9,0,1,0-2.94,0c.8.89.49,1.78.5,2.74a2,2,0,0,1-.46-.4,8.7,8.7,0,0,0-9.74-2.1c-.56.24-.9.55-.84,1.21a8.67,8.67,0,0,0,7.33,7.67,32,32,0,0,0,3.8,0c0,1.53,0,3.17,0,4.81,0,.81-.06,1.61-.09,2.42H16V22.62a3.17,3.17,0,0,1,.47,0A8.67,8.67,0,0,0,27,15.43C27.12,14.48,27,14.19,26.09,13.84ZM9.53,19.15l3.06,1.78A6.74,6.74,0,0,1,4.92,15.5c2.42-1.31,7.12-.13,8.65,3.86l-3.13-1.79c-1-.56-1.46-.56-1.79,0S8.57,18.6,9.53,19.15ZM9.93,6.9A5.07,5.07,0,1,1,15,12,5.07,5.07,0,0,1,9.93,6.9ZM17.74,21a3.15,3.15,0,0,1-.29-.13l2.91-1.69a7.06,7.06,0,0,0,.69-.42.85.85,0,0,0,.28-1.22.82.82,0,0,0-1.21-.32c-1,.53-1.91,1.09-2.87,1.64l-.73.4a6.66,6.66,0,0,1,8.13-4c.17.05.41.38.38.52A6.84,6.84,0,0,1,17.74,21Z" fill="#212121"/><path d="M17.45,20.91l2.91-1.69a7.06,7.06,0,0,0,.69-.42.85.85,0,0,0,.28-1.22.82.82,0,0,0-1.21-.32c-1,.53-1.91,1.09-2.87,1.64l-.73.4a6.66,6.66,0,0,1,8.13-4c.17.05.41.38.38.52A6.84,6.84,0,0,1,17.74,21,3.15,3.15,0,0,1,17.45,20.91Z" fill="#7cb342" stroke="#7cb342" stroke-linecap="round" stroke-linejoin="round" stroke-width="0.5"/><path d="M12.59,20.93A6.74,6.74,0,0,1,4.92,15.5c2.42-1.31,7.12-.13,8.65,3.86l-3.13-1.79c-1-.56-1.46-.56-1.79,0s-.08,1,.88,1.56Z" fill="#7cb342" stroke="#7cb342" stroke-linecap="round" stroke-linejoin="round" stroke-width="0.5"/><circle cx="15" cy="6.9" r="5.07" fill="#ff9800" stroke="#ff9800" stroke-linecap="round" stroke-linejoin="round" stroke-width="0.5"/><rect width="30" height="30" fill="none"/></svg>