<svg xmlns="http://www.w3.org/2000/svg" viewBox="0 0 30 30"><rect x="0.75" y="0.75" width="28.5" height="28.5" rx="3.07" fill="#8fce63" stroke="#212121" stroke-miterlimit="10" stroke-width="1.5"/><path d="M18.67,7.83H18a1.53,1.53,0,0,0-1.08.45l-.83.83H13.93l-.83-.83A1.53,1.53,0,0,0,12,7.83h-.69a1.53,1.53,0,0,0-1.27.68L5.34,15.57a3.87,3.87,0,0,1,5.47,0,3.8,3.8,0,0,1,1.13,2.65h6.12a3.8,3.8,0,0,1,1.13-2.65,3.87,3.87,0,0,1,5.47,0L19.94,8.51A1.53,1.53,0,0,0,18.67,7.83ZM15,17.36a1.88,1.88,0,1,1,1.88-1.88A1.88,1.88,0,0,1,15,17.36Z" fill="#212121" stroke="#212121" stroke-miterlimit="10"/><circle cx="21.92" cy="18.3" r="3.87" fill="none" stroke="#212121" stroke-miterlimit="10"/><circle cx="8.08" cy="18.3" r="3.87" fill="none" stroke="#212121" stroke-miterlimit="10"/><rect width="30" height="30" fill="none"/></svg>