<svg xmlns="http://www.w3.org/2000/svg" viewBox="0 0 30 30"><path d="M9.18,28.72a2.8,2.8,0,0,0,1.3.44c.71-.25,1.48-.27,2-.81a19.17,19.17,0,0,0,1.76-1.73c.52-.73,1.29-.85,1.76-.08a6.72,6.72,0,0,0,1.94,2.1c1.18.89,2.73.15,4-.58.59-.33.43-1.67.43-1.67a3,3,0,0,0-.89-2L17.16,20a3.06,3.06,0,0,0-4.32,0L8.49,24.36a2.92,2.92,0,0,0-.78,1.37s-.19,1.52.15,1.89A9.28,9.28,0,0,0,9.18,28.72Z" fill="#ffca28" stroke="#212121" stroke-linecap="round" stroke-linejoin="round" stroke-width="1.5"/><path d="M0,28.83a1,1,0,0,1,1.1-.72,3.18,3.18,0,0,0,1.62-.53,7.56,7.56,0,0,0,2.47-2.37l.24-.37a1,1,0,0,1,1.63,0,23.08,23.08,0,0,0,1.61,2.08A10.83,10.83,0,0,0,10.07,28a.63.63,0,0,0,.61,0,4.79,4.79,0,0,0,1.86-1.19,20.65,20.65,0,0,0,1.58-1.92,1,1,0,0,1,1.76,0A8.54,8.54,0,0,0,18,27.41c1.18.89,1.53.94,2.84.2a7.32,7.32,0,0,0,2.66-2.67,1.08,1.08,0,0,1,.74-.56,1,1,0,0,1,1,.53,8.38,8.38,0,0,0,1.91,2.28,5.85,5.85,0,0,0,1.07.71,2.31,2.31,0,0,0,.86.21.92.92,0,0,1,.92.94.9.9,0,0,1-.93.94,4.16,4.16,0,0,1-2.43-.82,9.21,9.21,0,0,1-2-1.82l-.3-.36-.24.27a9.12,9.12,0,0,1-2.95,2.31,3.65,3.65,0,0,1-4-.4A11.3,11.3,0,0,1,15,27c-.26.28-.51.57-.77.84A9.17,9.17,0,0,1,12,29.54a3,3,0,0,1-3.65-.4c-.67-.6-1.28-1.28-1.92-1.93-.06-.06-.12-.14-.2-.24l-.3.35a8,8,0,0,1-3.12,2.3A6.28,6.28,0,0,1,1.26,30c-.72.1-.94,0-1.26-.67Z" fill="#212121"/><polyline points="15 6.83 20.41 6.83 20.41 7.98" fill="none" stroke="#212121" stroke-linecap="round" stroke-linejoin="round" stroke-width="1.5"/><line x1="14.99" y1="18.94" x2="15" y2="1.57" fill="#ffca28" stroke="#212121" stroke-linecap="round" stroke-linejoin="round" stroke-width="1.5"/><path d="M15.82.75a.82.82,0,0,1-1.64,0Z" fill="#969696" stroke="#212121" stroke-linecap="round" stroke-linejoin="round" stroke-width="1.5"/><polyline points="21.05 2.27 21.05 4.19 8.95 4.19 8.95 2.24" fill="none" stroke="#212121" stroke-linecap="round" stroke-linejoin="round" stroke-width="1.5"/><rect x="13.56" y="9.6" width="2.88" height="3.33" stroke-width="1.5" stroke="#212121" stroke-linecap="round" stroke-linejoin="round" fill="#969696"/><rect x="12.56" y="14.54" width="4.88" height="2.8" stroke-width="1.5" stroke="#212121" stroke-linecap="round" stroke-linejoin="round" fill="#ffca28"/><polyline points="13.56 10.92 10.79 10.92 10.79 9.06" fill="none" stroke="#212121" stroke-linecap="round" stroke-linejoin="round" stroke-width="1.5"/><rect x="10.25" y="6.85" width="1.08" height="1.73" stroke-width="1.5" stroke="#212121" stroke-linecap="round" stroke-linejoin="round" fill="#969696"/><rect width="30" height="30" fill="none"/></svg>