<svg xmlns="http://www.w3.org/2000/svg" viewBox="0 0 30 30"><rect x="0.75" y="0.75" width="28.5" height="28.5" rx="3.07" fill="#3483c0" stroke="#212121" stroke-miterlimit="10" stroke-width="1.5"/><path d="M9.14,19.59H4.2A.37.37,0,0,1,3.94,19l2.29-2.3L8.88,14a.36.36,0,0,1,.52,0l2.65,2.67L14.34,19a.37.37,0,0,1-.26.63Z" fill="#212121" stroke="#212121" stroke-miterlimit="10" stroke-width="0.5"/><path d="M14.74,16.66l2.81,2.82a.36.36,0,0,0,.26.11h8a.37.37,0,0,0,.26-.63l-4.52-4.55L16.66,9.5a.37.37,0,0,0-.52,0l-4,4a.37.37,0,0,0,0,.52Z" fill="#212121" stroke="#212121" stroke-miterlimit="10" stroke-width="0.5"/><rect width="30" height="30" fill="none"/></svg>