<svg xmlns="http://www.w3.org/2000/svg" viewBox="0 0 30 30"><path d="M24.17,25.85a5.24,5.24,0,0,1-.89,2.07,4.24,4.24,0,0,1-3.34,1.68c-1.15,0-2.3,0-3.46,0a4.31,4.31,0,0,1-3.07-7.24c.23-.25.48-.48.72-.73a2.86,2.86,0,0,0,.08-4.05c-1-1.07-2-2.09-3-3.16a5.49,5.49,0,0,1,.32-7.8,5.31,5.31,0,0,1,3.6-1.46c1.19,0,2.38,0,3.57,0a5.53,5.53,0,0,1,5.37,4.61c0,.11.05.21.08.32Zm-1-7.91V10.61a4.51,4.51,0,0,0-4.42-4.42c-1.18,0-2.36,0-3.53,0a4.36,4.36,0,0,0-2.2.63,4.47,4.47,0,0,0-1.06,6.84c1,1.14,2.12,2.22,3.15,3.36a3.84,3.84,0,0,1,.27,4.73A11.15,11.15,0,0,1,14.27,23a3.18,3.18,0,0,0-.74,3.59,3.23,3.23,0,0,0,3.09,2h3.05a3.28,3.28,0,0,0,3.47-3.46Z" fill="#212121" stroke="#212121" stroke-linecap="round" stroke-linejoin="round" stroke-width="0.75"/><path d="M24.17,3.68a4.49,4.49,0,0,1-.52.91A1.79,1.79,0,0,1,21.48,5a1.86,1.86,0,0,1,.66-3.52A1.9,1.9,0,0,1,24,2.62l.15.33Zm-2.68-.34a.8.8,0,0,0,.81.82.83.83,0,1,0-.81-.82Z" fill="#212121" stroke="#212121" stroke-linecap="round" stroke-linejoin="round" stroke-width="0.75"/><path d="M8.22,7.23a2.4,2.4,0,1,1,2.4-2.41A2.39,2.39,0,0,1,8.22,7.23Zm0-1A1.35,1.35,0,0,0,9.59,4.86a1.37,1.37,0,1,0-2.73,0A1.35,1.35,0,0,0,8.21,6.19Z" fill="#212121" stroke="#212121" stroke-linecap="round" stroke-linejoin="round" stroke-width="0.75"/><path d="M14.81,2.26a1.86,1.86,0,0,1-3.72,0,1.86,1.86,0,1,1,3.72,0ZM13,1.41a.84.84,0,0,0-.84.84.84.84,0,0,0,.83.81.83.83,0,0,0,.83-.8A.84.84,0,0,0,13,1.41Z" fill="#212121" stroke="#212121" stroke-linecap="round" stroke-linejoin="round" stroke-width="0.75"/><path d="M19.48,2.23A1.86,1.86,0,1,1,17.65.38,1.84,1.84,0,0,1,19.48,2.23Zm-2.68,0a.83.83,0,0,0,1.65,0,.82.82,0,0,0-.83-.85A.84.84,0,0,0,16.8,2.23Z" fill="#212121" stroke="#212121" stroke-linecap="round" stroke-linejoin="round" stroke-width="0.75"/><path d="M23.14,17.94v7.17a3.28,3.28,0,0,1-3.47,3.46H16.62a3.23,3.23,0,0,1-3.09-2A3.18,3.18,0,0,1,14.27,23a11.15,11.15,0,0,0,1.08-1.2A3.84,3.84,0,0,0,15.08,17c-1-1.14-2.13-2.22-3.15-3.36A4.47,4.47,0,0,1,13,6.82a4.36,4.36,0,0,1,2.2-.63c1.17,0,2.35,0,3.53,0a4.51,4.51,0,0,1,4.42,4.42v7.33Z" fill="#795548"/><path d="M21.49,3.34a.82.82,0,0,1,.81-.83.83.83,0,1,1,0,1.65A.8.8,0,0,1,21.49,3.34Z" fill="#795548"/><path d="M8.21,6.19A1.35,1.35,0,0,1,6.86,4.83a1.37,1.37,0,1,1,2.73,0A1.35,1.35,0,0,1,8.21,6.19Z" fill="#795548"/><path d="M13,1.41a.84.84,0,0,1,.82.85.83.83,0,0,1-.83.8.84.84,0,0,1-.83-.81A.84.84,0,0,1,13,1.41Z" fill="#795548"/><path d="M16.8,2.23a.84.84,0,0,1,.82-.82.83.83,0,1,1,0,1.65A.83.83,0,0,1,16.8,2.23Z" fill="#795548"/><rect width="30" height="30" fill="none"/></svg>