<svg xmlns="http://www.w3.org/2000/svg" viewBox="0 0 30 30"><path d="M15.12,25.55a10.47,10.47,0,0,1-7.49-3.13,1.06,1.06,0,0,1-.26-.83V12.22l1.09,4.42a6.86,6.86,0,0,0,13.4-.32l.33-1.7.71,1.58a4.38,4.38,0,0,0,.69,1.19,1,1,0,0,1,.21.61v3l-.11.14A10.55,10.55,0,0,1,15.12,25.55Z" fill="#eee"/><path d="M22.4,16.43a5.19,5.19,0,0,0,.75,1.3.45.45,0,0,1,.1.27v2.81A10,10,0,0,1,8,22c-.06-.07-.1-.16-.1-.45V16.77a7.42,7.42,0,0,0,14.48-.34M6.82,7.67V21.59a1.63,1.63,0,0,0,.42,1.22,11.08,11.08,0,0,0,16.9-1.36l.21-.29V18a1.54,1.54,0,0,0-.33-.94A4.28,4.28,0,0,1,23.4,16L22,12.82l-.66,3.4A6.31,6.31,0,0,1,9,16.51L6.82,7.67Z" fill="#212121"/><path d="M21.33,12.09A6.85,6.85,0,0,0,9.54,11l-1,1.39V6.76l.22-.17A10.52,10.52,0,0,1,23,8l.21.24-.4,1.2-.27,1.13-.15,1-.22,2.34Z" fill="#eee"/><path d="M15.12,5a10,10,0,0,1,7.49,3.39l-.3.9L22,10.46l-.15,1,0,.37A7.41,7.41,0,0,0,9.09,10.68V7a10,10,0,0,1,6-2m0-1.1A11,11,0,0,0,8.43,6.16L8,6.49V14.1l2-2.78a6.31,6.31,0,0,1,10.85,1L22.55,16l.38-4,0-.34.14-.95.26-1.08.29-.85.2-.6-.42-.48A11.1,11.1,0,0,0,15.12,3.9Z" fill="#212121"/><path d="M15.12,21.73A6.73,6.73,0,1,1,21.85,15,6.74,6.74,0,0,1,15.12,21.73Z" fill="#eee"/><path d="M15.12,8.82A6.18,6.18,0,1,1,8.94,15a6.18,6.18,0,0,1,6.18-6.18m0-1.1A7.28,7.28,0,1,0,22.4,15a7.28,7.28,0,0,0-7.28-7.28Z" fill="#212121"/><path d="M4.62,25.33V14.4a1,1,0,0,0-.28-.69l-.29-.29A2.1,2.1,0,0,1,3.44,12V5.47H8.35V12a2.1,2.1,0,0,1-.61,1.47l-.29.29a1,1,0,0,0-.29.69V25.33Z" fill="#eee"/><path d="M7.8,6V12A1.53,1.53,0,0,1,7.35,13l-.29.29a1.56,1.56,0,0,0-.45,1.08V24.78H5.18V14.4a1.56,1.56,0,0,0-.45-1.08L4.44,13A1.53,1.53,0,0,1,4,12V6h.72v5.5h.85V6h.67v5.5h.85V6H7.8m1.1-1.1h-6v7a2.61,2.61,0,0,0,.77,1.86L4,14.1a.42.42,0,0,1,.13.3V25.88H7.71V14.4a.42.42,0,0,1,.13-.3l.29-.29A2.61,2.61,0,0,0,8.9,12v-7Z" fill="#212121"/><path d="M24,25.33V17.59c-.5-.46-1.48-1.75-1.48-4.76a11.07,11.07,0,0,1,2.44-7,.87.87,0,0,1,.68-.32.89.89,0,0,1,.9.89v19Z" fill="#eee"/><path d="M25.66,6a.34.34,0,0,1,.35.34v18.4H24.57V17.32s-1.48-.89-1.48-4.49a10.47,10.47,0,0,1,2.32-6.67A.3.3,0,0,1,25.66,6m0-1.1a1.41,1.41,0,0,0-1.1.52A11.59,11.59,0,0,0,22,12.83c0,2.87.88,4.32,1.48,5v8.07h3.64V6.38a1.44,1.44,0,0,0-1.45-1.44Z" fill="#212121"/><rect width="30" height="30" fill="none"/></svg>