<svg xmlns="http://www.w3.org/2000/svg" viewBox="0 0 30 30"><rect x="0.75" y="0.75" width="28.5" height="28.5" rx="3.07" fill="#fff734" stroke="#212121" stroke-miterlimit="10" stroke-width="1.5"/><path d="M14.47,10,7,17.45a.79.79,0,0,0-.22.54v7.34a.76.76,0,0,0,.75.75h3.34a.76.76,0,0,0,.75-.75v-6.9a.75.75,0,0,1,.75-.76h5.34a.75.75,0,0,1,.75.76v6.9a.76.76,0,0,0,.75.75h3.34a.76.76,0,0,0,.75-.75V18a.76.76,0,0,0-.23-.54L15.53,10A.75.75,0,0,0,14.47,10Z" fill="#212121" stroke="#212121" stroke-linecap="round" stroke-linejoin="round" stroke-width="0.5"/><path d="M15.53,4.14a.75.75,0,0,0-1.06,0L3.82,14.79v1.28l1.36.46,9.29-9.29a.75.75,0,0,1,1.06,0l9.29,9.29,1.36-.46V14.79Z" fill="#212121" stroke="#212121" stroke-linecap="round" stroke-linejoin="round" stroke-width="0.5"/><rect width="30" height="30" fill="none"/></svg>