<svg xmlns="http://www.w3.org/2000/svg" viewBox="0 0 30 30"><path d="M7.07,2.5l12.47.06a2.28,2.28,0,0,1,1.59.66l3.41,3.39a2.28,2.28,0,0,1,.67,1.61v17a2.27,2.27,0,0,1-2.28,2.27L7.05,27.44a2.27,2.27,0,0,1-2.26-2.27V4.77A2.26,2.26,0,0,1,7.07,2.5Z" fill="#212121"/><path d="M7.3,25.78a1,1,0,0,1-1-1V5.2a1,1,0,0,1,1-1h9.39a1,1,0,0,1,1,1V9.37a.88.88,0,0,0,.88.88h4.11a1,1,0,0,1,1,1V24.8a1,1,0,0,1-1,1Zm1.64-4.19a1.13,1.13,0,0,1,.58.13,1.37,1.37,0,0,1,.29.25,1.26,1.26,0,0,0,.26.21,1.38,1.38,0,0,0,.3.14l.22.09.23.14a1.4,1.4,0,0,0,.26.16,2.11,2.11,0,0,0,.79.12h1c.37,0,.74,0,1.1,0,.67,0,1.34-.13,2-.22.4-.05.81-.11,1.22-.15a23.17,23.17,0,0,1,2.36-.13h.91a1.45,1.45,0,0,0,1-.29,1.77,1.77,0,0,0-1.37-.51,2.15,2.15,0,0,0-.45,0l-.66.12a5.17,5.17,0,0,1-1.17.17H17.6a4.11,4.11,0,0,1-.7-.13l-.52-.11-.5,0a8.09,8.09,0,0,0-1.63.22l-.58.12a5.79,5.79,0,0,1-1.05.1A2.64,2.64,0,0,1,11,21.54l-.17-.13a2.47,2.47,0,0,0-.27-.21A1.62,1.62,0,0,0,9.67,21c-.22,0-.45,0-.67.05a1.37,1.37,0,0,0-.59.19c-.12.07-.23.18-.22.27s0,.05.08.1a.4.4,0,0,0,.17,0l.24,0,.19,0Zm5.22-1.84a7.61,7.61,0,0,1,1.42.15c.12,0,.23.06.35.09s.4.11.6.14l.3,0a3.45,3.45,0,0,0,2.2-1,2.09,2.09,0,0,1,.56-.41,1.7,1.7,0,0,1,.73-.12l.83,0c.11,0,.24,0,.29-.11s0-.19-.11-.23a.5.5,0,0,0-.23,0H21a9,9,0,0,0-2.13.29l-.37.13a6.36,6.36,0,0,1-.62.19,5.25,5.25,0,0,1-1.12.1H15.12a27.69,27.69,0,0,1-3.26-.15,2.25,2.25,0,0,1-.77-.2L11,18.51a.83.83,0,0,0-.16-.09,1.42,1.42,0,0,0-.46-.12,6.17,6.17,0,0,0-.94-.08,5.49,5.49,0,0,0-.84.07c-.19,0-.32.1-.35.17a.11.11,0,0,0,0,.12c.09.18.37.2.58.22l.12,0a4.67,4.67,0,0,1,1.52.57,6.85,6.85,0,0,0,1.15.49,1.81,1.81,0,0,0,.49.07,1.29,1.29,0,0,0,.35-.05l.15-.07.23-.08a1.06,1.06,0,0,1,.27,0ZM8.79,15.16a1.12,1.12,0,0,1,.67.4l.14.12a4.32,4.32,0,0,0,2.68.78l.46,0a3.15,3.15,0,0,0,.44,0l.38-.11.34-.11a3.64,3.64,0,0,1,.71-.06l1.81,0a5.37,5.37,0,0,1,1,.08l.23.06.4.09h.21a4.07,4.07,0,0,0,1-.19,4.14,4.14,0,0,1,1.05-.19h.43a1,1,0,0,0,.37-.06.47.47,0,0,0,.26-.35.24.24,0,0,0-.07-.23.64.64,0,0,0-.33-.08l-2.37-.1c-.58,0-1.12,0-1.66,0a12.86,12.86,0,0,0-1.74.1l-.36.06c-.22,0-.44.07-.66.08s-.42,0-.64,0l-2.51-.05a2.57,2.57,0,0,1-.55-.06,2.44,2.44,0,0,1-.64-.28l-.36-.19a2.16,2.16,0,0,0-.82-.18,1.65,1.65,0,0,0-.32,0c-.17,0-.23.16-.22.24s.11.17.26.17h.34Zm1.12-3.29H9.44a2.63,2.63,0,0,0-.86.15c-.14.05-.4.25-.39.32s0,0,.14,0a3.59,3.59,0,0,1,1.24.39,6,6,0,0,0,.89.33,4.39,4.39,0,0,0,.93.08h.32a36,36,0,0,0,6-.46l.57-.12c.51-.1,1-.21,1.57-.26l.6,0a5.63,5.63,0,0,0,.58,0,.69.69,0,0,0,.29-.07.21.21,0,0,0,.11-.21c0-.15-.24-.17-.37-.18h-.71a20.89,20.89,0,0,0-2.09.1,5.51,5.51,0,0,0-1,.17l-.43.15a3.18,3.18,0,0,1-.68.22,2.93,2.93,0,0,1-.59,0c-1.18,0-2.28-.05-3.37-.12a3.6,3.6,0,0,1-.93-.15L11,12.1a2.15,2.15,0,0,0-.32-.13A2.35,2.35,0,0,0,9.91,11.87Z" fill="#eee"/><path d="M16.69,4.26a.94.94,0,0,1,.94.94V9.37a.93.93,0,0,0,.93.93h4.11a.93.93,0,0,1,.93.94V24.8a.93.93,0,0,1-.93.93H7.3a.94.94,0,0,1-.94-.93V5.2a.94.94,0,0,1,.94-.94h9.39m-1.12,8.18h-.09c-1.09,0-2.19,0-3.28-.12a3.53,3.53,0,0,1-.91-.15c-.21-.07-.41-.18-.62-.25a2.41,2.41,0,0,0-.76-.1H9.44a3,3,0,0,0-.88.15c-.15.06-.71.43-.24.46a13,13,0,0,1,2.13.72,4.18,4.18,0,0,0,.93.08h.33a34.66,34.66,0,0,0,6-.46,19.57,19.57,0,0,1,2.14-.38c.39,0,.78,0,1.17-.07a.78.78,0,0,0,.31-.07.25.25,0,0,0,.14-.27c0-.17-.25-.21-.42-.22h-.71c-.69,0-1.39,0-2.09.1a4.85,4.85,0,0,0-1,.17,9.63,9.63,0,0,1-1.11.37,2.78,2.78,0,0,1-.58,0M8.46,15.22h.32c.32,0,.55.3.79.51a4.43,4.43,0,0,0,2.7.79l.47,0a2.28,2.28,0,0,0,.45,0c.25,0,.48-.15.73-.21a3.16,3.16,0,0,1,.69-.06h.24l1.57,0a5.15,5.15,0,0,1,1,.08c.21.05.42.12.63.15h.22c.69,0,1.37-.38,2.07-.38h.43a1.06,1.06,0,0,0,.39-.06c.25-.11.41-.49.2-.67A.71.71,0,0,0,21,15.3l-2.41-.1c-.54,0-1.08,0-1.62,0a12.75,12.75,0,0,0-1.75.1c-.34.05-.67.11-1,.14s-.42,0-.64,0h-.52l-2,0a3.19,3.19,0,0,1-.54-.05,6.85,6.85,0,0,1-1-.47,2.11,2.11,0,0,0-.84-.19,1.19,1.19,0,0,0-.33,0c-.37.1-.35.51,0,.51h0m6.65,3.67a29.46,29.46,0,0,1-3.25-.15,2.18,2.18,0,0,1-.75-.19c-.1-.06-.19-.13-.29-.18a1.61,1.61,0,0,0-.48-.12,6,6,0,0,0-.95-.08,4.8,4.8,0,0,0-.85.08c-.18,0-.5.12-.38.36s.52.23.74.26a21.48,21.48,0,0,1,2.67,1.06,2.08,2.08,0,0,0,.5.07,1,1,0,0,0,.36-.05,3,3,0,0,1,.38-.15.77.77,0,0,1,.26,0h.14l.95,0a8.32,8.32,0,0,1,1.41.14c.32.08.63.19.95.24l.31,0a3.51,3.51,0,0,0,2.23-1,2.46,2.46,0,0,1,.55-.41,1.89,1.89,0,0,1,.71-.11l.83,0c.13,0,.28,0,.33-.14a.23.23,0,0,0-.13-.29.52.52,0,0,0-.24,0H21a9,9,0,0,0-2.13.29c-.33.1-.65.25-1,.32a5.15,5.15,0,0,1-1.11.1H15.11M8.44,21.68c.15,0,.31,0,.43,0h.07a1.06,1.06,0,0,1,.55.12c.21.12.35.34.55.47s.35.14.52.23.32.21.5.29a2,2,0,0,0,.81.13h1q.56,0,1.11,0c1.07-.06,2.13-.26,3.2-.37a23.33,23.33,0,0,1,2.36-.13h.91a1.49,1.49,0,0,0,1.06-.31,1.68,1.68,0,0,0-1.41-.59,2.32,2.32,0,0,0-.46,0,14.35,14.35,0,0,1-1.82.29H17.6c-.41,0-.8-.17-1.21-.24a4.36,4.36,0,0,0-.51,0,12.17,12.17,0,0,0-2.22.34,5.91,5.91,0,0,1-1,.1A2.61,2.61,0,0,1,11,21.5c-.15-.11-.29-.25-.45-.35a1.68,1.68,0,0,0-.89-.21c-.22,0-.46,0-.68,0a1.45,1.45,0,0,0-.61.19c-.15.1-.38.32-.14.46a.45.45,0,0,0,.2,0M16.69,4.16H7.3a1,1,0,0,0-1,1V24.8a1,1,0,0,0,1,1H22.67a1,1,0,0,0,1-1V11.24a1,1,0,0,0-1-1H18.56a.83.83,0,0,1-.83-.83V5.2a1,1,0,0,0-1-1Zm-1.12,8.38a3.08,3.08,0,0,0,.6,0,3.26,3.26,0,0,0,.69-.22l.42-.15a5.37,5.37,0,0,1,1-.17,20.69,20.69,0,0,1,2.08-.1h.71c.09,0,.3,0,.33.14a.17.17,0,0,1-.1.16.57.57,0,0,1-.27.06l-.57,0q-.3,0-.6,0c-.53,0-1.06.16-1.58.26l-.57.12a35.68,35.68,0,0,1-6,.46h-.32a4.12,4.12,0,0,1-.9-.08,4.76,4.76,0,0,1-.89-.33,3.7,3.7,0,0,0-1.26-.39H8.25a1.07,1.07,0,0,1,.35-.26,2.75,2.75,0,0,1,.85-.14h.46a2.5,2.5,0,0,1,.73.09l.31.13.31.13a3.49,3.49,0,0,0,.94.15c1.08.07,2.19.12,3.28.12ZM8.46,15.22v-.1c-.12,0-.2,0-.21-.12s0-.15.18-.19a1.06,1.06,0,0,1,.31,0,2.11,2.11,0,0,1,.8.18l.36.18a2.12,2.12,0,0,0,.65.29,2.57,2.57,0,0,0,.55.06h.25l1.75,0h.52a6.32,6.32,0,0,0,.65,0l.66-.08.36-.06a12.71,12.71,0,0,1,1.73-.1c.54,0,1.08,0,1.61,0l2,.08.42,0a.56.56,0,0,1,.29.07.18.18,0,0,1,.06.19.39.39,0,0,1-.23.3.88.88,0,0,1-.35.06h-.43a4.29,4.29,0,0,0-1.07.19,3.6,3.6,0,0,1-1,.19h-.2a2.74,2.74,0,0,1-.39-.09l-.24-.06a5.41,5.41,0,0,0-1.06-.08l-1.57,0h-.24a3.13,3.13,0,0,0-.72.07,2.3,2.3,0,0,0-.35.1l-.37.11a2.81,2.81,0,0,1-.43,0l-.46,0a4.48,4.48,0,0,1-2.65-.76l-.13-.13a1.2,1.2,0,0,0-.71-.41H8.46v.1ZM15.11,19h1.65a5.34,5.34,0,0,0,1.13-.1,4.21,4.21,0,0,0,.63-.2l.37-.12A8.87,8.87,0,0,1,21,18.27h.11a.36.36,0,0,1,.19,0c.06,0,.12.11.09.16s-.15.08-.24.08l-.43,0-.4,0a1.79,1.79,0,0,0-.75.12,2.08,2.08,0,0,0-.51.37l-.06.05a3.38,3.38,0,0,1-2.17,1l-.29,0a4.2,4.2,0,0,1-.59-.14l-.36-.09a7.72,7.72,0,0,0-1.43-.15l-.95,0h-.14a1.14,1.14,0,0,0-.28,0,1.7,1.7,0,0,0-.24.09l-.15.06a.88.88,0,0,1-.33,0,1.79,1.79,0,0,1-.48-.07,6.32,6.32,0,0,1-1.14-.49,4.84,4.84,0,0,0-1.54-.57l-.12,0c-.19,0-.46,0-.54-.19a.13.13,0,0,1,0-.08s.12-.1.32-.14a5.46,5.46,0,0,1,.83-.07,6.28,6.28,0,0,1,.94.08,1.42,1.42,0,0,1,.44.11l.16.09.14.08a2.31,2.31,0,0,0,.78.21,30.18,30.18,0,0,0,3.26.15ZM8.44,21.58a.33.33,0,0,1-.15,0s0,0,0-.05.08-.16.19-.23A1.36,1.36,0,0,1,9,21.09c.22,0,.45-.05.67-.05a1.52,1.52,0,0,1,.84.2l.27.21.17.13a2.67,2.67,0,0,0,1.67.49,5.9,5.9,0,0,0,1.06-.1l.58-.12a8.09,8.09,0,0,1,1.62-.22,4.07,4.07,0,0,1,.5,0l.51.11a3.94,3.94,0,0,0,.7.13h.22A5.17,5.17,0,0,0,19,21.74l.65-.13a3.4,3.4,0,0,1,.45,0h0a1.69,1.69,0,0,1,1.27.48,1.52,1.52,0,0,1-.92.22h-.91a23.36,23.36,0,0,0-2.37.13c-.41,0-.82.1-1.22.15-.65.09-1.32.18-2,.22-.33,0-.68,0-1.1,0h-1a2,2,0,0,1-.77-.12,1.28,1.28,0,0,1-.25-.15l-.24-.14-.23-.1a1.07,1.07,0,0,1-.53-.34,1.58,1.58,0,0,0-.31-.26,1.19,1.19,0,0,0-.6-.13H8.86l-.19,0-.23,0Z" fill="#eee"/><path d="M19.59,8.74a.4.4,0,0,1-.4-.4V4.64a.39.39,0,0,1,.4-.4.38.38,0,0,1,.28.12l3.65,3.7a.39.39,0,0,1,.09.43.41.41,0,0,1-.37.25Z" fill="#eee"/><path d="M19.59,4.29a.33.33,0,0,1,.24.1L23.49,8.1a.35.35,0,0,1-.25.59H19.59a.35.35,0,0,1-.35-.35V4.64a.35.35,0,0,1,.35-.35m0-.1a.45.45,0,0,0-.45.45v3.7a.45.45,0,0,0,.45.45h3.65a.44.44,0,0,0,.41-.28A.43.43,0,0,0,23.56,8L19.91,4.32a.48.48,0,0,0-.32-.13Z" fill="#eee"/><rect width="30" height="30" fill="none"/></svg>