<svg xmlns="http://www.w3.org/2000/svg" viewBox="0 0 30 30"><rect x="0.75" y="0.75" width="28.5" height="28.5" rx="1" fill="#f4784d" stroke="#212121" stroke-miterlimit="10" stroke-width="1.5"/><path d="M4.31,19.45l-.16-4.19a3.67,3.67,0,0,1,.48-2L5.71,11.4a3.7,3.7,0,0,1,.81-1L9.08,8.23a2.88,2.88,0,0,1,.39-.3l1.8-1.17a3.58,3.58,0,0,0,1.1-1.09h0A3.7,3.7,0,0,0,13,3.74L13,1.27h.88L13.81,4a3.66,3.66,0,0,1-.55,1.82L13,6.29a3.62,3.62,0,0,1-1.12,1.15L9.79,8.8A2.43,2.43,0,0,0,9.47,9L7.16,11A3.67,3.67,0,0,0,6.29,12L5.4,13.6a3.72,3.72,0,0,0-.46,1.91L5,17a3.8,3.8,0,0,1-.3,1.56Z" transform="translate(0 0)" fill="#212121"/><polygon points="17.89 24.76 18.05 25.97 19.75 26.05 21 24.68 21 23.18 17.89 24.76" fill="#212121"/><path d="M22.53,7,20,5.73l.24,1.48,1,2L19.42,11.1l1.46.16,1.78.48a1.92,1.92,0,0,1,1,.7l.16.21a1,1,0,0,1,.05,1.14l-.18.28a1.88,1.88,0,0,1-.7.67l-1,.56L20.23,15,21,13.2l-2.73-.12a2.15,2.15,0,0,0-1,.22l-.76.39-2.12.25a1.07,1.07,0,0,0-.87.66l-.73,1.83L8.27,18.05,5.85,19.83,5,21.72a.34.34,0,0,0,.2.46l1.64.56-1,.84.71.77a1.13,1.13,0,0,0,.53.19l2.44.19a.64.64,0,0,0,.52-.2l.74-.8a2.16,2.16,0,0,0,.41-.62l.36-.82a2.46,2.46,0,0,1,.63-.87l.42-.37a2.51,2.51,0,0,1,1.52-.62l4.28-.22L14.11,21.6a1.41,1.41,0,0,0-.77.63L12.1,24.4a.48.48,0,0,0,.45.72l2.51-.1a4.56,4.56,0,0,0,2-.56l3.46-1.89a5.43,5.43,0,0,0,1.1-.8l1.46-1.41a4.19,4.19,0,0,0,.39-.45l1.81-2.52a2.71,2.71,0,0,0,.5-1.48l.05-2.67a6.06,6.06,0,0,0-1.48-4.09ZM7.45,21.71a1,1,0,0,1,0-2.08,1,1,0,0,1,0,2.08Z" transform="translate(0 0)" fill="#212121"/><rect width="30" height="30" fill="none"/></svg>