<svg xmlns="http://www.w3.org/2000/svg" viewBox="0 0 30 30"><rect x="0.75" y="0.75" width="28.5" height="28.5" rx="3.07" fill="#eee" stroke="#212121" stroke-miterlimit="10" stroke-width="1.5"/><path d="M9.33,15.38a2.92,2.92,0,1,0,2.92,2.92A2.91,2.91,0,0,0,9.33,15.38Zm0,5.18A2.27,2.27,0,1,1,11.6,18.3,2.26,2.26,0,0,1,9.33,20.56Z" fill="#212121" stroke="#212121" stroke-linecap="round" stroke-linejoin="round" stroke-width="0.5"/><path d="M20.74,15.38a2.92,2.92,0,1,0,2.92,2.92A2.91,2.91,0,0,0,20.74,15.38Zm0,5.18A2.27,2.27,0,1,1,23,18.3,2.27,2.27,0,0,1,20.74,20.56Z" fill="#212121" stroke="#212121" stroke-linecap="round" stroke-linejoin="round" stroke-width="0.5"/><path d="M23.8,12.87H20.39a.71.71,0,0,1-.62-.37L17.9,9.16a.72.72,0,0,0-.63-.37H6.75A.71.71,0,0,0,6,9.5v2.63a.67.67,0,0,1-.21.5L4.66,13.8a.71.71,0,0,0-.21.5v4h.67a4.21,4.21,0,0,1,8.39-.58.69.69,0,0,0,.7.58h1.66a.7.7,0,0,0,.7-.58A4.21,4.21,0,0,1,25,18.3h.6V14.62a.75.75,0,0,0-.21-.51l-1-1A.67.67,0,0,0,23.8,12.87ZM9.42,12.42H7.89a.71.71,0,0,1-.72-.71V10.39a.71.71,0,0,1,.72-.71H9.42a.71.71,0,0,1,.71.71v1.32A.71.71,0,0,1,9.42,12.42Zm8.4,0h-6a.7.7,0,0,1-.71-.72l0-1.32a.7.7,0,0,1,.71-.7h4.66a.72.72,0,0,1,.6.31l.55.82a.68.68,0,0,1,.12.4Z" fill="#212121"/><rect width="30" height="30" fill="none"/></svg>