<svg xmlns="http://www.w3.org/2000/svg" viewBox="0 0 30 30"><path d="M9.11,25a1.09,1.09,0,0,1-.83-.27,1,1,0,0,1-.23-.76c.06-1.21.11-2.42.16-3.63l.09-2.43a1.14,1.14,0,0,0-.13-.61,5.73,5.73,0,0,1-.4-3.76,12.45,12.45,0,0,1,.35-1.43c.07-.25.14-.5.2-.74a.57.57,0,0,0,0-.26h0S8.23,11,8,11l-.21,0-.35,0a1.76,1.76,0,0,1-1.36-.76l-.19-.21a.83.83,0,0,1-.27-.77,1.17,1.17,0,0,1,.75-.81,15.11,15.11,0,0,0,2-1l-.14-.08C8,7.21,7.93,7.19,7.57,7a1.14,1.14,0,0,1-.72-.67A.75.75,0,0,1,7,5.72a.64.64,0,0,1,.55-.28,1.9,1.9,0,0,1,.8.27l.13.07c0-.16,0-.32,0-.46.11-.86.58-1,.86-1h0L9.18,4A1,1,0,0,1,9,3.18a.82.82,0,0,1,.48-.49.91.91,0,0,1,.39-.08,1.06,1.06,0,0,1,.92.74,3.68,3.68,0,0,0,.56.78,4,4,0,0,1,.74,1.11l.23-.08a4.88,4.88,0,0,1-.87-1.24,1.19,1.19,0,0,1-.18-1,.88.88,0,0,1,.55-.49,1,1,0,0,1,.37-.07A1,1,0,0,1,13,3l.05.11a2.43,2.43,0,0,0,.78.94c0-.1,0-.69,0-.88a.9.9,0,0,1,.85-1h.1a.91.91,0,0,1,.93.86,6.16,6.16,0,0,1,0,1,1.77,1.77,0,0,0,.53-1.34s0-.08,0-.13a1,1,0,0,1,.17-.85.92.92,0,0,1,.68-.29h0a1.07,1.07,0,0,1,.79.26,1.23,1.23,0,0,1,.28.92v.12a4.56,4.56,0,0,1,0,.65A1.63,1.63,0,0,0,19,2.12C19,1.18,19.53,1,20,1a1,1,0,0,1,.75.28,1.15,1.15,0,0,1,.24.87,3.5,3.5,0,0,1-2,3.11,14.07,14.07,0,0,1-4,1.32c-.45.1-.9.2-1.35.32l-.1,0a.5.5,0,0,1,.11.19.73.73,0,0,1-.26.78l-.09.1a1.3,1.3,0,0,1-.57.43.54.54,0,0,0-.19.09,2.75,2.75,0,0,1,.13.3c.1.27.18.52.26.76a8.55,8.55,0,0,0,.89,2,.49.49,0,0,1,.41-.23h0a6.73,6.73,0,0,1,1.12.1c.21,0,.42.07.62.08.68,0,1.36.1,2,.13a7.1,7.1,0,0,1,4.1,1.52,1.43,1.43,0,0,1,.65,1.47c0,.16-.13.64-.6.71l-.12,0h0s0,.09,0,.15a1.92,1.92,0,0,1,0,.24,5,5,0,0,0,.8,3.46,1.23,1.23,0,0,1,.24.74c0,.64.05,1.28.07,1.92s.05,1.35.08,2a1,1,0,0,1-.22.76.91.91,0,0,1-.69.25h-.16c-.3,0-1,0-1.06-.92,0-.54-.09-1.09-.15-1.63s-.1-.85-.13-1.27a.89.89,0,0,0-.35-.64,9.65,9.65,0,0,1-1.95-2.15,6,6,0,0,1-2.17.33l-.72,0h-.56s0,.08,0,.17c0,1.09,0,2.18,0,3.28V24a1,1,0,0,1-.24.75,1,1,0,0,1-.71.25c-.33,0-1.14,0-1.15-1a24.09,24.09,0,0,0-.46-3.78c-.08-.48-.16-1-.23-1.43,0,0,0,0-.08,0h-.87a1,1,0,0,0-.08.21c0,.12-.11.28-.2.47a13.44,13.44,0,0,0-.93,4.53.91.91,0,0,1-1,1Zm1-19.64a1.33,1.33,0,0,0,0,.57c.11-.2.14-.31.08-.4Z" fill="#a1887f"/><path d="M20,1.5h0c.56,0,.48.41.48.71a3,3,0,0,1-1.78,2.62,21.06,21.06,0,0,1-5.22,1.59,4,4,0,0,0-2,.74l-.11,0a8.76,8.76,0,0,1,1-.08l.43,0c.33,0,.5.14.22.42s-.28.34-.47.41c-.69.22-.53.6-.36,1.06a9.58,9.58,0,0,0,1.55,3.32,2.52,2.52,0,0,1,.49,2c0,.14-.16.35.09.41h.09a.41.41,0,0,0,.37-.34,2.61,2.61,0,0,0-.18-1.82c-.1-.23-.23-.45-.38-.72h.09c.56,0,1.09.14,1.63.18s1.36.1,2.05.13a6.59,6.59,0,0,1,3.82,1.41,1,1,0,0,1,.46,1c0,.12-.06.29-.19.31-.66.1-.48.54-.5.9a5.46,5.46,0,0,0,.91,3.78.79.79,0,0,1,.13.45c.06,1.32.09,2.63.15,3.94,0,.29,0,.49-.41.49h-.06c-.37,0-.63,0-.66-.45-.05-1-.21-1.94-.28-2.91a1.4,1.4,0,0,0-.53-1A9.07,9.07,0,0,1,18.88,18c-.06-.09-.09-.21-.22-.21l-.13,0a5.46,5.46,0,0,1-2.19.36l-1,0h-.06c-.59,0-.71.19-.7.69,0,1.71,0,3.41,0,5.11,0,.3,0,.5-.45.5h0c-.41,0-.63-.05-.63-.48a39.36,39.36,0,0,0-.7-5.28c0-.34-.2-.46-.57-.46h-.84c-.48,0-.39.1-.77,1a14.08,14.08,0,0,0-1,4.69c0,.29,0,.54-.51.54h0c-.46,0-.59-.1-.57-.5.1-2,.17-4.05.25-6.07A1.58,1.58,0,0,0,8.61,17a5.2,5.2,0,0,1-.34-3.45c.11-.71.36-1.41.53-2.12s0-.86-.75-.93l-.26,0h-.1l-.25,0c-.6,0-.87-.5-1.2-.83s-.06-.59.33-.76A15.44,15.44,0,0,0,8.74,7.79c.46-.35.69-.38-.13-.81-.43-.22-.41-.21-.84-.4S7.2,6.27,7.39,6a.15.15,0,0,1,.14-.07,3.09,3.09,0,0,1,.82.34,1.64,1.64,0,0,0,.42.12c.11,0,.16-.06.17-.2s0-.58,0-.82.1-.55.36-.55h0c.29,0,.24.23.23.45a1.81,1.81,0,0,0,.18,1.11c.07.23.14.39.25.39s.18-.09.32-.3c.28-.44.54-.84.29-1.25s-.71-.9-1-1.34c-.15-.26-.43-.57,0-.74a.54.54,0,0,1,.2,0c.25,0,.38.25.47.44.34.78,1.23,1.33,1.36,2.17a.13.13,0,0,0,.14.12,1.57,1.57,0,0,0,.42-.13c.3-.11.66-.15.88-.45a5.11,5.11,0,0,1-1.24-1.55c-.13-.28-.39-.66.1-.84l.19,0c.28,0,.36.32.48.53a2.86,2.86,0,0,0,1.14,1.25.78.78,0,0,0,.32.1c.14,0,.22-.1.24-.33,0-.39,0-.78,0-1.18,0-.23.06-.46.39-.49h.06a.43.43,0,0,1,.44.41c0,.44,0,.89,0,1.33,0,.12-.07.26.09.33a.18.18,0,0,0,.1,0,.49.49,0,0,0,.27-.13,2.24,2.24,0,0,0,1.07-2c0-.29-.18-.74.36-.77h.06c.57,0,.49.49.5.82A3.27,3.27,0,0,1,17.4,4.4c1.08-.49,2-1.06,2.1-2.25,0-.27-.05-.65.45-.65m0-1a1.36,1.36,0,0,0-1.41,1.15,1.31,1.31,0,0,0-.23-.31A1.47,1.47,0,0,0,17.24.92h-.1a1.38,1.38,0,0,0-1,.47,1.31,1.31,0,0,0-.3.69,1.42,1.42,0,0,0-1-.37h-.15a1.36,1.36,0,0,0-1.23,1,1.42,1.42,0,0,0-1.28-.9,1.47,1.47,0,0,0-.54.1,1.44,1.44,0,0,0-.77.62,1.31,1.31,0,0,0-1-.45,1.52,1.52,0,0,0-.59.12A1.33,1.33,0,0,0,8.5,3a1.41,1.41,0,0,0,.11,1A1.48,1.48,0,0,0,8,5a1.62,1.62,0,0,0-.49-.08,1.16,1.16,0,0,0-1,.49,1.23,1.23,0,0,0-.2,1.06,1.61,1.61,0,0,0,.94,1q-.54.29-1.14.54a1.66,1.66,0,0,0-1,1.18,1.33,1.33,0,0,0,.41,1.22l.16.18a2.25,2.25,0,0,0,1.74.93,1.77,1.77,0,0,0,.32,0l-.12.42a11.58,11.58,0,0,0-.36,1.49,6.21,6.21,0,0,0,.45,4.08.58.58,0,0,1,.07.35l-.09,2.45c0,1.2-.1,2.4-.16,3.61A1.51,1.51,0,0,0,7.92,25a1.57,1.57,0,0,0,1.2.43A1.39,1.39,0,0,0,10.63,24a12.94,12.94,0,0,1,.89-4.38l.16-.38h.17l.18,1A24.36,24.36,0,0,1,12.48,24c0,.53.23,1.43,1.61,1.46h0a1.49,1.49,0,0,0,1.11-.4,1.47,1.47,0,0,0,.38-1.1V22.11c0-1,0-2,0-3h0l.74,0a7.38,7.38,0,0,0,2-.23,11,11,0,0,0,1.82,1.93.41.41,0,0,1,.18.3c0,.43.08.86.13,1.29s.12,1.07.15,1.6a1.38,1.38,0,0,0,1.54,1.38h.18A1.39,1.39,0,0,0,23.36,25a1.44,1.44,0,0,0,.36-1.12c0-.68-.06-1.35-.08-2s0-1.28-.07-1.92a1.68,1.68,0,0,0-.35-1,4.57,4.57,0,0,1-.69-3.13v-.06a1.34,1.34,0,0,0,.67-1,1.9,1.9,0,0,0-.83-2A7.61,7.61,0,0,0,18,11.18c-.67,0-1.35-.07-2-.13a5.73,5.73,0,0,1-.58-.07,7.32,7.32,0,0,0-1.12-.11h-.11a.85.85,0,0,0-.23,0,10.47,10.47,0,0,1-.58-1.47l-.23-.66a2.21,2.21,0,0,0,.49-.43l.08-.08a1.33,1.33,0,0,0,.43-1L15,7.07A14.86,14.86,0,0,0,19.16,5.7a4,4,0,0,0,2.28-3.47V2.16A1.59,1.59,0,0,0,21.06.94,1.46,1.46,0,0,0,20,.5Z" fill="#212121"/><path d="M16.82,24.93a1.12,1.12,0,0,1-.55-.13.69.69,0,0,1-.28-1c.33-1.1.64-2.17,1-3.23,0-.08,0-.08,0-.16a8.86,8.86,0,0,1-1.15-1.59.5.5,0,0,1,0-.5.51.51,0,0,1,.43-.24h.33A6.49,6.49,0,0,0,18,18l.23,0a.8.8,0,0,1,.73.5c.16.33.34.65.53,1a1.11,1.11,0,0,1,.08,1c-.31.78-.6,1.56-.9,2.35l-.51,1.32a1.43,1.43,0,0,1-1.32.79Z" fill="#a1887f"/><path d="M18.21,18.45c.15,0,.21.09.28.22.17.34.35.68.55,1a.59.59,0,0,1,0,.6c-.47,1.23-.93,2.46-1.4,3.68a1,1,0,0,1-.86.47.58.58,0,0,1-.3-.07c-.22-.12-.07-.29,0-.42.31-1.07.62-2.13,1-3.19a.57.57,0,0,0-.14-.63,10.12,10.12,0,0,1-1.09-1.51h.33a7,7,0,0,0,1.55-.14l.12,0m0-1a1.86,1.86,0,0,0-.33,0,6.26,6.26,0,0,1-1.34.12h-.33a1,1,0,0,0-.87,1.49,10,10,0,0,0,1.09,1.53c-.31,1-.6,2-.89,3A1.2,1.2,0,0,0,16,25.24a1.62,1.62,0,0,0,.79.19,1.93,1.93,0,0,0,1.79-1.11l.49-1.27c.3-.8.6-1.6.91-2.4a1.65,1.65,0,0,0-.11-1.5,9.27,9.27,0,0,1-.51-.92,1.28,1.28,0,0,0-1.18-.78Z" fill="#212121"/><path d="M5.1,29a.86.86,0,0,1-.76-1.25L5.77,25a.85.85,0,0,1,.75-.46h17a.85.85,0,0,1,.75.46l1.43,2.74A.86.86,0,0,1,24.9,29Z" fill="#a1887f"/><path d="M23.48,25.05a.34.34,0,0,1,.31.19L25.21,28a.34.34,0,0,1-.31.51H5.1A.34.34,0,0,1,4.79,28l1.42-2.75a.34.34,0,0,1,.31-.19h17m0-1h-17a1.36,1.36,0,0,0-1.2.73L3.9,27.52a1.35,1.35,0,0,0,1.2,2H24.9a1.35,1.35,0,0,0,1.2-2l-1.42-2.74a1.36,1.36,0,0,0-1.2-.73Z" fill="#212121"/><rect width="30" height="30" fill="none"/></svg>