<svg xmlns="http://www.w3.org/2000/svg" viewBox="0 0 30 30"><path d="M12.78,22.34h3.84a.56.56,0,0,1,.6.5v5.91a.56.56,0,0,1-.6.5H13.38a.56.56,0,0,1-.6-.5V22.34Z" fill="#4e342e" stroke="#212121" stroke-linecap="round" stroke-linejoin="round" stroke-width="1.25"/><path d="M17.37,8.11,19,9.78a.67.67,0,0,0,.74.13l1.83-.8a.46.46,0,0,0,.21-.73L15.48,1a.65.65,0,0,0-1,0L8.22,8.38a.46.46,0,0,0,.21.73l1.66.72a.47.47,0,0,1,.22.74L7.37,14.16a.47.47,0,0,0,.26.75l2.34.83a.66.66,0,0,0,.72-.18l4.1-5,.05,0,2.53-2.37Z" fill="#4e342e" stroke="#212121" stroke-linecap="round" stroke-linejoin="round" stroke-width="1.25"/><path d="M19.58,15.9l2.79-1a.47.47,0,0,0,.26-.75l-3.31-4.05,0,0L17.81,8.56a.66.66,0,0,0-.9,0l-2.07,1.94-.05,0-4.35,5.35,0,0-4.62,4.6A.47.47,0,0,0,6,21.3l2.09.78a.57.57,0,0,0,.22,0l6.67.19h0l6.67-.19a.57.57,0,0,0,.22,0L24,21.3a.47.47,0,0,0,.22-.78L19.58,15.9Z" fill="#689f38" stroke="#212121" stroke-linecap="round" stroke-linejoin="round" stroke-width="1.25"/><rect width="30" height="30" fill="none"/></svg>