<svg xmlns="http://www.w3.org/2000/svg" viewBox="0 0 30 30"><path d="M18,21.93a.51.51,0,0,1-.5-.49,7.52,7.52,0,0,0-.91-3.19c-.86-1.49-5.15-4.8-6.33-5.6a1.32,1.32,0,0,0-.77-.21,5.82,5.82,0,0,0-1.11.16A6.65,6.65,0,0,1,7,12.78H6.83a3,3,0,0,1-2.58-3c0-.77.49-2.53,1.3-2.53.13,0,.58.06.64.75l0,.23c0,.6.13,1.84.53,1.84a3.09,3.09,0,0,0,1-.17A6.16,6.16,0,0,1,7.3,7.49,3.59,3.59,0,0,1,9.9,4a1.42,1.42,0,0,1,.55-.15.57.57,0,0,1,.49.29c.17.33,0,.59-.29,1A3.5,3.5,0,0,0,10,6.43a3.17,3.17,0,0,0,.64,3A23.26,23.26,0,0,0,13,11.62,4.43,4.43,0,0,1,12.61,10,3,3,0,0,1,15,6.91a1.28,1.28,0,0,1,.4-.09.61.61,0,0,1,.5.31c.16.33,0,.6-.31.94A2.53,2.53,0,0,0,15,9.17a2.88,2.88,0,0,0,.58,1.9,2.56,2.56,0,0,0,.2.26A3.13,3.13,0,0,1,17,9.79a5.37,5.37,0,0,1,3.64-1.41c.25,0,.85,0,1,.49s-.36.79-1.18,1.23a7.36,7.36,0,0,0-.74.43,3.25,3.25,0,0,0-1.27,2.25c0,1.39.24,2.54.66,2.62l.13,0a12,12,0,0,0,2.15.28c.61,0,1-.12,1.16-.33a4.8,4.8,0,0,0,.41-3.09.88.88,0,0,1,.15-.68.63.63,0,0,1,.43-.19c.76,0,1.43,1.74,1.43,3.11A3.91,3.91,0,0,1,22,18.37a10.92,10.92,0,0,1-1.85.23,11.33,11.33,0,0,1,.44,2.79.51.51,0,0,1-.49.5Z" fill="#eee"/><path d="M10.45,4.36c.31,0-.83,1-1,2a3.63,3.63,0,0,0,.75,3.43A49.4,49.4,0,0,0,15,13.85s-1.85-2-1.85-3.88a2.53,2.53,0,0,1,2.11-2.6l.21,0c.33,0-.89,1-.92,1.83a3.42,3.42,0,0,0,.67,2.22,10.08,10.08,0,0,0,1,1.09,2.34,2.34,0,0,1,1.13-2.26c1.4-1,2-1.32,3.36-1.32s-.57.75-1.25,1.24a3.76,3.76,0,0,0-1.47,2.64c0,1.09.12,2.94,1.06,3.13a13.2,13.2,0,0,0,2.38.32A1.86,1.86,0,0,0,23,15.66a5.49,5.49,0,0,0,.49-3.43c0-.21,0-.31.08-.31.25,0,.93,1.2.93,2.61a3.45,3.45,0,0,1-2.52,3.36,11.44,11.44,0,0,1-2.25.22h-.16a12.59,12.59,0,0,1,.6,3.28l-2.15,0A8,8,0,0,0,17,18c-.94-1.62-5.42-5.05-6.48-5.77a1.85,1.85,0,0,0-1-.29c-.78,0-1.65.34-2.44.34H6.86A2.53,2.53,0,0,1,4.75,9.79c0-.86.53-2,.8-2,.07,0,.12.09.14.29.07.94.11,2.53,1,2.53a3.84,3.84,0,0,0,1.7-.42A4.44,4.44,0,0,1,7.8,7.49C7.8,5.6,9,5,10.1,4.47a1,1,0,0,1,.35-.11m0-1a1.83,1.83,0,0,0-.75.2A4,4,0,0,0,6.8,7.49a7.29,7.29,0,0,0,.27,2.06l-.16,0A6.21,6.21,0,0,1,6.7,8.21V8A1.18,1.18,0,0,0,5.55,6.76c-1.27,0-1.8,2.17-1.8,3A3.53,3.53,0,0,0,6.8,13.27H7a7.15,7.15,0,0,0,1.42-.19,5.35,5.35,0,0,1,1-.15.84.84,0,0,1,.49.12c1.24.84,5.4,4.11,6.18,5.44A7,7,0,0,1,17,21.45a1,1,0,0,0,1,1h0l2.15,0a1,1,0,0,0,1-1,10.66,10.66,0,0,0-.31-2.33,9.76,9.76,0,0,0,1.33-.2,4.43,4.43,0,0,0,3.31-4.33c0-1.29-.64-3.61-1.93-3.61a1.05,1.05,0,0,0-.8.36,1.32,1.32,0,0,0-.28,1.07,4.45,4.45,0,0,1-.32,2.75h0a1.79,1.79,0,0,1-.75.11,10.58,10.58,0,0,1-2.06-.28h-.06a4.26,4.26,0,0,1-.32-2.12A2.73,2.73,0,0,1,20,10.94a6.87,6.87,0,0,1,.68-.4c.86-.46,1.66-.9,1.43-1.79-.14-.58-.63-.87-1.45-.87a5.85,5.85,0,0,0-3.93,1.5,3.79,3.79,0,0,0-1,1,2.31,2.31,0,0,1-.23-1.18,3,3,0,0,1,.5-.8,1.34,1.34,0,0,0,.37-1.47,1.06,1.06,0,0,0-.95-.59,1.73,1.73,0,0,0-.54.11A3.49,3.49,0,0,0,12.11,10c0,.1,0,.19,0,.28A12.74,12.74,0,0,1,11,9.14a2.65,2.65,0,0,1-.52-2.63,3.19,3.19,0,0,1,.61-1.11,1.35,1.35,0,0,0,.33-1.47,1.05,1.05,0,0,0-.94-.57Z" fill="#212121"/><path d="M5.1,26.14a.85.85,0,0,1-.73-.41.82.82,0,0,1,0-.83l1.43-2.75a.85.85,0,0,1,.75-.46h17a.85.85,0,0,1,.75.46l1.43,2.75a.82.82,0,0,1,0,.83.85.85,0,0,1-.73.41Z" fill="#eee"/><path d="M23.48,22.19a.36.36,0,0,1,.31.19l1.42,2.75a.34.34,0,0,1-.31.51H5.1a.34.34,0,0,1-.31-.51l1.42-2.75a.36.36,0,0,1,.31-.19h17m0-1h-17a1.36,1.36,0,0,0-1.2.73L3.9,24.67a1.32,1.32,0,0,0,0,1.32,1.34,1.34,0,0,0,1.16.65H24.9A1.34,1.34,0,0,0,26.06,26a1.32,1.32,0,0,0,0-1.32l-1.42-2.75a1.36,1.36,0,0,0-1.2-.73Z" fill="#212121"/><rect width="30" height="30" fill="none"/></svg>