<svg xmlns="http://www.w3.org/2000/svg" viewBox="0 0 30 30"><rect x="0.75" y="0.75" width="28.5" height="28.5" rx="3.07" fill="#f79d4f" stroke="#212121" stroke-miterlimit="10" stroke-width="1.5"/><circle cx="16.7" cy="5.78" r="2.18" fill="#212121"/><path d="M7.41,16H10a.61.61,0,0,0,.58-.42l2.12-6.47a.61.61,0,0,0-.58-.8H9.46a.61.61,0,0,0-.58.42L6.83,15.24A.61.61,0,0,0,7.41,16Z" fill="#212121"/><path d="M14.81,8.91l1.76.62a.88.88,0,0,1,.42.31l2.34,3.06a1,1,0,0,0,.26.23l1.77,1.06.18-2.48a.91.91,0,0,1,.38-.67l1-.69.29,1.32-.23.5a6.31,6.31,0,0,0-.62,2.74V25.73h-.77l-.16-9.49a.91.91,0,0,0-.77-.89l-1.36-.22a1,1,0,0,1-.41-.18l-2-1.57-.16,3.89a.91.91,0,0,0,.16.55l1.37,2.05a.93.93,0,0,1,.15.39l.57,4.53.47,1-.51.82-1.07-.09-.61-1.73a3.89,3.89,0,0,1-.17-.65l-.45-2.6a1,1,0,0,0-.24-.48l-4.43-4.65a.9.9,0,0,1-.21-.92l1.93-6A.92.92,0,0,1,14.81,8.91Z" fill="#212121"/><path d="M8.89,25.29l0,.72.51.58.94-.28,1.23-1.74,0,0,1.69-2.82a.35.35,0,0,0,.06-.17l.15-2.37a.39.39,0,0,0-.13-.32l-1.49-1.35a.4.4,0,0,0-.66.23l-.64,4.77a.35.35,0,0,1-.06.14Z" fill="#212121"/><rect width="30" height="30" fill="none"/></svg>