<svg xmlns="http://www.w3.org/2000/svg" viewBox="0 0 30 30"><rect x="0.75" y="0.75" width="28.5" height="28.5" rx="1" fill="#eee" stroke="#212121" stroke-miterlimit="10" stroke-width="1.5"/><path d="M5.59,16.23a.32.32,0,0,0-.32.38l.39,2,.63.59,1,.38H20.79a1.76,1.76,0,0,0,.78-.19l.92-.46a1.64,1.64,0,0,0,.55-.43l.82-1a2.12,2.12,0,0,0,.23-.35l.66-1.33-.17-.43h-3.5a1.63,1.63,0,0,0-.72.18l-.9.45a1.75,1.75,0,0,1-.78.18Z" transform="translate(0)" fill="#212121" stroke="#212121" stroke-linecap="round" stroke-linejoin="round" stroke-width="0.25"/><path d="M21.53,13.25a1.43,1.43,0,0,1-1.1-.52L19,11a1.42,1.42,0,0,0-1.1-.53H11.22v1h.91a1.45,1.45,0,0,1,1,.41l.5.5a1.41,1.41,0,0,1,.41,1v.94H5.3v.95H18a2.69,2.69,0,0,0,1.35-.37l.38-.22a2.68,2.68,0,0,1,1.35-.36h3.67V13.25Zm-2.29.89H15.36V13a1.34,1.34,0,0,0-.38-.93l-.68-.68h3.3a1.29,1.29,0,0,1,.93.39l.33.34a1.29,1.29,0,0,1,.38.92Z" transform="translate(0)" fill="#212121" stroke="#212121" stroke-linecap="round" stroke-linejoin="round" stroke-width="0.25"/><rect width="30" height="30" fill="none"/></svg>