<svg xmlns="http://www.w3.org/2000/svg" viewBox="0 0 30 30"><path d="M7.07,2.5l12.47.06a2.28,2.28,0,0,1,1.59.66l3.41,3.39a2.28,2.28,0,0,1,.67,1.61v17a2.27,2.27,0,0,1-2.28,2.27L7.05,27.44a2.27,2.27,0,0,1-2.26-2.27V4.77A2.26,2.26,0,0,1,7.07,2.5Z" fill="#212121"/><path d="M7.3,25.78a1,1,0,0,1-1-1V5.2a1,1,0,0,1,1-1h9.39a1,1,0,0,1,1,1V9.37a.88.88,0,0,0,.88.88h4.11a1,1,0,0,1,1,1V24.8a1,1,0,0,1-1,1Z" fill="#eee"/><path d="M16.69,4.26a.94.94,0,0,1,.94.94V9.37a.93.93,0,0,0,.93.93h4.11a.93.93,0,0,1,.93.94V24.8a.93.93,0,0,1-.93.93H7.3a.94.94,0,0,1-.94-.93V5.2a.94.94,0,0,1,.94-.94h9.39m0-.1H7.3a1,1,0,0,0-1,1V24.8a1,1,0,0,0,1,1H22.67a1,1,0,0,0,1-1V11.24a1,1,0,0,0-1-1H18.56a.83.83,0,0,1-.83-.83V5.2a1,1,0,0,0-1-1Z" fill="#eee"/><path d="M19.59,8.74a.4.4,0,0,1-.4-.4V4.64a.39.39,0,0,1,.4-.4.38.38,0,0,1,.28.12l3.65,3.7a.39.39,0,0,1,.09.43.41.41,0,0,1-.37.25Z" fill="#eee"/><path d="M19.59,4.29a.33.33,0,0,1,.24.1L23.49,8.1a.35.35,0,0,1-.25.59H19.59a.35.35,0,0,1-.35-.35V4.64a.35.35,0,0,1,.35-.35m0-.1a.45.45,0,0,0-.45.45v3.7a.45.45,0,0,0,.45.45h3.65a.44.44,0,0,0,.41-.28A.43.43,0,0,0,23.56,8L19.91,4.32a.48.48,0,0,0-.32-.13Z" fill="#eee"/><path d="M12.84,24.89a.52.52,0,0,0-.1-.52Z" fill="#212121"/><path d="M12.84,24.89a.48.48,0,0,0-.18-.46h0l.18-.08A1.93,1.93,0,0,0,12.84,24.89Zm0,0a4,4,0,0,0-.2-.5l.18-.08h0A.6.6,0,0,1,12.84,24.89Z" fill="#212121"/><path d="M20.29,19.43c.49,0,1,.07,1.47,0v-.08a.35.35,0,0,0-.27-.06.39.39,0,0,0,.27-.11v-.08a9.17,9.17,0,0,1-2.15.21.82.82,0,0,0-.38,0,0,0,0,0,0,0,.07A4.11,4.11,0,0,0,20.29,19.43Z" fill="#212121"/><path d="M20.29,19.43c.49,0,1,.05,1.47,0l-.05.06v-.08l0,0c-.06-.05-.12,0-.22,0l0-.13a.35.35,0,0,0,.23-.12l0,.08v-.08l.11.07a6.37,6.37,0,0,1-2.17.18h0a.72.72,0,0,0-.36,0l0,0s0,0,0,0h0A3.28,3.28,0,0,0,20.29,19.43Zm0,0a4.61,4.61,0,0,1-1.05,0h0a.08.08,0,0,1,0-.1v0h0a.9.9,0,0,1,.4,0h0a12.39,12.39,0,0,0,2.12-.23l.11,0v.22l0,0a.48.48,0,0,1-.3.11l0-.13a.35.35,0,0,1,.31.09v0h0v.13h0C21.26,19.52,20.78,19.4,20.29,19.43Z" fill="#212121"/><path d="M21.76,22.39a9.08,9.08,0,0,1-1.28-.1,3.17,3.17,0,0,1-.75-.12c-.15-.06-.15-.06-.33,0a2.82,2.82,0,0,0,.55.11l.47.06c.33.06.67.08,1,.11h.33Z" fill="#212121"/><path d="M21.76,22.39a5.34,5.34,0,0,1-1.2,0,3.1,3.1,0,0,1-.6-.05l-.3-.08c-.09,0-.1,0-.22,0l0-.19a4.8,4.8,0,0,0,.53.12h0c.5.08,1,.14,1.47.23h0l.33,0h0Zm0,0v.08h0l-.33,0h0a12.15,12.15,0,0,1-1.49-.11h0a2.6,2.6,0,0,1-.56-.12L19,22.23l.34-.14.16-.05a.4.4,0,0,1,.2,0,1.38,1.38,0,0,0,.27.08c.19,0,.38.05.58.08C21,22.27,21.36,22.38,21.76,22.39Z" fill="#212121"/><path d="M21.76,21.37a2.34,2.34,0,0,1-.37-.83c-.13.25.05.4.08.58l.29.46Z" fill="#212121"/><path d="M21.76,21.37a1.56,1.56,0,0,1-.46-.82l.17,0c-.08.16,0,.27.08.52v0c.09.16.17.32.25.49l-.07,0Zm0,0,0,.21,0,.12-.08-.1c-.12-.14-.23-.29-.34-.44h0v0c0-.07-.07-.16-.11-.27a.41.41,0,0,1,0-.36l.13-.26,0,.28A4,4,0,0,0,21.76,21.37Z" fill="#212121"/><path d="M21.76,23.57v-.08l-.33,0c-.13.09-.29,0-.43.12h0c-.07.06-.18,0-.24.09h0a5.35,5.35,0,0,0-1.2.18l-.06,0h-.06l-.27,0a7.14,7.14,0,0,1-1.13.15l.05.09A8.13,8.13,0,0,0,19.65,24a6.21,6.21,0,0,0,1.14-.22l.42-.09h0A2.08,2.08,0,0,0,21.76,23.57Z" fill="#212121"/><path d="M21.76,23.57v-.08h0l-.32.06h0c-.13.1-.31.07-.42.14v-.07h0l0,.08,0,0c-.11.09-.22,0-.23.09v0h0a6,6,0,0,0-1.18.22h0l-.1,0h0a5.31,5.31,0,0,0-.68.1,3.38,3.38,0,0,1-.72.08l.09-.14.05.08-.09-.05a8.1,8.1,0,0,0,1.54-.19h0l1.14-.18h0l.42-.07v.05h0l0,0h0Zm0,0-.55.15,0,0h0l.1,0-.12,0-.41.11h0l-1.15.25h0a8.36,8.36,0,0,1-1.58.23H18l0-.06L18,24.17,17.87,24h.18c.44,0,.9-.15,1.38-.16h0l.13,0h0a5.43,5.43,0,0,1,1.22-.15l-.05,0c.1-.12.23-.05.26-.09l.07-.11,0,.1,0,.07h0l-.09,0,.1-.05c.16-.07.32,0,.44-.09h0l.33,0h0Z" fill="#212121"/><path d="M21.76,24.33v-.08c-.1-.07-.19,0-.27,0a3.18,3.18,0,0,1-1.27.35l-1.64.17c-.08,0-.18,0-.2.11v0l0,0c0-.1-.12-.09-.19-.09h-.5c0-.17,0-.33,0-.49s0-.15-.08-.16-.07.07-.09.13,0,.16-.07.24a1.69,1.69,0,0,0-.13,1c0,.1,0,.12-.12.12-.26,0-.51.06-.76,0-.54,0-.48,0-.52-.46v0c.11,0,.13,0,.24-.19l0,0a1.54,1.54,0,0,0-.51-.76l-.09-.14a1.21,1.21,0,0,0-.15-.22c-.15-.17-.25-.39-.48-.48a0,0,0,0,1,0,0,.88.88,0,0,0-.24-.23.47.47,0,0,1,0-.33c0-.36,0-.72.06-1.08s0-.86,0-1.29c0-.06.08-.05.12-.06h0c.07,0,.12,0,.1-.1a3.13,3.13,0,0,0-.2-.68c0-.11-.07-.22,0-.29a.34.34,0,0,1,.33-.07.19.19,0,0,1,.15.21,1.27,1.27,0,0,0,.12.39s.09,0,.07-.08a.69.69,0,0,1-.05-.4s0-.08,0-.12.08,0,.11,0,.17,0,.2-.1a.08.08,0,0,0,0-.09h0v.09c.21.19.17.48.27.71,0,.05,0,.17.09.14s.09-.09.06-.19a1.84,1.84,0,0,1-.17-.77c-.06-.11-.18,0-.25-.09h0v0a1.6,1.6,0,0,0-1.18-.05s0,0,0,0h0v0c-.25,0-.51,0-.69-.23l-.2-.21s0-.09,0-.09.19,0,.14-.17.15-.3-.06-.45a.28.28,0,0,0-.21,0c-.11,0-.13-.08-.14-.18l-.19.2s0,0,0-.08c-.05-.25-.11-.49-.16-.73l-.15-.78s0-.1,0-.14a.11.11,0,0,1,0-.12,4.53,4.53,0,0,0,.12-.91.27.27,0,0,1,.17-.24q-.23-.18,0-.39h0a.29.29,0,0,1,.33-.15c.45,0,.67-.27.86-.61a1.8,1.8,0,0,0,.3-.37.2.2,0,0,0,0-.21.16.16,0,0,0-.2-.08c-.15,0-.3,0-.46,0a1,1,0,0,0-.48.08c-.2.13-.3.35-.47.5h0c-.12,0-.24.2-.37.06v0a2.58,2.58,0,0,1,.53-1.18v-.08c.07-.08.16-.15.13-.28h0c.13,0,.18-.13.26-.21a.25.25,0,0,0,.16-.23h0a7.59,7.59,0,0,0,1-.51,7,7,0,0,0,.75-.5.79.79,0,0,0,.37-1.06A4.72,4.72,0,0,1,15.67,9a2,2,0,0,0-.17-.73,2.84,2.84,0,0,1-.08-.77,5.28,5.28,0,0,0,0-.55.79.79,0,0,0-.13-.49,37.59,37.59,0,0,1,0,4.11l-.42-.1c0,.09.13.11.09.2s-.18-.1-.29,0a1.83,1.83,0,0,0-.55.3,3.05,3.05,0,0,0-.73.5l-.28.18h0c-.18-.05-.19,0-.17.18a6.51,6.51,0,0,1-.51.54c-.18,0-.14.14-.12.25a.87.87,0,0,0-.27.64v0a.65.65,0,0,1-.08.28.38.38,0,0,0-.22.29h0a.37.37,0,0,1-.13-.17,4.5,4.5,0,0,1-.2-.51h0a2.9,2.9,0,0,1-.09-.72.53.53,0,0,0-.16-.46h0c0-.17-.18-.25-.26-.38s-.15-.21-.29-.22h0l-.18-.08-.13-.08-.21-.12c-.09,0,.12.15-.05.08a.83.83,0,0,1-.16-.09H9.81a.2.2,0,0,0-.1-.08c-.12,0-.18-.13-.3-.14a1.28,1.28,0,0,1-.7-.26c-.06,0-.14-.13-.21-.11s-.12,0-.13-.1c0-.26,0-.52,0-.78a6.72,6.72,0,0,1,.1-1.1,5.91,5.91,0,0,1,.26-1.25,5.06,5.06,0,0,0,.23-.87.28.28,0,0,0-.13.16,14.6,14.6,0,0,0-.67,2.16,2.71,2.71,0,0,0,0,1.69c0,.13,0,.29.21.34a.23.23,0,0,0,.14.16l.45.19,0,.07c.06,0,.11,0,.17,0H9l.54.19h0l0,0h0c.11.1.27.08.39.17a.11.11,0,0,1,.13,0l.21,0c.1,0,.13.1.17.18a2.74,2.74,0,0,1,.21.63c0,.09,0,.18,0,.25a8.16,8.16,0,0,1,.09,1.1l0,.08a.13.13,0,0,1-.12.05l-.07,0h0c0-.09-.09-.12-.19-.11l-.37-.27h0c-.05-.06-.1-.13-.16-.19S9.74,13,9.5,13h0L9,13a.25.25,0,0,0-.28.33,1.32,1.32,0,0,0,.23.42l0,0c0,.05-.06.11,0,.12s.18.13.3.14l0,0c0,.1.07.12.16.11a1,1,0,0,1,.61.21,1.08,1.08,0,0,0,.38.17.35.35,0,0,0,.26-.16c.07-.09.05-.16-.05-.2l0,0h0c.19,0,.28-.13.41-.23a.22.22,0,0,1,.11-.05c.06,0,.15,0,.1.1h0a.77.77,0,0,0-.32.3,1,1,0,0,0,.33-.29c.07-.05.21,0,.16-.18.12,0,.19.1.3.1s0,.12.09,0,0-.11.13-.08a4.67,4.67,0,0,1,.5.14h0c.06.09.21.11.21.25a.91.91,0,0,0,.1.29c.09.11.05.18,0,.26s-.2.16-.29.26a.28.28,0,0,0,0,.39c0,.06,0,.12-.07.12s-.09-.06-.09-.12-.07-.07-.13-.06.08.28.07.43,0,.48,0,.71c0,.08.05.17-.07.24s0,.14,0,.22a.79.79,0,0,0-.43,0,.33.33,0,0,1-.33-.32.65.65,0,0,0-.21-.53H11.1c0,.32.12.61.1.93.06,0,0-.14.08-.09s.34.12.45.27-.08.12-.17.12-.16,0-.22.07a1.19,1.19,0,0,0,.7,0h0v.14h0c0,.08-.1.13-.06.23l.14-.07c.06-.08.22-.09.19-.2s.06-.31.11-.46.13-.21.1-.37c-.14.19-.17.41-.31.56l0,0h0a.29.29,0,0,0,0-.09,4.16,4.16,0,0,1,.18-.67.87.87,0,0,0,.1-.42,1.1,1.1,0,0,0,0-.57c.08,0,.17-.16.25,0a.5.5,0,0,0,0,.12.76.76,0,0,0,0,.21,3,3,0,0,1-.07.43s0,0,0,.06,0,.09,0,.12h.08a.61.61,0,0,1,0,.12,9.15,9.15,0,0,0,.29,1.36c0,.1.08.16.09.25a3,3,0,0,0,.24.59c0,.07.11,0,.17,0h0l.17.17h0c-.07,0-.09.12-.12.19s0,.08.09.06l.21.42a.45.45,0,0,0,.08.22h0a2.54,2.54,0,0,0,.17.46c-.05.1,0,.19,0,.29s-.11,0-.11.06a.08.08,0,0,0,.11.07c.13-.08.2,0,.3.09a.44.44,0,0,0-.29.16l.2.07c-.12.2.11,0,.09.08s.14,0,.16.11h0a10,10,0,0,1-.08,1.9h0c-.06.12,0,.29-.2.34,0,0,0,0,0,0a0,0,0,0,0,0,0,1.5,1.5,0,0,0,0-.42h0a1.7,1.7,0,0,0,0-.22c0-.05,0-.11-.07-.1s-.14,0-.14.11a1.26,1.26,0,0,0,0,.51h0c0,.05,0,.11.08.12s.08,0,0,0c-.22,0,.05.19-.07.22s0,0,0,0l-.11.08c0-.11-.11-.19-.11-.32-.09.13.11.29,0,.41v0h0s0,0,0,0-.24-.11-.28-.27,0-.09,0-.09-.06.06-.07.11h0l-.09-.17h0a.14.14,0,0,0,0-.22.93.93,0,0,1-.09-.46.35.35,0,0,0,0-.08.13.13,0,0,1,0-.08c0-.13.05-.28-.15-.31,0,.08.08.15,0,.25l-.3-.38c0-.09,0-.14-.14-.17s-.14-.26-.29-.33h0s0,0,0,0a.12.12,0,0,0,0-.16s0,0-.05,0-.23,0-.21-.19c-.08,0,0,.11-.09.14h0a.09.09,0,0,0-.11,0h0s0,0-.06,0v0a1.43,1.43,0,0,0-.08-.22,7.42,7.42,0,0,1-.52-1.72c0-.12,0-.28-.15-.35a.05.05,0,0,0-.05,0,.44.44,0,0,0,0,.23,4.72,4.72,0,0,0,.41,1.42,7.21,7.21,0,0,1-.42-1.21c-.05-.13,0-.29-.16-.39h0s0,0,0,0A8.91,8.91,0,0,0,10.75,18s0,0,0,0h0a1.86,1.86,0,0,0,0-.34.53.53,0,0,0,0-.12l0,0a4.1,4.1,0,0,0-.05-1.06,1.6,1.6,0,0,0,.11.25c0,.06.11.17.2.1s0-.14,0-.2a3.37,3.37,0,0,1-.32-.87c-.05-.08,0-.16-.05-.25a.92.92,0,0,1,0-.29c.11,0,.25.07.3,0s-.07-.21-.15-.29l0,0c-.11,0-.14-.15-.25-.17v.09c-.14,0-.19,0-.18.16s.23.09.13.25h0c0,.1-.05.21.06.3a4.91,4.91,0,0,1,.06.66,13.2,13.2,0,0,1,.11,1.4s0,.1-.05.13-.06.12,0,.18.1.45.14.67,0,0-.07,0-.09.09-.12.15,0,.08.07.06c.23-.12.15.06.16.16s0,.11.05.15,0,.14,0,.21h0c0,.07,0,.11-.06.2s.2,0,.21.08a2,2,0,0,0,.2.66,6,6,0,0,0,.71,1.47c0,.06.05.14.12.18a4.17,4.17,0,0,1,.26.46h0c0,.07,0,.15,0,.21l0,.08a11,11,0,0,1,.49,1.19c.08.36.17.72.25,1.08,0,.05,0,.1.08.1V24.8l.08-.08h.08a2.38,2.38,0,0,0,.68.51h0l.34.26h.05s0,0-.05,0c0,.22-.17.08-.24.17s.15.11.11.17h-.67c-.12,0-.18-.05-.18-.17a1.83,1.83,0,0,0-.05-.4c0-.09,0-.2-.16-.22a5.66,5.66,0,0,0,.07.72.22.22,0,0,1,0,.1.8.8,0,0,0,.13.13h4.3l0,0v-.22c-.08-.05-.08-.18-.08-.44h0c.12.1.23.12.33,0l.06-.06H18a7.7,7.7,0,0,0,.83-.05.18.18,0,0,0,.18-.08s0,0,0,0v0a13.57,13.57,0,0,0,1.42-.24,9.85,9.85,0,0,1,1.32-.23v-.3ZM9.46,13.15v0a.58.58,0,0,0,.24.14l-.16,0-.22-.05h.05Zm.57,1c-.16-.06-.3-.2-.47-.2a.83.83,0,0,1-.36-.07h0c.06-.11,0-.18-.06-.27s0-.33.1-.39l0,0a.09.09,0,0,0,.06.1.53.53,0,0,0,.17.08c.27.08.56.15.54.53l0,0a.07.07,0,0,0,.07,0s0,0,.06-.07,0-.09,0-.14a1,1,0,0,0,.08.11l0,0a.41.41,0,0,0,0,.11v0C10.19,14.22,10.11,14.17,10,14.14Zm1.12-1.83Zm-1.6-1a0,0,0,0,1,0,0A0,0,0,0,0,9.55,11.33Zm3.45,3h0Zm.45-1.05h0a1.5,1.5,0,0,0,.47,0,.19.19,0,0,0-.1,0c-.06,0-.16,0-.15.08s.1.06.16.06h.09c.24,0,.24,0,.22.22a.1.1,0,0,0-.06.05c-.11.17-.23.33-.45.34,0,0-.07,0-.1.07a.28.28,0,0,1-.41,0h0a.89.89,0,0,0-.07-.36h0A.65.65,0,0,0,13.45,13.29Zm-.39-1Zm-.6,1.53Zm1.92,6.36a0,0,0,0,0,0,0h0Zm.24-.06h0v0h0Zm-1.57,3.75,0,0h0l0,0h0Zm-.45-1.4Zm-.14.06h0ZM13,23.78Zm1.89,1.31c-.11-.16-.33-.13-.46-.25l-.13-.11a.25.25,0,0,1,.05-.25c-.11,0-.07.12-.15.13s-.16-.19-.23-.29,0-.19.05-.28.28-.14.4-.25a.26.26,0,0,0,.07.15,7.75,7.75,0,0,1,.81.91s.09.06.08.13a.35.35,0,0,1-.23,0C15,24.91,14.9,25,14.86,25.09Zm.72.74h-.95a.18.18,0,0,1,.14-.17c.09,0,.27-.18.11-.36s0-.08,0-.1l0,0c.25.13.51,0,.77.05v0a2.19,2.19,0,0,0,0,.36C15.75,25.79,15.7,25.83,15.58,25.83Z" fill="#212121"/><path d="M21.76,24.33v-.08h0c-.14-.09-.27.06-.4.1a2.05,2.05,0,0,1-.41.16,5.28,5.28,0,0,1-.87.15l-.88.09-.43.05-.22,0c-.07,0-.16,0-.16.1h0v0h0l0,0h0c0-.13-.21-.07-.32-.09h-.37c0-.18,0-.37,0-.55s0-.09-.08-.09-.05,0-.07.09,0,.19-.07.27h0a2,2,0,0,0-.17.71,2.46,2.46,0,0,0,0,.37c0,.08-.09.1-.14.09l-.18,0c-.25,0-.49,0-.74,0s-.29,0-.33-.13,0-.24,0-.36v0h0c.13,0,.17-.12.26-.2h0a1.6,1.6,0,0,0-.51-.75h0l-.09-.15h0c-.08-.12-.19-.25-.28-.37a.78.78,0,0,0-.34-.31h0l-.24-.23h0a.47.47,0,0,1,0-.33l0-.34,0-.68c.05-.45,0-.9,0-1.35h0c0-.06.1-.06.14-.06h0c.12,0,.08-.1.07-.19a2.58,2.58,0,0,0-.08-.26c0-.18-.17-.34-.14-.55a.33.33,0,0,1,.51-.08c.08.09,0,.2.07.28s.07.17.1.26l0,0c.13,0,0-.09,0-.19a1.34,1.34,0,0,1,0-.28.1.1,0,0,1,.06-.14c.07,0,.1.05.14.07s.11,0,.12-.12h0s0,0,0-.05l0,0h.08v.09a.75.75,0,0,1,.21.46A1.4,1.4,0,0,0,16,20c0,.1,0,.19.09.14s0-.29-.07-.43a1.1,1.1,0,0,1-.08-.51v0c0-.08-.15,0-.25-.08v0s0-.05,0,0l0,0h0a1.65,1.65,0,0,0-1.16,0l0,0h0l0,0h-.08l0,0h0s0,0,0,0h0l0,0A1.41,1.41,0,0,1,14,19c-.17-.08-.26-.25-.38-.36v0l0-.08c.07-.05.07,0,.1,0s.07,0,.06-.08,0-.25,0-.34a.2.2,0,0,0-.2-.17.31.31,0,0,1-.18,0,.2.2,0,0,1-.07-.17l.05,0-.18.2,0,0v0c-.12-.15-.09-.27-.14-.41l-.09-.4-.15-.8h0l0-.14,0,0c-.08,0-.06-.16,0-.2a.75.75,0,0,0,0-.16c0-.11,0-.22,0-.33a2.07,2.07,0,0,1,0-.35.33.33,0,0,1,.2-.3v.07a.32.32,0,0,1-.13-.23.38.38,0,0,1,.13-.22l.06,0H13a.31.31,0,0,1,.35-.18.7.7,0,0,0,.35-.06,1.11,1.11,0,0,0,.48-.52v0l.2-.24c.06-.09.15-.16.11-.25a.14.14,0,0,0-.21-.1,1.83,1.83,0,0,1-.33,0c-.21,0-.45,0-.6.11a5.23,5.23,0,0,0-.44.48h0l-.18.1a.19.19,0,0,1-.23-.05v0a2.83,2.83,0,0,1,.54-1.23v-.06h0c.08-.09.15-.16.13-.25l0,0h0v-.09c.09,0,.14-.11.23-.2h0a.24.24,0,0,0,.14-.19v-.07l.06,0h0a7.84,7.84,0,0,0,1-.53,8.09,8.09,0,0,0,1-.67.57.57,0,0,0,.19-.49c0-.19-.09-.37-.12-.57-.13-.37-.11-.8-.26-1.13h0c0-.45-.1-.89-.12-1.32h0a.81.81,0,0,0-.12-.46l.1,0a40.42,40.42,0,0,1,0,4.12v.07l-.07,0-.41-.1.07-.06,0,.05a.15.15,0,0,1,0,.18l0,0-.05,0c-.08,0-.14-.07-.19-.06a2.05,2.05,0,0,0-.2.08,1.13,1.13,0,0,0-.39.22h0a3.31,3.31,0,0,0-.72.5h0l-.28.17-.24.16.15-.24h0l0,.09c-.11,0-.09,0-.09.11v0l0,0a6.67,6.67,0,0,1-.52.55h0c-.11,0-.08,0-.07.19v0l0,0a.81.81,0,0,0-.24.59v0a.66.66,0,0,1-.1.3h0a.31.31,0,0,0-.19.23h0l0,.09-.07,0a.61.61,0,0,1-.22-.35l-.14-.37v0h0a2.89,2.89,0,0,1-.09-.74h0a.5.5,0,0,0-.13-.41l0-.12-.07.08c0-.12-.15-.2-.25-.36v0c-.1-.11-.16-.2-.25-.2l-.06-.07,0,.06-.18-.07h0l-.13-.08h0l-.15-.08s-.07,0,0,0,.06,0,.06-.07h0l0,0s0,0,0,.09-.08,0-.1,0l-.05,0-.08,0s-.11-.06-.12,0l-.08.06v-.11l-.07,0h0c-.19,0-.24-.15-.32-.13A1.45,1.45,0,0,1,9,10.87a1.74,1.74,0,0,1-.33-.18l-.13-.1c-.06,0,0,0-.14,0a.16.16,0,0,1-.13-.12.38.38,0,0,1,0-.1V10.2l0-.35a2.48,2.48,0,0,1,0-.72,13.81,13.81,0,0,1,.22-1.39l.18-.69a2.67,2.67,0,0,0,.17-.66L9,6.47c-.09,0-.13.26-.2.41l-.18.49c-.11.33-.21.66-.29,1a3.24,3.24,0,0,0-.09,2h0c0,.17.05.27.15.28h.05v.06c0,.08.09.1.21.15l.33.14.09,0,0,.09,0,.07-.08-.13.12,0,.14.07-.06-.08.54.18.06.09,0-.08,0,0h0c.07.07.23,0,.38.16H10a.21.21,0,0,1,.21.07l-.06,0,.22,0h0c.18,0,.23.2.26.27l.11.28a1.11,1.11,0,0,1,.08.3c0,.13,0,.23,0,.24h0v0L11,13.8v0l0,.08,0,.06L11,14a.24.24,0,0,1-.19.06h0l-.07,0-.14-.07.09-.06h0v.06c0-.05,0-.05-.08,0h0l0,0-.37-.27.05,0-.07,0-.27-.31a.26.26,0,0,0-.28-.11L9.6,13l-.12.09-.37-.06c-.14,0-.21,0-.26,0s0,.34.19.56l0,.06L9,13.78l0,0,0,0s0,.1,0,0,.07,0,.09,0,.12.08.16.08h0l0,0,0,0h0l0,0s0,0,0,0h.16a.86.86,0,0,1,.35.09,1.91,1.91,0,0,0,.55.28h0a.27.27,0,0,0,.18-.1s0-.06,0-.06,0,0,0,0l-.15-.06.12-.11,0,0,0,.07.11-.09c.1,0,.16-.05.27-.15a.38.38,0,0,1,.23-.14.21.21,0,0,1,.16,0,.17.17,0,0,1,0,.21l0-.1,0,.16c-.11,0-.19.14-.28.26l-.13-.14a1.1,1.1,0,0,0,.3-.26v0h0c.08,0,.13,0,.14-.06s0,0,0,0V13.7h.09c.19,0,.27.12.31.1l.06,0,0,.1v0s0,0,0,0a.11.11,0,0,0-.1,0s0,0,0-.06.16-.13.2-.09l.1,0a1.62,1.62,0,0,1,.44.12l-.11,0h0l.07-.16.08.17s.05,0,.11.08a.3.3,0,0,1,.12.22v0a.73.73,0,0,0,.12.3.26.26,0,0,1,0,.27.8.8,0,0,1-.13.13,2.89,2.89,0,0,0-.25.24.2.2,0,0,0,0,.23l0,0v0a.22.22,0,0,1-.09.19.17.17,0,0,1-.23-.09.19.19,0,0,1,0-.11c.07.05,0,0,0,0l.07-.07c0,.09.06.2.07.39s0,.27,0,.41,0,.32,0,.4a.19.19,0,0,1,0,.16s-.11.1-.07.06,0,.07,0,.13l.13.28L12.07,17c-.07-.05-.18,0-.32,0a.42.42,0,0,1-.41-.19,1.13,1.13,0,0,1-.09-.4.4.4,0,0,0-.15-.27l.05,0H11.1l.09-.08c0,.28.11.58.09.92l-.1-.09s0,0,0,0a.08.08,0,0,1,0,0s.09-.07.12-.05.05,0,.06,0l.13.07a.72.72,0,0,1,.32.19v.06a.21.21,0,0,1-.1.18.33.33,0,0,1-.16,0c-.13,0-.12,0-.15,0l0-.12a1.11,1.11,0,0,0,.65,0l.1,0v.2h0v.05L12,17.47h0l.12.12h0l0-.07a.23.23,0,0,1,0,.16s0,0,0,.05l-.11,0,.15-.07,0,0a1.46,1.46,0,0,1,.18-.13.5.5,0,0,1,0-.34c.07-.17.2-.37.17-.5l.15,0a6.25,6.25,0,0,1-.33.58l0,.06-.06-.06,0-.05,0,0v0h0a0,0,0,0,1,0,0v0l.15-.56c0-.19.16-.36.13-.52h0v0a1,1,0,0,0,0-.52l0-.06,0,0a.46.46,0,0,1,.16-.08.14.14,0,0,1,.14,0,.47.47,0,0,1,.06.09v0l0,.12h0l0,.19h0l-.06.44h0s0,.09,0,.09l0,0h.13l0,0a1.66,1.66,0,0,1,.11.39l.07.36.16.74v0h0s.07.1.09.23a2.41,2.41,0,0,0,.08.25l.12.24c.07.12,0,.09.11.06l.05,0,0,0,.17.17.07.07-.08,0a.22.22,0,0,0-.08.13s0,.08,0,0,0,0,0,0l0-.06.05.1.21.42v0l.07.18h0v0a2.85,2.85,0,0,0,.17.45l0,0,0,0s0,.12,0,.27v.06h-.13s0,0,0,0,0,0,0,0a.24.24,0,0,1,.22,0l.13.11.11.08-.14,0a.34.34,0,0,0-.25.13l0-.1.2.07.08,0,0,.07,0,0h0c0-.06-.08,0-.06,0l.05,0h.05s.11.08.08.1L14.46,21a.17.17,0,0,1,.18,0,.31.31,0,0,1,.08.13l-.13,0h.13a10.19,10.19,0,0,1-.09,1.91h0v0h0c0,.05,0,.12-.06.19a.27.27,0,0,1-.18.18h0s0-.05,0,0l-.07.09h0l-.09-.06a1.56,1.56,0,0,0,0-.39l.06,0-.07,0,0-.26c.07,0-.11,0-.08,0v.26a.59.59,0,0,0,0,.23l-.09,0h0l0,0,.06,0h0l.06,0-.07.06h0l0-.05c0,.06,0,.07,0,.07l.09,0s0,0,0,0,0,.11,0,.1,0,0-.05,0,0,0,0,0l0,.07s0,.14-.08.13l0-.08h0l0,.11-.12.08-.07,0,0-.07a1.13,1.13,0,0,1-.11-.34l.11,0s0,.08,0,.15a.23.23,0,0,1-.06.26l0,0v0h-.12c0-.07,0-.05,0,0l0,0a.54.54,0,0,1-.29-.23s0-.21,0-.12,0,0,0,.06v0h-.11l0,0-.09-.17,0-.05,0,0c.1-.05.05-.11,0-.25a1,1,0,0,1,0-.39v0l-.05-.07v0h0l0-.11v0c0-.15,0-.24-.1-.25l.06,0s.09.17,0,.27l0,.05,0-.05-.3-.37v0h0c0-.06,0-.09,0-.11s-.11,0-.16-.09-.11-.23-.19-.26l-.11-.05h.19l-.09,0,.09,0v0h0l0,0h0l0-.1h0s-.06,0-.05.05v0c0-.05,0-.07,0-.1h0s0,0,0,0h0v0s0,0-.1,0-.14-.12-.11-.18l.07.06s0,0,0,0a.2.2,0,0,1-.07.11h0l0,0h0s0,0-.05,0l0,0h0l0,0-.06,0s0,0,0,0h-.07v-.06h0c-.11-.3-.27-.62-.36-1a8.36,8.36,0,0,1-.23-1h0c0-.15,0-.29-.13-.33h0c-.06.1,0,.26,0,.4a3,3,0,0,0,.09.41,4.2,4.2,0,0,0,.28.8l-.09,0L11.18,20,11,19.6c0-.14,0-.29-.14-.36h0l-.16.05.12-.12a1,1,0,0,0,0-.27l-.05-.31,0-.31c0-.09,0-.25-.06-.27h0l-.05,0V18l0-.33h0l0-.11v0h.05v0a3.76,3.76,0,0,0-.05-1.05h.08l.11.24h0s.08.1.11.1.07,0,.05-.06a2.11,2.11,0,0,1-.16-.3,3.41,3.41,0,0,1-.23-.68h0a.92.92,0,0,1,0-.25h0a1.16,1.16,0,0,1,0-.31v0h.05c.13,0,.27.06.28,0s-.12-.18-.2-.27h0c-.13,0-.16-.17-.25-.17l0,0v.14l-.05,0c-.1,0-.14,0-.13.13l0,0a.33.33,0,0,1,.17.1.18.18,0,0,1,0,.2v-.05h0v0c0,.12,0,.22,0,.27h0c.08.35,0,.69.1,1a5.88,5.88,0,0,1,.07,1h0a.13.13,0,0,1-.05.13s-.07.05-.07.06.1.12.13.2a1.46,1.46,0,0,1,.06.5s.07.08-.05.15,0,0-.08,0a.46.46,0,0,0,0,.1s0,0,0,0a.31.31,0,0,1,.15,0c.07.05,0,.11.05.15s0,.18,0,.21h0c.06.08,0,.17,0,.22h0v0c0,.1-.05.15-.06.21l0,0a.24.24,0,0,1,.2,0c.06.06,0,.14,0,.19a1.7,1.7,0,0,0,.1.32c.1.22.16.45.25.66s.19.43.3.64.24.41.36.58h0a3.42,3.42,0,0,1,.26.46h0v0c0,.08,0,.15,0,.2h0c.13.41.38.78.49,1.21l.16.64c.06.19.07.48.17.58l0,0V24.8h0l.09-.08h.11a2.35,2.35,0,0,0,.67.5h0v0l.34.26h0v0h0v0c0,.06,0,.16-.09.16s-.13,0-.16,0v0c0,.05.15.1.11.2h-.5c-.12,0-.3.05-.37-.1l0-.39c0-.12,0-.29-.16-.3h0a1.08,1.08,0,0,0,0,.4,1.18,1.18,0,0,1,0,.42v0l.12.13h4.3l0,0h0a1.61,1.61,0,0,0,0-.22h0c-.11-.13-.07-.3-.08-.45h0v0h0a.29.29,0,0,0,.2.09c.07,0,.12-.07.17-.12h0a2.72,2.72,0,0,0,.57,0l.29,0c.09,0,.2,0,.25-.08h0s0,0,0,0h0a9.33,9.33,0,0,0,1.37-.23,12.63,12.63,0,0,1,1.37-.23h0A1.5,1.5,0,0,1,21.76,24.33Zm0,0a1.5,1.5,0,0,0,0,.3h0a10.92,10.92,0,0,0-1.37.24A13.05,13.05,0,0,1,19,25.1h0s0,0,0,0h0c-.06.1-.18.09-.26.09l-.29,0a2.72,2.72,0,0,1-.57,0h0c-.05.05-.1.12-.18.12a.29.29,0,0,1-.21-.09h0v0h0c0,.15,0,.33.08.44h0a.81.81,0,0,1,0,.22h0l0,0H13.26l-.13-.13h0c0-.26-.08-.54-.05-.82h0c.16,0,.16.21.18.32l0,.39c0,.12.22.07.34.08h.47c0-.06-.05-.11-.1-.16h0v0c.06-.05.13,0,.18,0s.07-.05.06-.11h0s.05,0,.06,0l0,0h0l-.34-.26h0v0h0v0a2.39,2.39,0,0,1-.68-.5h-.06l-.08.08h0V25h0c-.08,0-.09-.1-.1-.13l0-.16-.08-.32-.15-.64c-.11-.42-.36-.79-.5-1.21h0c-.07-.07,0-.17-.05-.23v0h0a3.07,3.07,0,0,0-.27-.46h0a5.48,5.48,0,0,1-.38-.6c-.11-.21-.21-.42-.3-.64S11.1,20.18,11,20a1.4,1.4,0,0,1-.1-.35c0-.14-.06-.19-.18-.14l-.05,0v-.06c0-.07.08-.13.07-.18h0c0-.08,0-.16,0-.2h0c-.15-.16,0-.45-.17-.32a.08.08,0,0,1-.12-.09.23.23,0,0,1,.06-.12c0-.05.11-.06.14,0s0-.05,0-.08a1.24,1.24,0,0,0-.06-.48c0-.08-.11-.11-.13-.23s.08-.09.1-.11,0,0,0-.09h0a7.26,7.26,0,0,0-.08-1c-.06-.34,0-.7-.1-1h0c-.11-.08-.06-.24-.06-.32l0,0h0l0,0,0,0c.08-.1,0-.16-.11-.19h0v0a.23.23,0,0,1,0-.17.2.2,0,0,1,.18,0l0,0V14.6h0c.14,0,.18.16.26.17h0c.07.1.2.15.21.32a.16.16,0,0,1-.17.14l-.18,0,0-.05a2.16,2.16,0,0,0,0,.29h0c0,.1,0,.18,0,.24h0a3,3,0,0,0,.23.66,2.48,2.48,0,0,0,.17.32.13.13,0,0,1-.15.16c-.09,0-.11-.09-.15-.13h0l-.12-.25.08,0a3.79,3.79,0,0,1,.05,1.07h0l0,0,0,0,0,.13h0l0,.35-.06,0h.05c.1.13.06.22.09.33l.05.32,0,.31c0,.12.07.18,0,.34l0-.07H11c.15.1.14.29.18.41l.14.4.28.8-.09,0a5.57,5.57,0,0,1-.29-.81l-.09-.43a.86.86,0,0,1,0-.45h0a.12.12,0,0,1,.09-.05h0a.27.27,0,0,1,.14.19.84.84,0,0,0,0,.19h0c.07.33.14.66.24,1s.24.62.36.95h0v0l-.07,0s.11,0,.12,0h0a.13.13,0,0,1,.15,0h0l-.07,0,0,0s0-.1.09-.1h.07v.07s0,0,0,.05.12,0,.17.1l0,0s0,0,.06,0h0a.17.17,0,0,1,0,.23v0s0,.09-.06.07h0l0-.09s0,0,0,0l-.05,0v0l.09,0-.09,0h.11l0-.05c.14.08.15.22.22.29s.06,0,.14.07a.21.21,0,0,1,.09.19v0l.3.37h-.09s0-.08,0-.23v0h.07a.2.2,0,0,1,.19.15.74.74,0,0,1,0,.21v0a.14.14,0,0,1,0,.06v0l.06.08h0v0a.78.78,0,0,0,.05.34c0,.06,0,.1.07.18a.21.21,0,0,1-.11.21l0-.08.09.17,0,0h0l-.06,0s0-.06,0-.1a.11.11,0,0,1,.14-.05.11.11,0,0,1,0,.13.17.17,0,0,0,0,.05c0,.08.13.13.23.17h0c0,.06,0,.11,0,.06h-.12v-.05l0,0s0-.06,0-.13a.29.29,0,0,1,0-.26L14,23.3l0,.21a1,1,0,0,0,.11.29l-.09,0,.11-.08,0,.11s-.12,0-.12-.06v0l0,0v0l0-.06a.11.11,0,0,1,.09-.18s0,0,0,0,0,.07,0,.07h0l-.05,0c-.09,0-.09-.14-.09-.17v0l0,0h0v.09h.08l-.06.06,0-.08a.71.71,0,0,1,0-.29v-.28c0-.09.11-.11.15-.12a.22.22,0,0,1,.1,0,.12.12,0,0,1,.08.1l0,.27L14.28,23l.05,0a1.35,1.35,0,0,1,.05.44l-.09-.06h.09l-.08.08s0-.09,0-.11h0c.11,0,.1-.14.16-.31v0h0a10.83,10.83,0,0,0,.08-1.89h.13l-.13,0c0-.08,0-.08-.08-.07L14.42,21s0,.08.06.07h0l-.06,0a.09.09,0,0,1-.11-.06c0-.06,0-.05,0-.07l0-.06,0,.1-.2-.08-.08,0,0-.08a.54.54,0,0,1,.33-.19l0,.12c-.09-.08-.14-.13-.2-.09s-.22,0-.23-.09a.14.14,0,0,1,.08-.14.19.19,0,0,1,.1,0l-.06.06c0-.05-.1-.17,0-.32v.07a2.2,2.2,0,0,1-.18-.48v0h0l-.09-.25v0l-.22-.42.09,0s-.05.07-.18,0,0-.12,0-.16a.33.33,0,0,1,.14-.19l0,.11-.17-.17.05,0h0a.25.25,0,0,1-.19,0c-.1-.07-.08-.12-.11-.15l-.12-.25a1.31,1.31,0,0,1-.09-.28c0-.06-.1-.13-.09-.28v0l-.16-.75a4.45,4.45,0,0,0-.18-.72l.07.05h-.13a.24.24,0,0,1-.05-.26h0l.06-.43h0l0-.23h0l0-.12v0s0-.05,0,0l-.11.07,0-.09a1.15,1.15,0,0,1,0,.61v0c0,.23-.11.4-.14.58l-.15.54v0a.59.59,0,0,1,0,.13h0v-.07l0,0h-.11c.12-.14.17-.37.3-.56l.11-.14,0,.17a.51.51,0,0,1-.06.33l-.12.27a.31.31,0,0,0,0,.23c0,.11-.07.19-.11.21a.23.23,0,0,0-.09.06h0l-.15.07-.07,0,0-.08a.24.24,0,0,1,0-.19.28.28,0,0,0,0-.07l0-.06h0l.12.12h0l-.12.23,0-.29v-.05h0v-.09l.1.08a1.28,1.28,0,0,1-.75,0l-.09,0,0-.09a.21.21,0,0,1,.15-.12c.07,0,.11,0,.14,0h.08s0,0,0,0l0,0a.71.71,0,0,0-.26-.15.65.65,0,0,1-.16-.09s0,0,0,0,.08,0,.08,0h0a.13.13,0,0,1-.11.13l-.11,0V17c0-.28-.12-.58-.1-.92V16h.18a.56.56,0,0,1,.22.38c0,.14,0,.27.07.34a.25.25,0,0,0,.25.11.68.68,0,0,1,.43.05L12,17a.4.4,0,0,1,0-.26c.12-.14.07-.05.09-.13s0-.27,0-.42,0-.28,0-.41-.1-.23-.07-.43l0-.15,0,.08s.08-.08.21.05,0,.12,0,.13,0,0,0,0,0,0,0,0v.05a.36.36,0,0,1,0-.43,1.6,1.6,0,0,1,.26-.26c.1-.09.17-.16.13-.19a.81.81,0,0,1-.14-.35v0h0c0-.05-.08-.05-.2-.2h.15l0,.07-.08,0A2.91,2.91,0,0,0,12,14l-.11,0s.05,0,0,0a.31.31,0,0,1-.07.12.13.13,0,0,1-.15,0s0,0,0,0a.25.25,0,0,1,0-.07l.09.07c-.18,0-.25-.12-.28-.1l.08-.12a.21.21,0,0,1-.08.24l-.13.05,0,0a1.16,1.16,0,0,1-.35.32l-.13-.14a.83.83,0,0,1,.36-.33l0,.16,0-.1s0,0,0,0,0,0,0,0l-.11.09a.48.48,0,0,1-.43.2l.11-.1,0,.08,0,0,0-.16a.23.23,0,0,1,.16.17.29.29,0,0,1-.08.2.45.45,0,0,1-.3.18h0a2,2,0,0,1-.61-.3.9.9,0,0,0-.28-.08H9.33a.21.21,0,0,1-.18-.2l0,.06,0,0,.08,0A.45.45,0,0,1,9,14s0,0-.13-.06,0-.2,0-.22h0l0,0,0,0v.12a2.37,2.37,0,0,1-.21-.33.43.43,0,0,1,0-.46.44.44,0,0,1,.44-.09l.37.06L9.4,13l.08-.1a.48.48,0,0,1,.46.17l.28.32-.08,0,.06,0,.37.27-.07,0a.24.24,0,0,1,.29.18v.05h0l0-.12.07,0h0l.05,0,0,.11,0-.08h0v0l-.08-1.09,0,.06c-.13-.15-.05-.27-.08-.34a1.34,1.34,0,0,0-.07-.27l-.11-.27c0-.1-.07-.16-.11-.16h0l-.21,0h0l0,0H10l0,0c-.07-.07-.23-.05-.39-.18h0l0,0,0-.07.06.08L9,11.25,9,11.17l.15.07c-.11.08-.22,0-.24,0l-.21.14.14-.27,0-.07,0,.12L8.55,11,8.37,11a.33.33,0,0,1-.14-.19l.07.06a.29.29,0,0,1-.22-.18c0-.08,0-.16-.06-.21H8a1.92,1.92,0,0,1-.12-1.08c0-.36.13-.69.21-1a9,9,0,0,1,.3-1l.18-.5.09-.24a.38.38,0,0,1,.19-.25l.13,0v.13a3,3,0,0,1-.18.69l-.19.68c-.15.43-.11.91-.22,1.37a2.58,2.58,0,0,0,0,.68l0,.36v.17c0,.08,0,.1,0,.08a.25.25,0,0,1,.2,0l.15.11a1.64,1.64,0,0,0,.29.16,1.14,1.14,0,0,0,.32.07c.17,0,.25.16.31.14h0l0,0a.33.33,0,0,1,.13.12L9.8,11a.32.32,0,0,1,.2.05l.07,0h0s0,0,0,0,0,0,0,0l0,0,0,0a.1.1,0,0,1,0,0s.06-.09.07-.08a.2.2,0,0,1,.12,0l.16.08h0l.13.08h0l.18.08,0,.07-.07-.07c.18,0,.27.17.34.23h0c.06.11.23.21.27.4l-.07.09.05-.13a.59.59,0,0,1,.18.52h0a2.54,2.54,0,0,0,.09.7v0h0v0l.14.36c0,.11.09.25.17.29l-.1,0h0a.44.44,0,0,1,.24-.34v0a.54.54,0,0,0,.06-.25v0h0a1,1,0,0,1,.29-.69l0,.06a.56.56,0,0,1,0-.19.21.21,0,0,1,.19-.14h0a5.2,5.2,0,0,0,.51-.53l0,.06a.27.27,0,0,1,0-.21c.08-.09.17,0,.23,0h.08l0,.08h0l-.09-.08.28-.18h0a3.47,3.47,0,0,1,.75-.52h0a1.42,1.42,0,0,1,.43-.24.91.91,0,0,1,.24-.1.73.73,0,0,1,.25.08l-.08,0s0,0,0,0a.18.18,0,0,1-.08-.14v-.08l.07,0,.42.1-.08.06a37.57,37.57,0,0,0,0-4.11V6.3l.11.16a.89.89,0,0,1,.14.52h0c0,.45.07.88.12,1.3h0a10.71,10.71,0,0,1,.27,1.16,5,5,0,0,1,.12.58.71.71,0,0,1-.22.57,8.24,8.24,0,0,1-1,.69,8.59,8.59,0,0,1-1.05.53h-.06l.06,0a.31.31,0,0,1-.19.28h0c-.07.07-.13.2-.28.23v-.09h0l0,0c0,.14-.09.26-.15.32v.07h0a2.8,2.8,0,0,0-.53,1.19v0c.08.11.18,0,.32-.07h0c.15-.13.25-.34.44-.47s.44-.1.65-.13a1.56,1.56,0,0,0,.31,0,.22.22,0,0,1,.3.16c.06.14-.06.24-.12.31l-.21.26h0a1.18,1.18,0,0,1-.52.56c-.24.14-.57,0-.66.19H13l.07,0c-.13.1-.14.24,0,.33l.06,0-.07,0c-.19.08-.15.37-.18.58s0,.23,0,.34-.11.25,0,.29h0v0l0,.14h0l.15.8.09.4a1.87,1.87,0,0,0,.09.36h0l.19-.21.05-.06v.08c0,.13.07.17.2.16a.25.25,0,0,1,.25.24c0,.13-.09.21,0,.32s-.05.16-.11.15-.09,0-.06,0l0,.08v0c.13.12.22.28.37.35a1.64,1.64,0,0,0,.5.09l0,0h0c.06,0,0,0,0,0h0l0,0h0l0,0,0,0v0h0a1.63,1.63,0,0,1,1.21.05l0,0s.06,0,0,0v0c0,.06.18,0,.25.09h0a1,1,0,0,0,.07.48l.08.24c0,.07.08.19,0,.26s-.13,0-.14-.05,0-.08,0-.12a1.82,1.82,0,0,1-.07-.25.77.77,0,0,0-.19-.44h0v-.09l0,0h0l0,0a.11.11,0,0,1,0,.11h0a.27.27,0,0,1,0,.14c0,.07-.12,0-.15,0s-.17-.06-.13,0,0,.19,0,.28a.5.5,0,0,0,0,.13c0,.06,0,.13-.09.12h0a2,2,0,0,1-.1-.26c0-.1,0-.2-.06-.26s-.38-.1-.44.06.09.35.14.52a1.28,1.28,0,0,1,.07.28.59.59,0,0,1,0,.14c0,.07-.08.1-.12.08h0c-.06,0-.1,0-.12.05h0c0,.45.06.9,0,1.36l-.05.67c0,.22-.08.47,0,.66h0l.24.24h0a.83.83,0,0,1,.35.32c.09.13.2.25.29.38h0l.08.15h0a1.63,1.63,0,0,1,.51.76h0c-.08.07-.14.23-.28.22h0a2.2,2.2,0,0,0,0,.36c0,.13.19.1.3.11s.49,0,.73,0,.3,0,.31-.09a1.54,1.54,0,0,1,0-.37,1.89,1.89,0,0,1,.16-.71h0c.05-.07,0-.18.08-.26s0-.1.09-.1a.09.09,0,0,1,.08.1c0,.19,0,.37,0,.55H18c.11,0,.28,0,.33.1h0l.05,0h0v0h0c0-.08.1-.11.17-.11l.22,0,.43,0,.88-.09a5.28,5.28,0,0,0,.87-.15,2.05,2.05,0,0,0,.41-.16c.13,0,.26-.19.4-.1h0Z" fill="#212121"/><path d="M9.46,13.15v0h0a1.38,1.38,0,0,0,.26.06l0,.18a.9.9,0,0,1-.39-.12l-.19-.11h.19Zm0,0-.12.09v-.11a.9.9,0,0,1,.38,0l0,.17a.38.38,0,0,1-.22-.21h0Z" fill="#212121"/><path d="M10,14.14a3.52,3.52,0,0,0-.4-.18,1.18,1.18,0,0,1-.45-.05H9l.09-.08v0c0-.08-.09-.16-.12-.31a.34.34,0,0,1,.16-.42l.11.15c0-.09.11,0,.21.06a1.09,1.09,0,0,1,.38.18.48.48,0,0,1,.14.41s0,.08.05.06,0-.1,0-.17l0,0,0,0,.07.11h0l0,0h0V14h0l0,0h0a.1.1,0,0,1-.07.1A.28.28,0,0,1,10,14.14Zm0,0,.12,0s0-.05.06-.09h0l0,0h0v-.11h0l-.09-.11h0s0,.12,0,.2-.21,0-.21-.1a.31.31,0,0,0-.14-.28,1.08,1.08,0,0,0-.33-.13.84.84,0,0,1-.2-.08.16.16,0,0,1-.11-.08.14.14,0,0,1,0-.2l.11.14c-.08,0-.1.11-.09.22a.53.53,0,0,0,.05.15.26.26,0,0,1,0,.23v0h0l-.06-.08.07,0h0a1.08,1.08,0,0,0,.42.11A2.38,2.38,0,0,1,10,14.14Z" fill="#212121"/><path d="M9.55,11.33s.09,0,.13,0h0l-.19,0S9.56,11.36,9.55,11.33Zm0,0a.08.08,0,0,1,.13,0l-.2,0h0S9.57,11.37,9.55,11.33Z" fill="#212121"/><path d="M13,14.34s0-.07,0-.09l0,.17H13S13,14.33,13,14.34Zm0,0s.06,0,.05-.05H13l0,0,0,.17S13,14.35,13,14.34Z" fill="#212121"/><path d="M13.45,13.29h0a1.41,1.41,0,0,0,.46,0v.09s-.21.06-.17,0h.12a.7.7,0,0,1,.27,0c.12,0,.12.16.12.19v.13l-.07.08s-.09.15-.15.22a.53.53,0,0,1-.33.17c0-.05-.12.13-.26.13a.34.34,0,0,1-.37-.14l0-.11h0v0c0-.08,0-.2,0-.33v0s.05,0,0,0l-.22-.08.23,0C13.22,13.64,13.36,13.46,13.45,13.29Zm0,0a1.39,1.39,0,0,1-.12.28.43.43,0,0,1-.26.2v-.1s0,0,.05,0h0a.82.82,0,0,1,.09.38v0h0l0,0,0-.11a.18.18,0,0,0,.19,0,.21.21,0,0,0,.1,0l.05-.07.09,0h0a.4.4,0,0,0,.22-.12.44.44,0,0,0,.08-.11l0-.06.11-.08-.06.07c0-.07,0-.2,0-.13a2.2,2.2,0,0,0-.23,0h-.15a.14.14,0,0,1-.07-.21c.08-.08.13,0,.16-.05s.06,0,.16,0l.21.07-.23,0a1.86,1.86,0,0,1-.48-.06h0Z" fill="#212121"/><path d="M12.46,13.84l0,0a0,0,0,0,1,0,0v0h0l-.15-.05h0l.09,0A0,0,0,0,1,12.46,13.84Zm0,0a0,0,0,0,0,0,0h0l.06,0h.06l-.16-.05h0v0a0,0,0,0,0,0,0Z" fill="#212121"/><path d="M14.38,20.2s0-.05.1,0l-.11.15a.07.07,0,0,0,0,0l-.05-.06S14.38,20.19,14.38,20.2Zm0,0s0,0,0,0l0-.06a.09.09,0,0,1,0-.05l-.1.15S14.39,20.24,14.38,20.2Z" fill="#212121"/><path d="M14.62,20.14h.1l0,.09h0l-.13-.05A.13.13,0,0,1,14.62,20.14Zm0,0a.07.07,0,0,0,.07,0l-.13-.05v0l0,.09Z" fill="#212121"/><path d="M13.05,23.89A.15.15,0,0,0,13,24l.14-.14s0,0,0,.05h0v0h0Zm0,0h0l0,0h0a.16.16,0,0,1-.1,0L13,24l.06-.18A.13.13,0,0,1,13.05,23.89Z" fill="#212121"/><path d="M12.46,22.55s.06,0,.1,0l.16.13-.21,0a.08.08,0,0,1-.07,0l0-.11,0,0S12.46,22.53,12.46,22.55Zm0,0s0,0,0,.05v-.1s0,0-.05,0l-.05.1S12.45,22.58,12.46,22.55Z" fill="#212121"/><path d="M13,23.78a.07.07,0,0,1,.06,0h0l-.13.12h0v-.12h0Zm0,0v0h0v-.06l0,0h0l-.13.13h0A.07.07,0,0,0,13,23.78Z" fill="#212121"/><path d="M14.86,25.09a.59.59,0,0,0-.31-.14.82.82,0,0,1-.32-.17h0v0a.34.34,0,0,1,0-.31l.06.11s0,0,0,0a.17.17,0,0,1-.13.12h0l0,0-.18-.23a.3.3,0,0,1-.07-.36c.13-.22.38-.25.48-.35l.22-.22-.06.29c0,.06.1.13.18.25l.26.29.24.3.13.15s.12.09.1.21v0h0a.49.49,0,0,1-.3-.06C15,24.93,14.89,25,14.86,25.09Zm0,0a.19.19,0,0,1,.22-.17.36.36,0,0,0,.25,0l0,0s0,0-.09-.11l-.14-.14-.26-.27-.26-.28L14.42,24a.29.29,0,0,1-.12-.23l.16.07c-.19.15-.38.16-.45.29s0,.07.05.17l.17.23-.07,0s0,0,0,0a.16.16,0,0,1,.14-.09l.14,0-.08.09a.24.24,0,0,0,0,.2l0,0c.1.08.16.17.27.21A.51.51,0,0,1,14.86,25.09Z" fill="#212121"/><path d="M15.58,25.83c-.3,0-.6,0-.9.05h-.1v-.06a.25.25,0,0,1,.13-.23.36.36,0,0,0,.13-.1.07.07,0,0,0,0-.1l-.06-.08a.15.15,0,0,1,0-.15.18.18,0,0,1,.1-.06l.07,0,0,.05a.31.31,0,0,0,.14.06l.18,0a2.93,2.93,0,0,1,.41,0h0v0a1.93,1.93,0,0,0,0,.34s0,.11,0,.17S15.63,25.83,15.58,25.83Zm0,0c.06,0,.12,0,.14-.07a.47.47,0,0,0,0-.16c0-.11,0-.23,0-.34l0,0a2.91,2.91,0,0,0-.4.05h-.22a.44.44,0,0,1-.23-.09l.09,0s0,0,0,0a0,0,0,0,0,0-.06.45.45,0,0,1,.07.09.26.26,0,0,1,0,.29.32.32,0,0,1-.2.14.12.12,0,0,0-.09.1l0-.07h0Q15.13,25.82,15.58,25.83Z" fill="#212121"/><path d="M10.68,14.55l.11-.14,0,0-.21.17s-.05,0,0,.09l.06,0A.27.27,0,0,0,10.68,14.55Z" fill="#212121"/><path d="M10.68,14.55a1.05,1.05,0,0,1,.05-.19l0,.11h.07a.86.86,0,0,1-.2.18l0-.05c0,.06,0,.08,0,.05a.11.11,0,0,0,0-.06Zm0,0s0,.1-.11.14-.11,0-.12-.08,0-.09,0-.07l0,0,.06-.08a.78.78,0,0,1,.21-.16l.07-.05,0,0v0l.06.07,0,0A.42.42,0,0,1,10.68,14.55Z" fill="#212121"/><path d="M15.27,20.87c-.16.06-.17-.11-.27-.14a.14.14,0,0,0,0,.15c.06.11.17.19.2.32.06-.1.25-.08.21-.26-.06,0-.11.07-.17,0S15.31,20.86,15.27,20.87Z" fill="#212121"/><path d="M15.27,20.87a.14.14,0,0,1-.16,0s-.09-.08-.12-.08l0,0c0,.12.22.18.27.43l-.17,0c.16-.17.26-.07.26-.21l0,0s-.1,0-.15,0,0,0,0-.06S15.3,20.87,15.27,20.87Zm0,0s0,0,0,.06,0,0,0,0,.07,0,.13-.07h0l0,0a.17.17,0,0,1,0,.22c-.06.06-.11.08-.11.1l-.17,0A1.14,1.14,0,0,0,15,21l-.06-.14a.19.19,0,0,1,0-.18l0,0h0c.08,0,.08.1.12.13A.11.11,0,0,0,15.27,20.87Z" fill="#212121"/><path d="M15.64,22.49c.17,0,.18-.11.06-.28-.09.05,0,.18,0,.18-.25.05-.13.23-.16.37.11-.05.08-.1.07-.16A.11.11,0,0,1,15.64,22.49Z" fill="#212121"/><path d="M15.64,22.49s.13,0,.12-.11a.45.45,0,0,0-.11-.13h.07s0,0,0,.09,0,0,0,0a.17.17,0,0,1,0,.07l-.06,0h0l0,0s0,.12-.06.25l-.07-.05s.09,0,.08-.09A.12.12,0,0,1,15.64,22.49Zm0,0a.1.1,0,0,0-.06.13c0,.05,0,.16-.07.19l-.06,0v-.08a1.55,1.55,0,0,1,0-.15.27.27,0,0,1,.05-.23.23.23,0,0,1,.12-.06h.05s0,0,0,0a.06.06,0,0,0,0,0h0a.2.2,0,0,1,.1-.21l.06,0v0a.35.35,0,0,1,0,.2C15.78,22.47,15.69,22.48,15.64,22.49Z" fill="#212121"/><path d="M16.27,25.19c.1-.05.15-.27.34-.05l-.08-.3A.49.49,0,0,0,16.27,25.19Z" fill="#212121"/><path d="M16.27,25.19c.05-.05,0-.14.14-.2a.24.24,0,0,1,.27.09l-.16.09a1.09,1.09,0,0,1-.08-.31l.13.06A.64.64,0,0,0,16.27,25.19Zm0,0a.41.41,0,0,1,.21-.43l.09-.05,0,.1a1.09,1.09,0,0,1,.08.31l.07.34-.22-.26c0-.05-.07-.09-.09-.09S16.34,25.17,16.27,25.19Z" fill="#212121"/><path d="M16.81,24.32c-.06.12-.18.21-.16.36l.08-.05c0-.09.12-.15.13-.25s.19-.19.13-.34l-.18.28Z" fill="#212121"/><path d="M16.81,24.32c-.06.12-.16.25-.11.36l-.08,0,.07-.08,0,0c0-.12.11-.19.1-.24h0c.08-.19.2-.18.18-.3H17A2.65,2.65,0,0,0,16.81,24.32Zm0,0A1.46,1.46,0,0,0,17,24L17,24,17,24a.25.25,0,0,1,0,.24c0,.07-.08.11-.08.14h0a.58.58,0,0,1-.16.26v0h0l-.09,0-.09,0v-.07C16.6,24.51,16.75,24.44,16.81,24.32Z" fill="#212121"/><path d="M13.86,18.36a.07.07,0,0,0,.07.07s.07,0,.07,0a.91.91,0,0,1,.1-.33.11.11,0,0,0,0-.1A0,0,0,0,0,14,18,1.16,1.16,0,0,0,13.86,18.36Z" fill="#212121"/><path d="M13.86,18.36a.08.08,0,0,0,.09.06c.05,0,0-.05,0-.11A.72.72,0,0,1,14,18v.05s0,0,0,0,0,0,0,.05A.48.48,0,0,0,13.86,18.36Zm0,0c0-.1,0-.2,0-.3V18s0-.12.12-.11a.18.18,0,0,1,.17.2v.05c0,.07-.09.13-.14.21l0,.06s-.06.06-.07.05A.08.08,0,0,1,13.86,18.36Z" fill="#212121"/><path d="M19.23,19.38v0l-.26,0a.88.88,0,0,1-.62,0l-.08,0s0,0,0,.05C18.6,19.53,18.91,19.38,19.23,19.38Z" fill="#212121"/><path d="M19.23,19.38v0h0a1.15,1.15,0,0,1-.26,0h0a.86.86,0,0,1-.67,0h.07l-.07,0h0s.05-.1,0-.12,0,0,0,0l0,0h0C18.57,19.43,18.9,19.32,19.23,19.38Zm0,0c-.16,0-.3.1-.47.13a.75.75,0,0,1-.52-.09h0l-.05,0,0,0s0-.15,0-.14l0,0,.08,0h.07a1.06,1.06,0,0,0,.58.08h0l.25.08h0Z" fill="#212121"/><path d="M21.19,21.62a2.73,2.73,0,0,1-.35-.68.3.3,0,0,0-.13-.17l-.18-.37a.31.31,0,0,0-.42,0c-.15.13,0,.24,0,.36a.46.46,0,0,0,.18.4l.05.17a.17.17,0,0,0,0,.14c.13.09.14.25.23.35s.15.3.31.39.06,0,.07,0-.08-.05,0-.09S21.25,21.7,21.19,21.62Z" fill="#212121"/><path d="M21.19,21.62a2.93,2.93,0,0,1-.37-.67h0a.22.22,0,0,0-.12-.15h0l-.21-.37c0-.06-.23-.05-.3,0s0,.1,0,.32a.45.45,0,0,0,.14.31l0,0v0l.05.18v0l0,0a.06.06,0,0,0,0,.06l0,0a.53.53,0,0,1,.16.25,1.57,1.57,0,0,0,.12.21c.05.08.08.16.12.22s.16.17.14.08v0s-.07,0-.05-.09L21,22a.32.32,0,0,0,.12-.11C21.15,21.83,21.23,21.72,21.19,21.62Zm0,0c0,.1,0,.22-.08.3A.46.46,0,0,1,21,22c-.06,0-.1.05,0,.08h0s0,.06,0,.08l-.07,0-.11-.08c-.06-.07-.1-.15-.15-.21a.89.89,0,0,1-.16-.22.4.4,0,0,0-.13-.17h0l0,0a.23.23,0,0,1,0-.23v.07l-.06-.18,0,.05a.58.58,0,0,1-.22-.45,1.86,1.86,0,0,0-.05-.19.26.26,0,0,1,.11-.28.38.38,0,0,1,.5.08l.18.41,0,0a.3.3,0,0,1,.13.2h0A2.58,2.58,0,0,0,21.19,21.62Z" fill="#212121"/><path d="M16.65,20.74c-.1,0-.16-.28-.3,0C16.45,20.74,16.51,21,16.65,20.74Z" fill="#212121"/><path d="M16.65,20.74c-.08,0-.16,0-.19-.06s0,0,0,0a.16.16,0,0,0,0,.06l-.05-.14a.19.19,0,0,1,.11.11l0,.07s0,0,0,0S16.62,20.78,16.65,20.74Zm0,0a.27.27,0,0,1,0,.12.12.12,0,0,1-.17.06c-.06,0-.08-.07-.11-.09s-.05,0,0,0l-.05-.14a.38.38,0,0,1,.09-.1s.16,0,.18,0S16.59,20.7,16.65,20.74Z" fill="#212121"/><path d="M16.8,20.85c.07,0,0-.09,0-.14s0-.07,0-.1-.16,0-.16.13S16.7,20.89,16.8,20.85Z" fill="#212121"/><path d="M16.8,20.85c.05,0,0-.05,0-.11s0-.06,0-.07a.2.2,0,0,1,0-.07l.14.07a.26.26,0,0,1-.12.07s0,0,0,0l0,0a.17.17,0,0,1,0,.13S16.76,20.86,16.8,20.85Zm0,0c-.07.07-.16-.08-.19-.06l0-.05a.15.15,0,0,1,.08-.18.1.1,0,0,1,.08,0l.15.07a.24.24,0,0,0,0,.07s0,.07,0,.06S16.87,20.85,16.8,20.85Z" fill="#212121"/><path d="M17.79,21.28h0l.08,0h0c0,.05-.14.06-.08.11s.07.17.06.25a.14.14,0,0,0,.13.19c.07,0,.2.1.22-.09,0,0,.06-.05.09-.08l0-.67h0a.25.25,0,0,1,.08.23c0,.11.06.11.13.06h0l0,.05h0c-.11.16.08.21.12.31a2,2,0,0,0,.3.63c0-.19,0-.21.16-.16s.12,0,.14-.06.11-.07.16-.12-.12,0-.11-.09-.1-.16-.17-.21h0c0-.16,0-.33-.2-.42,0,0-.06-.11,0-.17-.13-.08,0-.25-.12-.34s0,.14-.07.2a.36.36,0,0,0-.21-.29.46.46,0,0,1,.07.26h0c-.07-.05-.14,0-.21,0s-.2-.12-.3-.17c0,.14.1.2.16.3h0s0,0,0,0a.13.13,0,0,0-.06.07.55.55,0,0,0-.14-.17.08.08,0,0,0-.11,0,.07.07,0,0,0,0,.11,1,1,0,0,1,0,.17.18.18,0,0,0-.21-.12l-.05.05h0C17.7,21.31,17.7,21.31,17.79,21.28Z" fill="#212121"/><path d="M17.79,21.28l.08,0h0c0,.05-.1.06-.09.09a.25.25,0,0,1,.08.12c0,.1,0,.2,0,.26s.16.06.22.07,0,0,0-.07.09-.1.11-.13l0,0V21l.07-.05h.08a.33.33,0,0,1,.11.26s0,.07,0,0,0,0,0,0l.12.07v-.05l0,.05h0l-.11.12h0l.08,0c0,.06,0,.05.05.13a.61.61,0,0,1,.13.27,1.7,1.7,0,0,0,.24.44l-.16.08a.46.46,0,0,1,0-.17.18.18,0,0,1,.21-.12l.11,0s0,0,0,0h0a.16.16,0,0,1,.12-.14l.07,0V22s0,0,0,0-.07,0-.09-.07a.14.14,0,0,1,0-.1l.06.1c-.16-.08-.16-.23-.19-.22l0-.08h0A.78.78,0,0,0,19,21.4s0,0-.13-.11a.25.25,0,0,1,0-.26l0,.13a.26.26,0,0,1-.12-.25c0-.07,0-.09,0-.1h.11s0,0,0,0a.23.23,0,0,1-.08.16l-.13.08V21a.29.29,0,0,0-.16-.23l.12-.11a.58.58,0,0,1,.07.3l0-.06-.1.12s-.07,0-.19,0h0v0c0-.07-.13-.08-.26-.14l.09-.05c0,.08.07.14.15.25h0s0,0,0,.07,0,0,0,.05l0,0h0l0,.05-.05.05-.05,0c0-.06-.12-.2-.17-.19s0,.14,0,.25h-.05a.14.14,0,0,0-.18-.11h0l-.05,0h0v.13C17.69,21.3,17.75,21.3,17.79,21.28Zm0,0s-.1,0-.11,0l0-.14h0l0-.05h0a.2.2,0,0,1,.24.12h-.05l0-.15a.12.12,0,0,1,.07-.18.16.16,0,0,1,.17.08l.12.14h-.1l.07-.11h0a.11.11,0,0,1,.11,0l-.05,0s0,0-.06,0,0,.06,0,.06h0c0-.08-.19-.16-.18-.33v-.1l.09,0c.07,0,.26,0,.34.2l-.06,0a.32.32,0,0,1,.24,0h0l-.06.13,0,.08V20.9a.51.51,0,0,0-.07-.22l-.12-.23.24.12a.44.44,0,0,1,.25.36l-.14-.06s0,0,0,0a.2.2,0,0,1,.07-.17l.05,0,.06,0a.28.28,0,0,1,.08.24C19,21,19,21,19,21l.12.07-.09.05s0,.07,0,.07.11,0,.13.09a.76.76,0,0,1,.1.37v0h0l0-.08c.12.12.12.2.14.2l.07.1s0-.06,0,0a.19.19,0,0,1,.12,0l.09.08-.09.07a.45.45,0,0,1-.13.06s0,0,0,0h0a.19.19,0,0,1-.18.14c-.09,0-.11,0-.14,0s0,0,0,0a.32.32,0,0,0,0,.08l.09.4-.25-.32a1.84,1.84,0,0,1-.26-.5c0-.1,0-.17-.09-.21a.27.27,0,0,1-.1-.14.22.22,0,0,1,0-.2l0-.05.05,0a.05.05,0,0,1,0,0l-.13.06,0,.06v0h0l0-.05-.06-.07,0,0,.12.07s-.08.07-.19,0,0-.14,0-.17a.17.17,0,0,0-.05-.15h0l.07-.07,0,.67v0h0s-.08.05-.07.07-.05.13-.13.13a.49.49,0,0,1-.14,0,.22.22,0,0,1-.14-.09c-.05-.11,0-.2,0-.29a.23.23,0,0,0-.07-.11c0-.07.08-.05.1-.1h0Z" fill="#212121"/><path d="M19.71,20a.05.05,0,0,0-.06-.06s-.12,0-.12.06,0,.07,0,.08S19.67,20.06,19.71,20Z" fill="#212121"/><path d="M19.71,20c-.06-.05,0,0-.11,0h0s0,0,0,0-.06,0,0,0S19.65,20,19.71,20Zm0,0a.15.15,0,0,1-.1.16.14.14,0,0,1-.13,0,.17.17,0,0,1-.05-.13.14.14,0,0,1,.07-.13c.07,0,.1,0,.12,0l.08,0A.08.08,0,0,1,19.71,20Z" fill="#212121"/><path d="M11.2,17.52h0c0,.23.21.22.33.29a.49.49,0,0,0,.59,0A1.18,1.18,0,0,1,11.2,17.52Z" fill="#212121"/><path d="M11.2,17.52h0a.16.16,0,0,0,.15.16,1.43,1.43,0,0,1,.27.09.41.41,0,0,0,.43,0l.08.16A1,1,0,0,1,11.2,17.52Zm0,0a1.38,1.38,0,0,0,.86.2l.29,0-.21.21a.53.53,0,0,1-.63,0,1,1,0,0,0-.25-.13.23.23,0,0,1-.12-.27h.06Z" fill="#212121"/><path d="M11.62,19.13h0c.14-.11.14-.27.16-.43-.11,0-.23.13-.21.15S11.55,19.05,11.62,19.13Z" fill="#212121"/><path d="M11.62,19.13a1.07,1.07,0,0,0,.07-.44l.09.11-.08,0,0,0h0s0,0,0-.08h0a.19.19,0,0,1,0,.21C11.64,19.05,11.6,19.07,11.62,19.13Zm0,0s0-.11,0-.16,0,0,0,0,0,0,0,0,0-.1,0-.12l0-.05.07-.07a.27.27,0,0,1,.19-.06h.11l0,.1C11.86,18.85,11.8,19.09,11.62,19.13Z" fill="#212121"/><path d="M12,18.71l-.09-.07c0-.13-.1-.1-.17-.12a.05.05,0,0,0-.06.05c0,.09.12,0,.14.1S11.86,18.69,12,18.71Z" fill="#212121"/><path d="M12,18.71s-.07,0-.13,0,0-.06,0-.06,0,0,0,0h-.07a.06.06,0,0,0,.07,0s0,0,0-.05a.23.23,0,0,1,.12.07c0,.07,0,0,0,.05A.27.27,0,0,1,12,18.71Zm0,0s-.06,0-.1.05-.16-.06-.14-.05,0,0-.07,0a.15.15,0,0,1-.08-.22.13.13,0,0,1,.15-.06h0a.24.24,0,0,1,.14,0c0,.05,0,.15,0,.13Z" fill="#212121"/><path d="M11.15,19.13c.15-.12,0-.2,0-.3C11.14,18.93,11.06,19,11.15,19.13Z" fill="#212121"/><path d="M11.15,19.13c0-.16,0-.1-.11-.24l.18-.07C11.22,19,11.14,19,11.15,19.13Zm0,0A.16.16,0,0,1,11,19c0-.06,0-.11,0-.13l.18-.07a.47.47,0,0,1,.1.18A.16.16,0,0,1,11.15,19.13Z" fill="#212121"/><polygon points="11.15 19.13 11.15 19.13 11.15 19.13 11.15 19.13" fill="#212121"/><path d="M10.94,15.36h0c-.07.09,0,.16,0,.2a.83.83,0,0,1,.12.49s0-.09,0-.14V15C10.93,15.12,11,15.27,10.94,15.36Z" fill="#212121"/><path d="M10.94,15.36h0c-.05.11.13.15.17.29a.77.77,0,0,1,.09.39L11,16s0,0,0-.07h0a6.47,6.47,0,0,1,0-.88l.09.05a.17.17,0,0,0-.11.11C11,15.23,11,15.31,10.94,15.36Zm0,0c0-.06,0-.13,0-.2a.27.27,0,0,1,.12-.2l.08-.05,0,.11a6.47,6.47,0,0,1,0,.88v0h0s0,.13-.09.19L11,16.2V16a1.27,1.27,0,0,0,0-.34.77.77,0,0,0-.07-.16s-.06-.15,0-.19h0Z" fill="#212121"/><path d="M11.56,14c-.12.06-.22.11-.24.24l.09,0C11.44,14.11,11.55,14.1,11.56,14Z" fill="#212121"/><path d="M11.56,14c-.1.08-.18.18-.14.26h0l-.14-.11h.1l0,0C11.45,14,11.53,14.08,11.56,14Zm0,0c0,.09-.1.2-.09.24h0l0,0-.07.06-.28.22.14-.32h0A.38.38,0,0,1,11.56,14Z" fill="#212121"/><path d="M11.07,14.44h0l.15-.19C11.19,14.31,11,14.3,11.07,14.44Z" fill="#212121"/><path d="M11.07,14.44l0,0h0l.08-.24.15.13h0C11.18,14.4,11.09,14.31,11.07,14.44Zm0,0a.13.13,0,0,1,0-.17c.05,0,.09-.08.09-.1h.36l-.21.13-.22.14h0Z" fill="#212121"/><path d="M16,20.44h0c0-.07-.09-.16-.17,0s-.15,0-.22,0,0-.1-.12-.08.2.18.1.38l.25-.22c.1-.08.11,0,.12.07h0a.28.28,0,0,1-.23.31c-.05,0-.1.07-.15.1s.14.14.27.07c-.09.14-.09.2,0,.24h0a.15.15,0,0,1,.2,0,8.18,8.18,0,0,0,1.08.39c.07,0,.13.05.12.14s-.31-.13-.52,0a1.72,1.72,0,0,0,.44.12l.08.08a3,3,0,0,0,0,.94l0,0h0s0,0,0,0-.28.09-.36.24-.1,0-.06.08.08,0,.12,0-.05.09-.08.13.1,0,.12.1-.11.21,0,.26.1-.15.21-.15-.1.17-.09.32a3.19,3.19,0,0,0,.31-.61c0-.05,0-.12.08-.11s0,.08,0,.12c0,.31-.05.61-.07.91l0,0c.13.05.15,0,.17-.14s0-.22,0-.32c0-.28.12-.53.13-.81s.07-.21.21-.21h0c.08-.07,0-.15,0-.23s-.09-.26-.28-.2c0-.06-.08-.15-.06-.19s0-.13-.1-.15a.82.82,0,0,0-.31-.07h0c0-.09.07-.06.13-.06s.18.09.2,0-.12-.08-.19-.11h-.09c-.38-.13-.77-.22-1.14-.37s-.28-.1-.17-.34l0,0v-.06a.64.64,0,0,1,.1-.13c.1-.09.07-.18,0-.26s-.11.06-.17.07h0l0-.08ZM17.78,23h0S17.79,23,17.78,23Z" fill="#212121"/><path d="M16,20.44s-.06-.11-.11-.09-.06.09-.12.11a.22.22,0,0,1-.16,0s-.06-.1-.12-.09h0c0,.06.08.11.11.17a.22.22,0,0,1,0,.22l0,0,.2-.18s.06-.07.12-.08.07.09.08.12h0l0,0h0v0a.31.31,0,0,1-.13.28,1.83,1.83,0,0,0-.25.15l0,0c.12,0,.18.13.26.07L16,21l-.07.12c-.05.08-.11.16,0,.2l0,0-.06,0a.17.17,0,0,1,.21-.05l.19.06.37.13.37.13.18.06a.17.17,0,0,1,.15.2l0,0h0c-.21,0-.36-.11-.5,0V21.7l.42.11h0l.09.09,0,0v0a3.17,3.17,0,0,0,0,.92l-.12-.06,0,0,.09.12s0,0,0,0v0c-.12.12-.26.12-.31.19s0,0-.07.07-.05.05,0,0-.1,0,0,0l.11,0v.11c0,.12-.11.17-.1.18l0-.13a.24.24,0,0,1,.17.21,1.28,1.28,0,0,1,0,.15s0,0,0,0,0,0,0,0,0-.15.2-.17h.15l-.05.14c0,.13-.1.17-.09.25v0l-.18,0,.21-.41c0-.07.08-.14.1-.2a.16.16,0,0,1,.17-.15.14.14,0,0,1,.12.1.32.32,0,0,1,0,.1l-.08.93-.14-.06,0,0,0,0,.06,0h0a.31.31,0,0,0,0-.11c0-.08,0-.22.06-.34v.05c0-.3.12-.55.13-.81h0a.25.25,0,0,1,.06-.21.29.29,0,0,1,.2-.07v0h0l0,0h-.06c.05,0,0-.07,0-.21l0,.07c-.1,0-.12-.12-.15-.16s0-.06-.1,0h0l0,0-.05-.1a.16.16,0,0,1,0-.15c0-.07,0,0-.08-.06h0l-.29-.07h0v0h0v0s0-.1.09-.1l.1,0,.14,0s0-.05-.06-.06l-.18,0,0,0,0,0-.8-.27-.4-.14c-.06,0-.15-.05-.18-.13a.52.52,0,0,1,.07-.21h0l0,0h0v-.06h0c.05-.1.18-.16.16-.27a.19.19,0,0,0-.1-.13c-.06,0-.07.07-.13.09h0Zm0,0,0,.09h0c.05,0,.06-.09.13-.09a.23.23,0,0,1,.11.13c0,.13-.12.2-.16.3h0v.06h0l0,0h0a.56.56,0,0,0-.07.19c0,.06.11.08.17.11l.4.13.81.25,0,0,0,0a1,1,0,0,1,.18,0s.17.08.1.17-.15,0-.2,0h-.08s0,0,0,0v0h0l0,0,.31.07h0a.35.35,0,0,1,.13,0,.11.11,0,0,1,0,.16s0,0,0,.07l.05.11-.06,0a.18.18,0,0,1,.22.07c0,.06.06.12.09.12h.06l0,.07s0,.05,0,.09a.19.19,0,0,1-.06.17l0,0,0,0h0c-.12,0-.17.05-.15.16h0c0,.29-.13.54-.12.79v0l0,0c0,.05,0,.13,0,.25a.34.34,0,0,1,0,.19.2.2,0,0,1-.23.05l.09,0,0,0-.15.19V24.2l.06-1s0,0,0,0,0,0,0,0,0,0,0,0a2.26,2.26,0,0,1-.11.22l-.21.44-.17.34,0-.38v0a.93.93,0,0,1,.1-.31l.09.12s0,0-.05.1a.17.17,0,0,1-.18,0,.16.16,0,0,1-.13-.11c0-.14,0-.19,0-.21s0,0-.08-.06l-.09,0,.07-.08c.06-.08.08-.08.07-.07l.11.07a.21.21,0,0,1-.12,0c-.11,0-.11-.07-.12-.15s.15-.11.1-.11,0,0,.05-.06.25-.11.3-.17l0,0a.13.13,0,0,1,.06-.08l0,.06.13.06,0,0-.13.13V22.9a3.11,3.11,0,0,1,0-1V22l-.08-.09,0,0-.46-.13-.13,0,.13-.07c.2-.1.41.05.54,0l0,0c0-.08-.15-.09-.26-.15l-.37-.14-.37-.14c-.12,0-.25-.14-.32,0l-.06,0,0,0a.12.12,0,0,1-.06-.15.33.33,0,0,1,.07-.13l0,0a.17.17,0,0,1-.17,0c-.05,0-.09-.07-.12-.07h-.07l.05,0a1.82,1.82,0,0,1,.27-.15.25.25,0,0,0,.11-.24h0v0s0-.1,0-.1-.06.05-.1.07l-.21.18v0a.21.21,0,0,0,0-.19,1.08,1.08,0,0,1-.11-.18h0c.07,0,.08.07.13.09a.28.28,0,0,0,.15,0c.05,0,.06-.09.11-.11S16,20.4,16,20.44Z" fill="#212121"/><path d="M17.78,23h0l.05-.05s0,0,0,0l0,0s.07,0,.07.1,0,0,0,0A0,0,0,0,1,17.78,23Zm0,0s0,0,0-.05,0,0,0,0,.08.09.06.1,0,0,0,0l0-.05.06,0Z" fill="#212121"/><path d="M16.17,20.2c-.11.06-.17.13-.16.24C16.13,20.4,16.2,20.35,16.17,20.2Z" fill="#212121"/><path d="M16.17,20.2c-.08.08-.11.17-.06.23h0L16,20.34C16.08,20.35,16.16,20.33,16.17,20.2Zm0,0a.19.19,0,0,1,0,.18.31.31,0,0,1-.15.15l-.15.1,0-.18h0A.26.26,0,0,1,16.17,20.2Z" fill="#212121"/><path d="M13.7,23.33c0-.24-.09-.47-.14-.71-.16.28,0,.55,0,.84C13.62,23.42,13.72,23.43,13.7,23.33Z" fill="#212121"/><path d="M13.7,23.33a5.54,5.54,0,0,0-.22-.69l.16,0a1.61,1.61,0,0,0-.05.8h0S13.72,23.42,13.7,23.33Zm0,0c0,.09-.08.1-.12.14v0c0-.14-.12-.26-.16-.41a.64.64,0,0,1,.09-.48l.14-.19,0,.22C13.67,22.84,13.66,23.09,13.7,23.33Z" fill="#212121"/><path d="M13.75,22.6a1,1,0,0,0,.08.64C13.76,23,13.87,22.8,13.75,22.6Z" fill="#212121"/><path d="M13.75,22.6a.94.94,0,0,0,.17.59h0l-.18.09C13.69,23,13.84,22.82,13.75,22.6Zm0,0c.15.18.08.47.18.61l-.18.09h0A1,1,0,0,1,13.75,22.6Z" fill="#212121"/><path d="M13.47,13.55a.46.46,0,0,0-.3.36l.05,0Z" fill="#212121"/><path d="M13.47,13.55a.62.62,0,0,0-.2.38l0-.1,0,0-.15,0C13.2,13.79,13.32,13.73,13.47,13.55Zm0,0a1.62,1.62,0,0,1-.17.45l-.06.09L13.15,14l0,0,0-.05,0,0a.63.63,0,0,1,.13-.24A.32.32,0,0,1,13.47,13.55Z" fill="#212121"/><rect width="30" height="30" fill="none"/></svg>