<svg xmlns="http://www.w3.org/2000/svg" viewBox="0 0 30 30"><path d="M5.55,14.2l-1.22.49A1.25,1.25,0,0,1,2.5,13.48c0-1,0-2.05,0-3.07a1.28,1.28,0,0,1,.77-1.27L4,8.75a3.85,3.85,0,0,1-.12-2.1A3.4,3.4,0,0,1,8.11,4.06,2.56,2.56,0,0,1,9.8,5.48c.19.41.36.84.54,1.27l.59-.13A11.3,11.3,0,0,1,11,5.45a3.46,3.46,0,0,1,4.24-2.79,2.72,2.72,0,0,1,2,1.9c.14.47.26.94.4,1.43l.54,0,.12-.49a3.41,3.41,0,0,1,4.39-2.36,2.41,2.41,0,0,1,1.58,1.54c.24.72.41,1.46.58,2.2.05.21.11.32.33.36.42.09.83.2,1.25.3a1.27,1.27,0,0,1,1,1.31v2.84A1.25,1.25,0,0,1,25.84,13c-.34-.08-.67-.18-1.05-.28l-.12.54a22.31,22.31,0,0,1-3.76,8.9,15.26,15.26,0,0,1-1.52,1.7,1.18,1.18,0,0,1-1.63.24,1.25,1.25,0,0,1-.37-1.62,28,28,0,0,0,1.74-6,15.37,15.37,0,0,0,.09-4.79L18,11.55c-.06.56-.1,1.09-.17,1.62A30,30,0,0,1,14,24.77a22.24,22.24,0,0,1-1.58,2.17,1.18,1.18,0,0,1-1.57.34,1.2,1.2,0,0,1-.52-1.52A41.39,41.39,0,0,0,12,19.38a23,23,0,0,0,.15-7.17l0-.14c-.33.09-.66.16-1,.27a.32.32,0,0,0-.13.24,25.18,25.18,0,0,1-1.13,6.15,17,17,0,0,1-3.14,6,5,5,0,0,1-.38.41,1.2,1.2,0,0,1-2-1.17c.32-1.33.71-2.65,1-4A17.89,17.89,0,0,0,5.55,14.2Zm8.25,6.59c0-.09.07-.14.09-.2A30.54,30.54,0,0,0,16,10.42a15.75,15.75,0,0,0-.61-5.15.93.93,0,0,0-1.14-.71A1.59,1.59,0,0,0,13,6.67a44.12,44.12,0,0,1,1.13,5.58,23.15,23.15,0,0,1,0,5.58C14.08,18.8,13.93,19.77,13.8,20.79Zm7-2.37h0c0-.1.1-.19.14-.29A22.14,22.14,0,0,0,23.07,10a11.5,11.5,0,0,0-.53-4.36A.86.86,0,0,0,21.39,5a2,2,0,0,0-.82.51,1.53,1.53,0,0,0-.3,1.51c.23.94.48,1.87.68,2.82a17.59,17.59,0,0,1,.21,6.51C21.05,17.06,20.93,17.74,20.81,18.42Zm-13.36.94,0,0,.1-.24A21.78,21.78,0,0,0,9,10.31,10.84,10.84,0,0,0,8,6.43a.77.77,0,0,0-.76-.49,1.27,1.27,0,0,0-.93.35,1.65,1.65,0,0,0-.41,1.8c.32.95.66,1.89.94,2.85a17.13,17.13,0,0,1,.74,6.36C7.57,18,7.51,18.67,7.45,19.36ZM10.79,8.71,11,10.29l.8-.2-.33-1.53ZM18,8.06c0,.45,0,.89,0,1.32a.23.23,0,0,0,.13.18c.23,0,.46,0,.72.06-.1-.4-.19-.77-.29-1.14S18.46,8,18,8.06ZM4.5,12.46l.66-.26-.43-1.52-.1,0c0,.08-.12.15-.12.23C4.5,11.4,4.5,11.91,4.5,12.46Zm21-1.61V9.41l-.42-.08v1.41Z" fill="#212121"/><path d="M13.8,20.79c.13-1,.28-2,.4-3a23.15,23.15,0,0,0,0-5.58A44.12,44.12,0,0,0,13,6.67a1.59,1.59,0,0,1,1.23-2.11.93.93,0,0,1,1.14.71A15.75,15.75,0,0,1,16,10.42a30.54,30.54,0,0,1-2.12,10.17C13.87,20.65,13.84,20.7,13.8,20.79Z" fill="#eee" stroke="#eee" stroke-linecap="round" stroke-linejoin="round" stroke-width="0.75"/><path d="M20.81,18.42c.12-.68.24-1.36.35-2A17.59,17.59,0,0,0,21,9.87c-.2-.95-.45-1.88-.68-2.82a1.53,1.53,0,0,1,.3-1.51A2,2,0,0,1,21.39,5a.86.86,0,0,1,1.15.65A11.5,11.5,0,0,1,23.07,10,22.14,22.14,0,0,1,21,18.14c0,.1-.09.19-.14.29Z" fill="#eee" stroke="#eee" stroke-linecap="round" stroke-linejoin="round" stroke-width="0.75"/><path d="M7.45,19.36c.06-.69.12-1.37.17-2.06a17.13,17.13,0,0,0-.74-6.36C6.6,10,6.26,9,5.94,8.09a1.65,1.65,0,0,1,.41-1.8,1.27,1.27,0,0,1,.93-.35A.77.77,0,0,1,8,6.43,10.84,10.84,0,0,1,9,10.31a21.78,21.78,0,0,1-1.36,8.83l-.1.24Z" fill="#eee" stroke="#eee" stroke-linecap="round" stroke-linejoin="round" stroke-width="0.75"/><path d="M10.79,8.71l.66-.15.33,1.53-.8.2Z" fill="#eee" stroke="#eee" stroke-linecap="round" stroke-linejoin="round" stroke-width="0.75"/><path d="M18,8.06c.45,0,.46,0,.57.42s.19.74.29,1.14c-.26,0-.49,0-.72-.06A.23.23,0,0,1,18,9.38C18,9,18,8.51,18,8.06Z" fill="#eee" stroke="#eee" stroke-linecap="round" stroke-linejoin="round" stroke-width="0.75"/><path d="M4.5,12.46c0-.55,0-1.06,0-1.57,0-.08.08-.15.12-.23l.1,0,.43,1.52Z" fill="#eee" stroke="#eee" stroke-linecap="round" stroke-linejoin="round" stroke-width="0.75"/><path d="M25.49,10.85l-.42-.11V9.33l.42.08Z" fill="#eee" stroke="#eee" stroke-linecap="round" stroke-linejoin="round" stroke-width="0.75"/><rect width="30" height="30" fill="none"/></svg>