<svg xmlns="http://www.w3.org/2000/svg" viewBox="0 0 30 30"><path d="M10.82,14.87l-.08-.53a2.8,2.8,0,0,1,.09-1.3,3.42,3.42,0,0,1,.52-1,5.55,5.55,0,0,1,.62-.73,3.59,3.59,0,0,0,.42-.5.36.36,0,0,0,.09-.22c0-.06,0-.1,0-.1a.37.37,0,0,0-.21-.08.62.62,0,0,0-.33.08,3.6,3.6,0,0,0-.47.37l-.42.4L8.91,9.35l.42-.46a4.7,4.7,0,0,1,1.39-1.07,3.84,3.84,0,0,1,1.81-.43,4.23,4.23,0,0,1,1.61.3,2.74,2.74,0,0,1,1.26,1,3.08,3.08,0,0,1,.47,1.75,2.39,2.39,0,0,1-.28,1.18,4.26,4.26,0,0,1-.6.84l-.6.66a2.13,2.13,0,0,0-.38.54,1,1,0,0,0-.08.51l.06.68Z" fill="#b0bec5"/><path d="M12.53,8a3.56,3.56,0,0,1,1.37.26,2.06,2.06,0,0,1,1,.79,2.38,2.38,0,0,1,.37,1.39,1.87,1.87,0,0,1-.21.9,3.86,3.86,0,0,1-.51.71l-.6.65a3.07,3.07,0,0,0-.48.69,1.56,1.56,0,0,0-.14.84h-2a2.35,2.35,0,0,1,.06-1,2.87,2.87,0,0,1,.43-.81,7.46,7.46,0,0,1,.56-.66,5.07,5.07,0,0,0,.5-.59,1,1,0,0,0,.19-.57.82.82,0,0,0-.11-.44.74.74,0,0,0-.31-.27,1,1,0,0,0-.43-.09,1.24,1.24,0,0,0-.66.17,3.74,3.74,0,0,0-.57.45L9.79,9.3A4.39,4.39,0,0,1,11,8.37,3.29,3.29,0,0,1,12.53,8m0-1.25a4.52,4.52,0,0,0-2.1.5A5.59,5.59,0,0,0,8.86,8.47L8,9.39l.92.84,1.23,1.12.55.5a3.88,3.88,0,0,0-.49,1,3.44,3.44,0,0,0-.12,1.58l.16,1.06h4.39l-.11-1.35a.42.42,0,0,1,0-.18,1.71,1.71,0,0,1,.28-.4l.6-.65a5,5,0,0,0,.69-1,3.07,3.07,0,0,0,.36-1.49,3.69,3.69,0,0,0-.58-2.09,3.39,3.39,0,0,0-1.55-1.25,4.82,4.82,0,0,0-1.84-.35Z" fill="#212121"/><path d="M12.35,17.65a1.65,1.65,0,0,1-1.21-.51,1.82,1.82,0,0,1,0-2.44,1.65,1.65,0,0,1,1.21-.51,1.59,1.59,0,0,1,1.21.52,1.79,1.79,0,0,1,0,2.42A1.63,1.63,0,0,1,12.35,17.65Z" fill="#b0bec5"/><path d="M12.35,14.81a1,1,0,0,1,.75.32,1.13,1.13,0,0,1,.3.79,1.09,1.09,0,0,1-.3.78,1,1,0,0,1-.75.33,1,1,0,0,1-.76-.33,1.09,1.09,0,0,1-.3-.78,1.13,1.13,0,0,1,.3-.79,1,1,0,0,1,.76-.32m0-1.25a2.24,2.24,0,0,0-1.66.71,2.42,2.42,0,0,0,0,3.3,2.3,2.3,0,0,0,3.33,0,2.45,2.45,0,0,0,0-3.28,2.24,2.24,0,0,0-1.67-.72Z" fill="#212121"/><path d="M18.71,22a1.83,1.83,0,0,1,0-2.58l.75-.75a1.81,1.81,0,0,1,1.29-.53,1.85,1.85,0,0,1,1.29.53l4.09,4.1-3.32,3.32Z" fill="#b0bec5"/><path d="M20.75,18.81a1.16,1.16,0,0,1,.84.35l3.66,3.65-2.44,2.44-3.65-3.66a1.19,1.19,0,0,1,0-1.69l.74-.74a1.18,1.18,0,0,1,.85-.35m0-1.25a2.42,2.42,0,0,0-1.73.71l-.75.75a2.46,2.46,0,0,0,0,3.46l3.66,3.65.88.89.88-.89,2.44-2.44.89-.88-.89-.88-3.65-3.66a2.44,2.44,0,0,0-1.73-.71Z" fill="#212121"/><path d="M24.06,26.62a1.77,1.77,0,0,1-1.29-.53l-.44-.44.42-.46,2.88-2.88.45.44a1.78,1.78,0,0,1,.54,1.31,1.81,1.81,0,0,1-.53,1.29l-.74.74A1.81,1.81,0,0,1,24.06,26.62Z" fill="#b0bec5"/><path d="M25.63,23.19l0,0a1.19,1.19,0,0,1,0,1.69l-.75.75a1.2,1.2,0,0,1-1.69,0l0,0,2.44-2.44m0-1.75-.9.87-2.44,2.44-.88.88.88.89a2.44,2.44,0,0,0,1.75.73,2.4,2.4,0,0,0,1.73-.72l.74-.74a2.44,2.44,0,0,0,0-3.46l-.88-.89Z" fill="#212121"/><path d="M12.52,21.66a9.14,9.14,0,1,1,7.73-4.26,2.3,2.3,0,0,1,.16.82,2.2,2.2,0,0,1-2.19,2.19,2.3,2.3,0,0,1-.82-.16A9.12,9.12,0,0,1,12.52,21.66Zm0-14.84a5.7,5.7,0,1,0,5.7,5.7A5.71,5.71,0,0,0,12.52,6.82Z" fill="#b0bec5"/><path d="M12.52,4A8.52,8.52,0,0,1,21,12.52a8.4,8.4,0,0,1-1.52,4.84,1.5,1.5,0,0,1,.26.86,1.56,1.56,0,0,1-1.56,1.56,1.5,1.5,0,0,1-.86-.26A8.4,8.4,0,0,1,12.52,21a8.52,8.52,0,0,1,0-17m0,14.84A6.32,6.32,0,1,0,6.2,12.52a6.32,6.32,0,0,0,6.32,6.32m0-16.09a9.77,9.77,0,1,0,5,18.18,2.64,2.64,0,0,0,.74.1A2.81,2.81,0,0,0,21,18.22a2.64,2.64,0,0,0-.1-.74A9.76,9.76,0,0,0,12.52,2.75Zm0,14.84a5.07,5.07,0,1,1,5.07-5.07,5.07,5.07,0,0,1-5.07,5.07Z" fill="#212121"/><rect width="30" height="30" fill="none"/></svg>