<svg xmlns="http://www.w3.org/2000/svg" viewBox="0 0 30 30"><path d="M23.93,15c0,2.55,0,5.11,0,7.66a2.11,2.11,0,0,1-.91,1.8,6.46,6.46,0,0,1-2.56,1.08,18.78,18.78,0,0,1-8.63-.09,6.5,6.5,0,0,1-2.05-.87,2.14,2.14,0,0,1-1.08-2c0-.74,0-1.48,0-2.22a.47.47,0,0,0-.31-.49L5.68,18.5A2,2,0,0,1,4.6,15.87l.35-1a2,2,0,0,1,2.78-1.14l.54.27c.26.12.44,0,.44-.27,0-.52,0-1,0-1.56,0-1.6,0-3.2,0-4.8a2,2,0,0,1,.85-1.73A6.1,6.1,0,0,1,12,4.51a18.56,18.56,0,0,1,9,.09,6,6,0,0,1,1.94.86,2.16,2.16,0,0,1,1,1.94C23.91,9.93,23.93,12.47,23.93,15ZM10.4,9.2v.29c0,1.41,0,2.82,0,4.23a1.91,1.91,0,0,1-2.07,2,3.71,3.71,0,0,1-1.14-.37c-.47-.2-.53-.18-.7.3-.09.29-.18.57-.28.86s-.07.38.23.54l2.8,1.42a2,2,0,0,1,1.15,1.86c0,.78,0,1.55,0,2.33a.53.53,0,0,0,.33.57,12.49,12.49,0,0,0,1.76.67,16.8,16.8,0,0,0,6.16.3c.3,0,.37-.12.37-.41,0-1,0-2.06,0-3.09a.83.83,0,0,1,1-.86.86.86,0,0,1,.74.91v2.72c0,.1,0,.19,0,.35L22,23.17a.52.52,0,0,0,.29-.53V9.15a16.64,16.64,0,0,1-8.32.92v2.55a1.62,1.62,0,0,1-.07.44.84.84,0,0,1-.94.51.82.82,0,0,1-.68-.79c0-.94,0-1.87,0-2.8,0-.09-.06-.22-.12-.24C11.55,9.55,11,9.38,10.4,9.2ZM22.32,7.13a3.47,3.47,0,0,0-.5-.38,8.14,8.14,0,0,0-1.09-.47A16.71,16.71,0,0,0,13.06,6a6.36,6.36,0,0,0-2.31.8c-.43.26-.43.38,0,.64a6.77,6.77,0,0,0,2.13.75A17.74,17.74,0,0,0,19,8.33a8.27,8.27,0,0,0,2.58-.72A8.3,8.3,0,0,0,22.32,7.13Z" fill="#212121"/><path d="M10.4,9.2c.6.18,1.15.35,1.7.54.06,0,.12.15.12.24,0,.93,0,1.86,0,2.8a.82.82,0,0,0,.68.79.84.84,0,0,0,.94-.51,1.62,1.62,0,0,0,.07-.44V10.07a16.64,16.64,0,0,0,8.32-.92V22.64a.52.52,0,0,1-.29.53l-1.25.61c0-.16,0-.25,0-.35V20.71a.86.86,0,0,0-.74-.91.83.83,0,0,0-1,.86c0,1,0,2.06,0,3.09,0,.29-.07.38-.37.41a16.8,16.8,0,0,1-6.16-.3,12.49,12.49,0,0,1-1.76-.67.53.53,0,0,1-.33-.57c0-.78,0-1.55,0-2.33a2,2,0,0,0-1.15-1.86L6.44,17c-.3-.16-.33-.23-.23-.54s.19-.57.28-.86c.17-.48.23-.5.7-.3a3.71,3.71,0,0,0,1.14.37,1.91,1.91,0,0,0,2.07-2c0-1.41,0-2.82,0-4.23Z" fill="#eee"/><path d="M22.32,7.13a8.3,8.3,0,0,1-.77.48A8.27,8.27,0,0,1,19,8.33a17.74,17.74,0,0,1-6.08-.15,6.77,6.77,0,0,1-2.13-.75c-.44-.26-.44-.38,0-.64A6.36,6.36,0,0,1,13.06,6a16.71,16.71,0,0,1,7.67.29,8.14,8.14,0,0,1,1.09.47A3.47,3.47,0,0,1,22.32,7.13Z" fill="#eee"/><rect width="30" height="30" fill="none"/></svg>