<svg xmlns="http://www.w3.org/2000/svg" viewBox="0 0 30 30"><path d="M23.39,24.93a4.57,4.57,0,0,1-.82,1.89,3.85,3.85,0,0,1-3,1.54c-1.06,0-2.12,0-3.17,0a3.95,3.95,0,0,1-2.82-6.62c.21-.24.45-.45.67-.67a2.62,2.62,0,0,0,.07-3.71c-.9-1-1.84-1.91-2.73-2.89a5,5,0,0,1,.29-7.14A4.83,4.83,0,0,1,15.14,6c1.08,0,2.17,0,3.26,0a5.06,5.06,0,0,1,4.92,4.23c0,.09.05.19.07.29Zm-.94-7.24V11a4.12,4.12,0,0,0-4.05-4c-1.08,0-2.15,0-3.23,0a3.88,3.88,0,0,0-2,.58,4.09,4.09,0,0,0-1,6.25c.94,1.05,1.94,2,2.88,3.08a3.49,3.49,0,0,1,.25,4.33,9.28,9.28,0,0,1-1,1.09,3,3,0,0,0,2.15,5.15h2.8a3,3,0,0,0,3.17-3.17Z" fill="#212121" stroke="#212121" stroke-linecap="round" stroke-linejoin="round" stroke-width="0.75"/><path d="M23.39,4.64a4.31,4.31,0,0,1-.47.84,1.66,1.66,0,0,1-2,.37A1.7,1.7,0,0,1,20,4a1.7,1.7,0,0,1,3.24-.32l.13.3Zm-2.45-.31a.73.73,0,0,0,.74.75.76.76,0,1,0,0-1.51A.75.75,0,0,0,20.94,4.33Z" fill="#212121" stroke="#212121" stroke-linecap="round" stroke-linejoin="round" stroke-width="0.75"/><path d="M8.79,7.88A2.17,2.17,0,0,1,6.61,5.7,2.19,2.19,0,1,1,8.79,7.88Zm0-.94a1.24,1.24,0,0,0,1.26-1.22,1.25,1.25,0,1,0-2.5,0A1.25,1.25,0,0,0,8.79,6.94Z" fill="#212121" stroke="#212121" stroke-linecap="round" stroke-linejoin="round" stroke-width="0.75"/><path d="M14.83,3.34a1.71,1.71,0,0,1-3.41,0,1.71,1.71,0,1,1,3.41,0Zm-1.7-.78a.76.76,0,0,0,0,1.52.78.78,0,0,0,.76-.74A.76.76,0,0,0,13.13,2.56Z" fill="#212121" stroke="#212121" stroke-linecap="round" stroke-linejoin="round" stroke-width="0.75"/><path d="M19.1,3.32a1.7,1.7,0,1,1-1.68-1.7A1.69,1.69,0,0,1,19.1,3.32Zm-2.45,0a.76.76,0,0,0,.74.76.74.74,0,0,0,.77-.73.76.76,0,1,0-1.51,0Z" fill="#212121" stroke="#212121" stroke-linecap="round" stroke-linejoin="round" stroke-width="0.75"/><path d="M22.45,17.69v6.56a3,3,0,0,1-3.17,3.17h-2.8a3,3,0,0,1-2.15-5.15,9.28,9.28,0,0,0,1-1.09,3.49,3.49,0,0,0-.25-4.33c-.94-1.05-1.94-2-2.88-3.08a4.09,4.09,0,0,1,1-6.25,3.88,3.88,0,0,1,2-.58c1.08,0,2.15,0,3.23,0a4.12,4.12,0,0,1,4.05,4v6.71Z" fill="#eee"/><path d="M20.94,4.33a.75.75,0,0,1,.74-.76.76.76,0,1,1,0,1.51A.73.73,0,0,1,20.94,4.33Z" fill="#eee"/><path d="M8.79,6.94A1.25,1.25,0,0,1,7.55,5.7a1.25,1.25,0,1,1,2.5,0A1.24,1.24,0,0,1,8.79,6.94Z" fill="#eee"/><path d="M13.13,2.56a.76.76,0,0,1,.75.78.78.78,0,0,1-.76.74.76.76,0,0,1,0-1.52Z" fill="#eee"/><path d="M16.65,3.31a.76.76,0,1,1,1.51,0,.74.74,0,0,1-.77.73A.76.76,0,0,1,16.65,3.31Z" fill="#eee"/><rect width="30" height="30" fill="none"/></svg>