<svg xmlns="http://www.w3.org/2000/svg" viewBox="0 0 30 30"><line x1="2.77" y1="20.04" x2="27.23" y2="20.04" fill="#fff" stroke="#000" stroke-linecap="round" stroke-miterlimit="10" stroke-width="0.8"/><line x1="8.28" y1="22.46" x2="21.72" y2="22.46" fill="#fff" stroke="#000" stroke-linecap="round" stroke-miterlimit="10" stroke-width="0.8"/><line x1="13.79" y1="24.89" x2="16.21" y2="24.89" fill="#fff" stroke="#000" stroke-linecap="round" stroke-miterlimit="10" stroke-width="0.8"/><path d="M28,17.81a.47.47,0,0,0,.35-.78L20.47,7.92a.49.49,0,0,0-.69,0l-1,1-6.74,6.73a.44.44,0,0,1-.33.14H9.56l7.38-7.38a.47.47,0,0,0,0-.66L14.6,5.39a1,1,0,0,0-1.35,0L1.64,17a.47.47,0,0,0,.33.8Z" fill="#212121"/><rect width="30" height="30" fill="none"/></svg>