<svg xmlns="http://www.w3.org/2000/svg" viewBox="0 0 30 30"><path d="M6.64,24.15a.8.8,0,0,1-.8-.8v-7.3a.79.79,0,0,1,.8-.8H9.72c.15,0,.29-.09.28-.25a.24.24,0,0,0-.26-.24h-4a.79.79,0,0,1-.59-.26.8.8,0,0,1-.2-.63l.82-7.3a.78.78,0,0,1,.79-.71h17a.78.78,0,0,1,.79.71l.82,7.31a.83.83,0,0,1-.2.62.79.79,0,0,1-.6.26h-4a.43.43,0,0,0-.3.1A.2.2,0,0,0,20,15c0,.2.19.25.35.25h3a.8.8,0,0,1,.8.8v7.3a.8.8,0,0,1-.8.8ZM15,12.66c-.22,0-.24.23-.24.3q0,2,0,4.08c0,.14.06.3.24.3s.25-.25.25-.32V13c0-.13-.07-.29-.25-.29v0Z" fill="#03a9f4"/><path d="M23.47,6.65c.27,2.41.54,4.83.81,7.3h-4a1.05,1.05,0,1,0,0,2.1h3v7.3H6.64v-7.3H9.75A1,1,0,0,0,10.8,15a1,1,0,0,0-1.05-1H5.69c.28-2.45.55-4.87.82-7.3h17M15,18.14h0A1.06,1.06,0,0,0,16,17V12.94a1.06,1.06,0,0,0-1-1.08h0A1,1,0,0,0,14,13c0,1.37,0,2.73,0,4.09a1,1,0,0,0,1,1.1M23.47,5.05h-17A1.6,1.6,0,0,0,4.92,6.47v.15L4.1,13.78a1.61,1.61,0,0,0,1.05,1.68,1.63,1.63,0,0,0-.11.59v7.3A1.6,1.6,0,0,0,6.64,25H23.35a1.6,1.6,0,0,0,1.6-1.6v-7.3a1.45,1.45,0,0,0-.12-.59,1.59,1.59,0,0,0,1-1.68l-.54-4.84-.27-2.47a1.6,1.6,0,0,0-1.59-1.42Z" fill="#212121"/><rect width="30" height="30" fill="none"/></svg>