<svg xmlns="http://www.w3.org/2000/svg" viewBox="0 0 30 30"><path d="M20.49,16.78c1-1,1.91-1.9,2.86-2.87a4.38,4.38,0,0,0,.39-.54V13a5.3,5.3,0,0,0-.39-.54L20.49,9.64l-.16-.17a.36.36,0,0,1,.17-.62A2.25,2.25,0,0,0,22,6.53a2.3,2.3,0,0,0-4.26-1,2.54,2.54,0,0,0-.18.41c-.12.32-.36.39-.62.18l-.17-.16L13.91,3.07a3.54,3.54,0,0,0-.54-.39H13a4.87,4.87,0,0,0-.52.37L9.64,5.93l-.16.16a.36.36,0,0,0,.17.63,2.18,2.18,0,0,1,1.48,1.75A2.28,2.28,0,0,1,9.62,11,2.31,2.31,0,0,1,6.84,10a2.37,2.37,0,0,1-.13-.34.35.35,0,0,0-.58-.16A.8.8,0,0,0,6,9.61l-3,3a.77.77,0,0,0,0,1.23l3,3,.15.16a.37.37,0,0,1-.18.64A2.29,2.29,0,0,0,6.25,22a2.23,2.23,0,0,0,2.36-1,1.93,1.93,0,0,0,.23-.48c.13-.33.37-.4.64-.17l.18.17,2.92,2.92a.78.78,0,0,0,1.25,0l3-3Z" fill="#03a9f4" stroke="#212121" stroke-linejoin="round" stroke-width="1.6"/><path d="M12,24.35,14.4,21a6.22,6.22,0,0,0,4,1.86c1.74,0,2.86-.62,2.86-1.86,0-1.49-.78-2.36-4.91-2.36V14.91c3.29,0,4.29-.87,4.29-2.23,0-1.18-.72-1.8-2.05-1.8a5.1,5.1,0,0,0-3.48,1.61L12.48,9.26a9.7,9.7,0,0,1,6.4-2.54c4.34,0,7.14,2,7.14,5.55,0,1.9-1.06,3.33-3.17,4.26v.12c2.24.69,3.79,2.24,3.79,4.72,0,3.73-3.54,5.78-7.64,5.78C15.8,27.15,13.47,26.09,12,24.35Z" fill="#eee" stroke="#212121" stroke-width="1.5"/><rect width="30" height="30" fill="none"/></svg>