<svg xmlns="http://www.w3.org/2000/svg" viewBox="0 0 30 30"><path d="M26.34,13.37H24.41A9.5,9.5,0,0,0,22.82,9.5h0l1.35-1.36a1.14,1.14,0,0,0,0-1.63l-.67-.67a1.14,1.14,0,0,0-1.63,0L20.51,7.18h0a9.5,9.5,0,0,0-3.86-1.59h0V3.66A1.16,1.16,0,0,0,15.47,2.5h-.94a1.16,1.16,0,0,0-1.16,1.16V5.58h0A9.52,9.52,0,0,0,9.5,7.18h0L8.13,5.83a1.14,1.14,0,0,0-1.63,0l-.67.67a1.14,1.14,0,0,0,0,1.63L7.18,9.49h0a9.5,9.5,0,0,0-1.59,3.86H3.66A1.16,1.16,0,0,0,2.5,14.53v.94a1.16,1.16,0,0,0,1.16,1.16H5.59A9.5,9.5,0,0,0,7.18,20.5h0L5.83,21.87a1.14,1.14,0,0,0,0,1.63l.67.67a1.14,1.14,0,0,0,1.63,0l1.36-1.35h0a9.66,9.66,0,0,0,3.86,1.6h0v1.92a1.16,1.16,0,0,0,1.16,1.16h.94a1.16,1.16,0,0,0,1.16-1.16V24.42h0a9.53,9.53,0,0,0,3.86-1.61h0l1.36,1.35a1.14,1.14,0,0,0,1.63,0l.67-.67a1.14,1.14,0,0,0,0-1.63l-1.35-1.36h0a9.66,9.66,0,0,0,1.6-3.86h1.92a1.16,1.16,0,0,0,1.16-1.16v-.94A1.16,1.16,0,0,0,26.34,13.37ZM15,20.72A5.72,5.72,0,1,1,20.72,15,5.72,5.72,0,0,1,15,20.72Z" fill="#212121"/><rect width="30" height="30" fill="none"/></svg>