<svg xmlns="http://www.w3.org/2000/svg" viewBox="0 0 30 30"><path d="M15,13.68a2.26,2.26,0,0,0-2.25,2.26,2.22,2.22,0,0,0,.22,1L9.16,20.72l-2,.55L9.8,24l.58-2.15L14.16,18a2.14,2.14,0,0,0,.84.17,2.26,2.26,0,0,0,0-4.51Z" fill="#212121"/><path d="M15,9a6.88,6.88,0,0,0-6.14,10l1.48-1.55a5.07,5.07,0,0,1-.26-1.57,4.92,4.92,0,1,1,3.43,4.68L12,22.15A6.89,6.89,0,1,0,15,9Z" fill="#212121"/><path d="M20.32,2.92,17.71,5.08a11.21,11.21,0,1,1-5.63.06l-.51-2.83a14,14,0,1,0,8.75.61Z" fill="#212121"/><polygon points="18.17 2.52 11.15 0 12.48 7.34 18.17 2.52" fill="#212121"/><rect width="30" height="30" fill="none"/></svg>