<svg xmlns="http://www.w3.org/2000/svg" viewBox="0 0 30 30"><path d="M15,12.79a2.21,2.21,0,0,0-2.2,2.2,2.14,2.14,0,0,0,.22.95L9.32,19.67l-2,.54,2.63,2.63.57-2.1,3.7-3.7a2.17,2.17,0,0,0,.81.16,2.21,2.21,0,1,0,0-4.41Z" fill="#212121"/><path d="M15,8.25a6.73,6.73,0,0,0-6,9.8l1.45-1.52A4.88,4.88,0,0,1,10.21,15,4.81,4.81,0,1,1,15,19.8a5,5,0,0,1-1.45-.22l-1.45,1.5A6.74,6.74,0,1,0,15,8.25Z" fill="#212121"/><polygon points="14.83 30 18.55 24.49 11.11 24.49 14.83 30" fill="#212121"/><polygon points="30 15.17 24.49 11.45 24.49 18.89 30 15.17" fill="#212121"/><polygon points="15.17 0 11.45 5.51 18.89 5.51 15.17 0" fill="#212121"/><polygon points="0 14.83 5.51 18.55 5.51 11.11 0 14.83" fill="#212121"/><rect width="30" height="30" fill="none"/></svg>