<svg xmlns="http://www.w3.org/2000/svg" viewBox="0 0 30 30"><path d="M15,12.87A2.12,2.12,0,0,0,12.88,15a2.18,2.18,0,0,0,.21.92L9.51,19.49,7.57,20l2.54,2.54.54-2L14.21,17a2.09,2.09,0,0,0,.79.15,2.12,2.12,0,1,0,0-4.24Z" fill="#212121"/><path d="M15,8.5a6.48,6.48,0,0,0-5.78,9.43l1.4-1.46A4.51,4.51,0,0,1,10.37,15,4.64,4.64,0,1,1,13.6,19.4l-1.39,1.44a6.39,6.39,0,0,0,2.79.64,6.49,6.49,0,0,0,0-13Z" fill="#212121"/><path d="M5.25,19l-.15-.4-2.61.7c.09.28.19.56.3.83l.06.13c.08.2.19.39.28.59l2.34-1.35-.15-.32Z" fill="#212121"/><path d="M6.36,21,4,22.37c.24.35.5.7.77,1,0,0,0,0,0,0s.15.17.22.25L7,21.78l-.11-.13C6.67,21.45,6.52,21.23,6.36,21Z" fill="#212121"/><path d="M8.39,23.19,8.21,23,6.3,25a12.57,12.57,0,0,0,1.3,1h0L9,23.63H9Z" fill="#212121"/><path d="M4.55,16.25a1.81,1.81,0,0,1,0-.23.57.57,0,0,1,0-.13H1.81c0,.12,0,.23,0,.35l0,.29c0,.33.09.65.15,1v.05l2.62-.7Q4.58,16.55,4.55,16.25Z" fill="#212121"/><path d="M2,12.47c-.06.31-.11.63-.15.94,0,.11,0,.21,0,.31s0,.26,0,.39h2.7a.49.49,0,0,1,0-.12,1.6,1.6,0,0,1,0-.23,6,6,0,0,1,.09-.61L2,12.45Z" fill="#212121"/><path d="M16.63,1.89,11.38,0l.39,2.19-.35.09-.55.16-.62.23-.5.19c-.28.12-.55.26-.82.4l-.54.29c-.23.14-.46.27-.68.42s-.26.18-.39.28l-.58.43L6.37,5c-.18.17-.37.33-.54.5l-.32.31c-.19.2-.37.4-.55.61l-.23.27c-.23.29-.46.58-.67.89a.21.21,0,0,1,0,.06c-.23.34-.45.7-.65,1.06a1,1,0,0,1,0,.1,9,9,0,0,0-.48,1L2.74,10c-.09.23-.17.46-.25.69l2.61.7c.05-.14.1-.29.16-.43s0-.09,0-.13a10.48,10.48,0,0,1,1-1.74l0-.06c.16-.24.34-.47.52-.7L7,8.21c.16-.19.33-.38.5-.55l.17-.18c.18-.17.36-.34.55-.5l.17-.14a7.88,7.88,0,0,1,.74-.55l0,0c.27-.18.55-.35.83-.5l.19-.1.67-.32.28-.12c.21-.08.41-.16.62-.22l.31-.1.24-.08v0l.37,2.05,2.84-2.4L18,2.37Z" fill="#212121"/><path d="M23.16,8.34c.16.2.31.41.45.61L26,7.6a12.3,12.3,0,0,0-.74-1l0,0-.25-.29L23,8.18l0,0Z" fill="#212121"/><path d="M24.75,11c.05.12.09.24.13.36l2.62-.7c-.09-.27-.18-.53-.29-.79l-.06-.13c-.09-.21-.2-.42-.3-.63l-2.34,1.35c0,.12.12.24.17.36Z" fill="#212121"/><path d="M25.49,15.86a.76.76,0,0,1,0,.15,1.6,1.6,0,0,1,0,.23c0,.2-.05.39-.09.59l2.62.7h0c.06-.31.11-.63.15-1,0-.1,0-.2,0-.3s0-.28,0-.42Z" fill="#212121"/><path d="M21.61,6.81l.14.12L23.66,5A11.82,11.82,0,0,0,22.4,4h0l-.06,0L21,6.34l.06,0Z" fill="#212121"/><path d="M24.91,18.55l-.17.45s0,.09,0,.13a10.48,10.48,0,0,1-1,1.74l0,.06c-.16.24-.34.47-.52.7l-.14.16c-.16.19-.33.38-.5.55l-.17.18c-.18.17-.36.34-.55.5l-.17.14c-.24.19-.48.38-.74.55l0,0c-.27.18-.55.35-.83.5l-.19.1-.67.32-.28.12c-.21.08-.41.16-.62.22l-.31.1-.24.08v0l-.37-2-2.84,2.4L12,27.63l1.35.48L18.62,30l-.39-2.19.35-.09.55-.16.62-.23.5-.19c.28-.12.55-.26.82-.4l.54-.29c.23-.14.46-.27.68-.42s.26-.18.39-.28l.58-.43.37-.3c.18-.17.37-.33.54-.5l.32-.31c.19-.2.37-.4.55-.61l.23-.27c.23-.29.46-.58.67-.89a.21.21,0,0,1,0-.06c.23-.34.45-.7.65-1.06a1,1,0,0,1,0-.1,9,9,0,0,0,.48-1l.11-.27c.1-.24.18-.47.26-.71Z" fill="#212121"/><path d="M28.14,13.47c0-.33-.09-.65-.15-1l0-.09-2.62.7c0,.21.08.43.1.64a1.81,1.81,0,0,1,0,.23s0,.07,0,.1h2.7c0-.11,0-.21,0-.32Z" fill="#212121"/><rect width="30" height="30" fill="none"/></svg>