<svg xmlns="http://www.w3.org/2000/svg" viewBox="0 0 30.01 30"><path d="M18.75,18.59a1,1,0,0,0-1,1,1,1,0,0,0,.11.45l-1.77,1.76-1,.26,1.25,1.25.27-1,1.75-1.75a1,1,0,0,0,.38.07,1,1,0,1,0,0-2.08Z" transform="translate(0.01)" fill="#212121"/><path d="M18.75,16.44a3.19,3.19,0,0,0-3.19,3.19,3.23,3.23,0,0,0,.35,1.45l.69-.72a2.19,2.19,0,0,1-.12-.73,2.28,2.28,0,1,1,2.27,2.28,2.15,2.15,0,0,1-.68-.11l-.69.71a3.19,3.19,0,1,0,1.37-6.07Z" transform="translate(0.01)" fill="#212121"/><rect x="20.88" y="18.92" width="9.77" height="2.5" rx="1.09" transform="translate(17.01 -11.36) rotate(36.42)" fill="#212121"/><path d="M4.18,29.23l-1.36-5c-.45-1.66-.9-3.32-1.25-5A99.67,99.67,0,0,1,0,9.09L.49,9a2.91,2.91,0,0,0,.78,1.24,2.5,2.5,0,0,0,1.34.63,3.71,3.71,0,0,0,1.52-.08A2.83,2.83,0,0,0,5.4,10l.29-.31.11.41a3.44,3.44,0,0,0,1.09,1.63,5.63,5.63,0,0,0,1.77,1,5.47,5.47,0,0,0,4-.42l.33-.16-.12.35a2.84,2.84,0,0,0,0,1.66,3.37,3.37,0,0,0,.88,1.47,10.59,10.59,0,0,0,2.84,2.12,11,11,0,0,1-3-2,3.53,3.53,0,0,1-1-1.52,3,3,0,0,1,0-1.84l.21.18a6.69,6.69,0,0,1-2.08.68,5.23,5.23,0,0,1-2.19-.13A5.76,5.76,0,0,1,6.6,12.09a3.85,3.85,0,0,1-1.25-1.86l.4.1a3.23,3.23,0,0,1-1.49.91,3.9,3.9,0,0,1-1.73.11,3,3,0,0,1-1.59-.73A3.18,3.18,0,0,1,0,9.13l.48-.08c.32,3.4.83,6.79,1.45,10.15.3,1.68.72,3.34,1.1,5Z" transform="translate(0.01)" fill="#212121"/><path d="M21.15,17.07l.37-.57a.7.7,0,0,0-.23-1,69.66,69.66,0,0,0-10.37-4.85C3.59,8.08,0,9.09,0,9.09s7.52.63,13.45,4.09c3.59,2.09,5.78,3.47,6.75,4.1A.69.69,0,0,0,21.15,17.07Z" transform="translate(0.01)" fill="#212121"/><polygon points="8.26 0.77 4.21 6.76 12.3 6.76 8.26 0.77" fill="#212121"/><polygon points="8.26 24.03 12.3 18.04 4.21 18.04 8.26 24.03" fill="#212121"/><rect x="0.01" width="30" height="30" fill="none"/></svg>